<svg id="Layer_1" data-name="Layer 1" xmlns="http://www.w3.org/2000/svg" viewBox="0 0 288 288"><defs><style>.cls-1{fill:#343434;}.cls-2{fill:#fff;}.cls-3{fill:#f4f2ef;}.cls-4{fill:#f7d0da;}.cls-5{fill:#3c332f;}.cls-6{fill:#3e3632;}.cls-7{fill:#3f3733;}.cls-8{fill:#403733;}.cls-9{fill:#423a36;}.cls-10{fill:#403833;}.cls-11{fill:#433b38;}.cls-12{fill:#463c3b;}.cls-13{fill:#524b47;}.cls-14{fill:#423c38;}.cls-15{fill:#4c4643;}.cls-16{fill:#4a413f;}.cls-17{fill:#3e3530;}.cls-18{fill:#443c38;}.cls-19{fill:#59534f;}.cls-20{fill:#f6f4f3;}.cls-21{fill:#f2f1ef;}.cls-22{fill:#0c0c0c;}.cls-23{fill:#facbcc;}.cls-24{fill:#facccc;}</style></defs><title>Literature</title><path class="cls-1" d="M112,208.53l-.05.06h0Z"/><path class="cls-1" d="M93.5,195.49c.08,0,.15.11.23.16l0-.56-.2.4Z"/><rect class="cls-2" x="88.57" y="222.2" width="105.83" height="26.5"/><path class="cls-1" d="M199.64,244.37c-3.8-4.7-3.67-7.91-.08-13,1.27-1.81,3.09-3.2,3.06-6.14-.19-22.34-.19-44.68-.21-67l-2.08.83c-3.31,1.33-6.78,2.29-10.27,3.32,4.29,6,8.18,12,7.13,20.19l-1.43,2.63c4.54,2.41,1.58,6,1.5,9.2l-2.73,4c-5.11,10.75-13.85,14-25.4,15.21a205.43,205.43,0,0,1-21.64,1.21c-10.18,0-20.17,1.94-31-.71-9.07-2.21-13.8-3.87-17.34-6.85a32.56,32.56,0,0,1-5.94-6.88h0c-2.36-1.82.29-5.63-3.13-7.32-1.42-.7.24-1.89,1.17-2.53a4.74,4.74,0,0,1,2.19-.91l-.06-1.19c-2.3.94-3.89.3-5.19-1.77a1.94,1.94,0,0,1,.23-1.84c2.19-1.18,3.33,0,4.84,1.13l-.2-4a9.31,9.31,0,0,1-1.25,1.93l-2.88-4.63a50.59,50.59,0,0,1,7.71-16.3,118.31,118.31,0,0,1-15.83-5.66c0,26,0,51.94,0,77.91A37.44,37.44,0,0,0,82,245.08c1.69,6.21,4.32,8.61,10.64,8.62,19.19,0,38.38,0,57.57,0,2.67,0,4.19,0,5.06.48v-8.41a8.14,8.14,0,0,1-4.49.82c-17.1-.3-34.2-.12-51.3-.13-7.23,0-10.12-3.21-9.5-10.53.56-6.6,1.68-7.85,8.14-7.86q45.06-.05,90.13.07a8.64,8.64,0,0,1,1.36.22c-2.26,5.28-3.63,10.48-.17,15.74,1.13,1.71.11,2.28-1.46,2.33a42.35,42.35,0,0,0-4.31,0,8.71,8.71,0,0,1-3.29,0v7.32a6.88,6.88,0,0,1,1.42-.1c5.59.14,11.19.09,16.79,0,4-.06,5.45-2.78,3.36-6.31A26.39,26.39,0,0,0,199.64,244.37Z"/><path class="cls-3" d="M182.12,33.52s28.27-23.1,35.63-10.35c1.79,4.79,2.6,6.63,2.6,6.63l.38,4.36-5.57,4-24.28,2.95Z"/><path class="cls-3" d="M99.23,176.71a29.38,29.38,0,0,1,3.64-8.78c5-7.79,5.5-8.09,15.88-8.16-6-1.72-11.68-2-17.23-3C89,154.3,79.72,146.91,71.77,137.45l.15.12c-.76-1.75-1.5-3.52-4-2.37-1.24-1.78-.49-4.28-2.13-5.93-.86-5.57-4-10.35-5.34-15.76l-2.41-5.74c2.17-10.39,4.29-20.8,7.11-31,4.14-11.11,9.47-21.39,19.68-28.28,5-7.64,13.28-11.31,20.09-16.77l.08,1.49c1.44,1.19,2.76.18,4.16-.17,12.38-3.05,24.82-5.57,37.68-3.81l3.92-1.25a17.82,17.82,0,0,0,9,2.57h2.56a108.06,108.06,0,0,1,28.26,12.16A8.68,8.68,0,0,0,196,43.79c3.9.6,6.15,3.41,8.46,6.21a89,89,0,0,1,11.88,18.6c1.28-8.46-1-17,1.4-25.27,2-1.7,4.07-3.26,7-2.64l.18,1.84c.29,2.21-2.82,3.61-1.44,6.07a9.39,9.39,0,0,1,.06,1.26c1.12,9.26.18,18.44-1.19,27.6-.27,1.83-.09,4.33-2.29,4.76s-1.31,1.58-1,2.53c3,8.85,3.47,18.09,4.39,27.27l-1.37,2.79c-1.82,3.48-1.31,7.74-3.66,11l-1.36,2.79c-1.93,3.48-4.48,12.64-6.6,14.05a97.65,97.65,0,0,1-20.76,12.1,42.77,42.77,0,0,1-19.47,3c7.78-1.81,11.84,3.85,15.54,10.29,2.55,4.43,3,9.67,5.83,14l-1.26,2.32c-.6,2.88-1.23,5.77,1.33,8.14l-2.41,3.56c-3.61.86-4.86,4.5-7.58,6.43-3.82,2.71-7.49,5.86-12.59,3-1.32-.75-2.41-.07-3.6.32-9.64,3.16-12.07,1.49-13.34-9.15a5.26,5.26,0,0,0,0,1.45c.95,11.14.79,11.32-9.83,11.07-7.39-.17-8.18-1-8-8.67,0-1.91,0-3.82,0-5.72,0-.85-1-.28-.13-.39.07,0,.11.19.1.6a43.16,43.16,0,0,1-.16,6.35c-.49,3-1.33,6-4.59,7.07s-5.77-.4-8.09-2.5c-1.25-1.13-2-2.72-3.59-3.82-1.79,5.51-5.57,4.81-9.53,2.92-4.54-2.17-6.52-6.47-8.5-10.72a13,13,0,0,1-.54-2.47c-.33,2.27,1.55,4,1,6.14"/><path class="cls-4" d="M218.52,42.71c-.07,8.67-.12,17.35-.23,26,0,1.62.35,3.91-1.84,4.09-1.84.15-1.44-2.1-2-3.38-4.27-9.91-9.44-19.18-19.12-25-3.64-.23-4.38-3.07-5.22-5.82,2-5.48,4.57-10.66,10.85-11.88,7.44-1.45,11.71,3.15,14.94,9.08,2.56,2.78,4.93-1.53,7.45-.2l1.3,0C224.85,40,221.3,41,218.52,42.71Z"/><path class="cls-4" d="M85.78,50.16c-4.9.63-6.66,4.92-9,8.2-4.08,5.59-7.87,11.42-10.06,18.1a2.23,2.23,0,0,1-2.89-.15c-2.43-4.74-.87-9.84-1.3-14.76-.38-4.32.81-8.74-.88-13a3.25,3.25,0,0,1-1.25-2.37l.13-1.44c1-1.59,2.27-1.26,3.49-.77-.6-1.44-4.42-.15-3.48-3.45a1.06,1.06,0,0,1,0-.74c.93-1.2,2.18-.75,3.33-.61,2.84.35.39-1.46.86-2.09,3.57-8.21,9.39-10,16.47-5.09a54.87,54.87,0,0,1,8.42,6.66C90.9,41.06,89,42.47,87.85,44,86.43,45.85,85.37,47.74,85.78,50.16Z"/><path class="cls-5" d="M99.6,197.87c-.32-1.46-.72-2.93.27-4.31,3,1.62,3.39,5.16,5.64,7.34,3,2.89,6.29,4.81,10.69,4.25.88-2.72-2.54-5.1,0-8.19a101.9,101.9,0,0,0,6.65,8.22c4.43,4.48,7.92,3.41,9.29-2.69.46-2.06.51-4.2.87-6.28s0-4.23,2.54-6.12c0,4.43.49,8.43-.12,12.25-.77,4.79,1.25,6,5.4,5.76a28,28,0,0,1,3.81-.12c5.2.37,7.53-1.14,6-7a11.34,11.34,0,0,1,2.42-10.83c.28,3.35.33,6.75.89,10,1.11,6.53,3.81,7.81,9.72,4.86,2.39-1.19,4.73-2.49,7.92-4.17-1.82,4.14-.83,5.11,2.61,4.19,5.07-1.36,8.1-5.13,11.35-8.78.86-1,2.26-4.51,3.61-.16-4.52,9.51-12.25,12.38-22.47,13.46a181.67,181.67,0,0,1-19.14,1.07c-9,0-17.84,1.72-27.44-.62-8-2-12.21-3.43-15.34-6.06a28.8,28.8,0,0,1-5.26-6.08"/><path class="cls-6" d="M95.82,179.14c2.29-7.76,5.37-13.56,10.41-18.56-14-4.5-28.73-7.25-34.46-23.14,1.93-.14,3.13,1,4.19,2.38,8.78,11.15,21.13,15,34.45,16.73l10.7,1.44a2,2,0,0,1,2,2c0,1.27-1,1.7-2.2,1.69a9.14,9.14,0,0,0-1.9,0c-3.21.67-6.74-2.47-9.63.45a30.75,30.75,0,0,0-8,12.8c-.83,2.79-.94,5.85-3,8.26"/><path class="cls-7" d="M190.13,38.66l5.22,5.82c-1.26,2.45-2.84,1-4.17.22a132,132,0,0,0-27.45-12.41c-.6-.19-1-1.17-1.43-1.78,6.14-1.13,12.63,3.71,17.7,1.29s9-7.51,14.1-10.55c5.72-3.41,11.69-6.25,18.59-3.48,5.59,2.25,9,5.94,7.79,12.56-1.79-4.1-2.61-9-8.26-9.77A21.61,21.61,0,0,0,199.31,23c-5.68,2.88-10.59,6.88-15.7,11.65Z"/><path class="cls-6" d="M191.59,182.1c-2.9-.08-3-2.63-3.73-4.45-1.06-2.52-1.62-5.29-2.85-7.71-3.1-6.06-6.29-12.05-15-10.52-1.71.3-4.27.66-6.38-2.88,3.72,0,6.69.13,9.66,0A54.16,54.16,0,0,0,202.74,146c2.27-1.64,4.15-4.54,7.71-3.29-3.17,7.63-10.2,10.3-17.06,13-3.71,1.48-7.63,2.45-11.54,3.67C186.6,166.43,192.8,172.69,191.59,182.1Z"/><path class="cls-8" d="M64.39,76.53l2.28-.07C65,86.8,61.19,96.69,60.13,107.18c-.12,1.19-1.34.51-2.08.58-.37-5.26-.67-10.56,1-15.65,3.17-10-2.63-19.31-1.73-29.13.52-5.71-1.11-11.74,3.07-16.77l1.12.94c2.74,3.11,1,6.86,1.44,10.29C63.77,63.77,61.21,70.37,64.39,76.53Z"/><path class="cls-9" d="M223.44,112c-3.21-.9-2.29-3.65-2.44-5.77-.32-4.41-.59-8.8-1.3-13.2s-4.11-7.93.13-13.52c3.12-4.12,1.64-11.79,2.05-17.88.27-4-.25-8,1.63-11.79,2.63,1.84,2.45,4.72,2.62,7.41.38,6,.24,12.1-1.61,17.61-3,9-2.19,17.67-.18,26.61C225.11,104.89,225.36,108.66,223.44,112Z"/><path class="cls-7" d="M60.37,35.75C60.67,19,71,13,85.5,21.23c4.94,2.8,10,5.46,13.08,10.63l-.73.58c-3.28,1.05-5.57-1.11-8.1-2.5-4-2.21-7.69-5.14-12.31-6.19-5.94-1.35-9.07.31-11.36,6-1,2.57-.89,6.09-4.88,6.44Z"/><path class="cls-10" d="M146.85,29.18A7.35,7.35,0,0,1,142,30.47c-10.9-.3-21.48,1.79-32.07,3.94-1.51.31-4.23,2.65-4.95-1.25,10.57-5.76,22-7.1,33.8-6.69C141.67,26.57,144.82,26.36,146.85,29.18Z"/><path class="cls-11" d="M85.78,50.16c-3.5-1.11-1.82-3.26-.73-4.84A58.81,58.81,0,0,1,90,39.73c1.65-4,5.06-6.17,8.7-8.05l-.1.19c1.2-.71,2.38-1.46,3.61-2.11,2.11-1.12,3.14-.6,2.73,1.92C100.79,40.16,89.6,41.34,85.78,50.16Z"/><path class="cls-9" d="M223.37,35.66c-2.5-.43-4.75,8.27-7.45.2,3.84-.74,4.81-5,7.93-6.83C225.92,31.67,224,33.6,223.37,35.66Z"/><path class="cls-12" d="M65.48,38l2,2.16a5.75,5.75,0,0,1-2.13.64c-1.64-.2-3.25-.67-4.87-1-.71-.45-1.45-.88-2.14-1.37-1.35-1-3.65-2.19-2.63-3.73,1.56-2.34,3.19.09,4.66,1l-.09-.18C61.9,36.64,64.26,36.15,65.48,38Z"/><path class="cls-13" d="M191.66,192.56q-6.43-3.36-1.33-8.14C194.35,186.55,191.73,189.76,191.66,192.56Z"/><path class="cls-7" d="M160.81,30.5c-3.71,1.68-8.19,2.27-10-2.57C159.22,30.21,167.28,19,160.81,30.5Z"/><path class="cls-14" d="M68.08,134.83l3.49-2.33c2,1.59-.72,3.47.35,5.06-2-.09-2.25,3.61-4.52,2.18-.68-.43-.45-2.3-.64-3.51A1.67,1.67,0,0,1,68.08,134.83Z"/><path class="cls-15" d="M218.52,42.71l6.14-7c3.33,1.64-.31,3.34,0,5C222.79,41.79,221.41,44.56,218.52,42.71Z"/><path class="cls-9" d="M223.46,48.6c-2,.07-5,.75-2.15-2.8a30.17,30.17,0,0,1,3.58-3.27C229.21,45.68,224.08,46.61,223.46,48.6Z"/><path class="cls-9" d="M221.53,132.73c-.81-2.4-9.53-.25-3.72-6.46,2.48,3,6.73,1.84,9.78,3.74C226.26,133.08,223.64,132.31,221.53,132.73Z"/><path class="cls-15" d="M213,131.82l9.1,2.07c.14,3.71-3.08,1.31-4.38,2.42C215.87,135.14,212.77,135.24,213,131.82Z"/><path class="cls-9" d="M210.19,139c-1-1.76-3-4,1.45-3.22a30.17,30.17,0,0,1,4.58,1.6C215.49,142.64,212.24,138.56,210.19,139Z"/><path class="cls-9" d="M58.65,124.76c1-2.33,9.53.48,4.2-6.16-2.7,2.84-6.85,1.32-10,3C53.92,124.75,56.58,124.17,58.65,124.76Z"/><path class="cls-15" d="M67.21,124.49,58,125.86c-.42,3.69,3,1.54,4.18,2.74C64.12,127.58,67.2,127.92,67.21,124.49Z"/><path class="cls-9" d="M69.49,131.82c1.15-1.68,3.32-3.8-1.2-3.32a30.17,30.17,0,0,0-4.69,1.25C63.93,135.09,67.48,131.27,69.49,131.82Z"/><path class="cls-16" d="M60.49,40.55c.68,1.9,4.31.87,3.87,3.32-.28,1.57-2.56.49-3.87.9-1.52-.52-3.84-.61-3.87-2.46C56.56,39.79,59.15,41.14,60.49,40.55Z"/><path class="cls-17" d="M99.89,127.57a19.16,19.16,0,0,1-18.61-19.41c.12-9.91,9.91-19.11,20.18-19s18.53,9.1,18.4,19.68S111,127.69,99.89,127.57Z"/><path class="cls-17" d="M171.09,108.4c-.1-10.49,8.91-19.1,19.84-19,9.75.12,17.87,8.54,18,18.64a19,19,0,0,1-18.83,19.21C179.57,127.47,171.19,119.14,171.09,108.4Z"/><path class="cls-8" d="M92,75.91c2.41-5.73,12.69-9.75,18.08-7.16,1.64.78,2.81,2.08,2.62,3.94s-2.1,2.29-3.4,1.94c-5.59-1.49-9.86.45-13.61,4.46-.94,1-2.27,2.3-3.76.81C90.59,78.6,91.61,77.13,92,75.91Z"/><path class="cls-18" d="M184.62,63.33c6.17-.85,14.86,4.92,16.32,10.91.19.77.29,1.95-.13,2.38-.88.89-2,.38-2.74-.48-4.26-5.26-9.16-8.72-16.43-6.72a1.59,1.59,0,0,1-1.91-1.91C180.18,64.78,182.07,63.65,184.62,63.33Z"/><path class="cls-19" d="M99.87,193.56l-.27,4.31c-2.08-1.61.26-5-2.77-6.47-1.25-.62.22-1.67,1-2.24,1.1-.77,2.37-1.21,3.51-.37s.22,1.77-.36,2.61A20.65,20.65,0,0,0,99.87,193.56Z"/><path class="cls-19" d="M101.84,186.14c-3.23,2.25-5.16,2-6.67-.4a1.72,1.72,0,0,1,.2-1.63C98.2,182.59,99.05,185.6,101.84,186.14Z"/><path class="cls-3" d="M65.48,38c-2.13,0-3.58-1.42-5.2-2.47,3.27-.53,3.28-3.39,4.08-5.69,3-8.69,7.62-10.79,16-6.86,4.16,2,8,4.6,12,6.9,1.95,1.12,3.72,3,6.32,1.76-2.78,2.81-4.62,6.64-8.7,8.05-3.66-.84-6-3.76-8.83-5.82C73.94,28.69,69.37,29.77,65.48,38Z"/><path class="cls-3" d="M64.39,76.53c-3.3,0-2.37-2.81-2.44-4.27-.35-8.36-.36-16.73-.49-25.1,4.07-1.75,2.62,1.72,2.65,3.1C64.32,59,64.32,67.77,64.39,76.53Z"/><path class="cls-20" d="M113.8,102c-.89,3.77-3,6.27-7,6s-6.14-2.91-5.95-6.8,2.63-6.14,6.71-5.94S113.21,98.39,113.8,102Z"/><path class="cls-21" d="M196.66,94.49c4.12.66,6.39,2.84,6.28,6.87s-2.55,6.46-6.45,6.33-6.19-2.62-6.09-6.7S193,95,196.66,94.49Z"/><path class="cls-22" d="M156.78,127.93c6.9-.91,9.58,2.15,8,7.83-2.11,7.76-9.06,10.55-15.49,5.85-2.17-1.59-2.45-.14-3.45.84-2.89,2.82-6.22,2.94-9.63,1.24a7.35,7.35,0,0,1-4.39-7.54,5.42,5.42,0,0,1,1.5-3.48c.71-.76,1.6-1.66,2.67-1.17,1.51.69.23,1.67,0,2.52-1,3.34.14,5.78,3.25,6.74s5.13-.58,6.05-4.18c.3-1.17,0-3,1.4-3.25s1.67,1.71,2.26,2.75c1.59,2.78,3.92,4.14,7,3.69a6.2,6.2,0,0,0,5.54-4.73C162.39,131.66,160.35,129.77,156.78,127.93Z"/><path class="cls-23" d="M181.7,129.06c5.31-.2,10.09,1.5,14.65,4,2.45,1.36,3.71,3.47,3.19,6.15-.59,3-3.18,2.8-5.57,2.87a23.28,23.28,0,0,1-16.86-6.06c-1.38-1.26-3.55-3.08-2.32-5.53,1.11-2.22,3.51-1.29,5.41-1.46C180.7,129,181.21,129.05,181.7,129.06Z"/><path class="cls-24" d="M102,141.06c-2.86,0-6.1.35-6.89-3.27-.75-3.46,2.29-4.71,4.66-6.22,4.61-2.93,9.89-3.53,15.08-4.45a4,4,0,0,1,4.33,1.82c1.14,1.81-.18,3.24-1.22,4.41C113.74,138.1,108.62,141.18,102,141.06Z"/><path class="cls-1" d="M233.23,83.12A102.37,102.37,0,0,1,217,77.78a66.51,66.51,0,0,0-20.72-5.61c-14.08-1.39-27.32.21-37.87,11a1.76,1.76,0,0,1-2.2.47c-7.38-2.63-14.78-2.05-22.15,0-1.12.32-1.95.44-2.84-.51-8.3-8.83-19-11.27-28.24-11.46A73,73,0,0,0,84.3,73.75c-9.84,2.46-18.76,7.68-28.79,9.57-1,.19-1.08.91-1,1.67.64,3.84-.21,7.93,2.92,11.32,1.84,2,2.38,4.91,2.19,7.76a30.36,30.36,0,0,0,1.92,11.82c11.09,32.91,42.17,32.46,58.41,19.95,13.26-10.22,18.2-24.47,17-40.95-.13-1.68-.07-2.41,1.7-2.93a23.49,23.49,0,0,1,12.52-.43c1.32.32,1.88.72,1.64,2.36a45.09,45.09,0,0,0,2.38,21.86c7.12,20.25,26.32,31.34,46.27,26.76,15.35-3.53,28.58-20.68,28.56-37.1,0-3-.31-6.29,1.81-8.49,3.28-3.42,2.52-7.64,3.28-11.58C235.43,83.76,234.53,83.46,233.23,83.12ZM97.41,138.83a24.6,24.6,0,0,1-16.47-4.6c-10.66-7.53-16.29-18-16.48-31-.2-13.89,8.67-23.14,24-25.62,3.44-.56,6.93-.81,10.23-1.18,7.51.06,14.75.53,21.63,3.49,7.21,3.1,11,8.66,11.92,16.28A38,38,0,0,1,97.41,138.83Zm102-.62c-9.61,2.18-18.53-.48-26.34-6.28C162,123.7,156.68,112.37,157.2,98.69c.45-11.81,6.86-18.5,19.16-21a64.56,64.56,0,0,1,30.8,1.35c11.46,3.27,18,12.43,18,24.64C225.11,119.62,214,134.9,199.36,138.21Z"/><path class="cls-1" d="M178.31,235.45h-77a2.06,2.06,0,1,0,0,4.12h54v29.61a2,2,0,0,0,.49,1.29c.92,1.13,3.21,1.16,4.43.19l5-4a4.59,4.59,0,0,1,5.31,0l5,4c1.22,1,3.51.94,4.43-.19a2,2,0,0,0,.49-1.29V235.45Z"/></svg>