<svg id="Layer_1" data-name="Layer 1" xmlns="http://www.w3.org/2000/svg" viewBox="0 0 288 288"><defs><style>.cls-1{fill:#f4f2ef;}.cls-2{fill:#f7d0da;}.cls-3{fill:#3c332f;}.cls-4{fill:#3e3632;}.cls-5{fill:#3f3733;}.cls-6{fill:#403733;}.cls-7{fill:#423a36;}.cls-8{fill:#403833;}.cls-9{fill:#433b38;}.cls-10{fill:#463c3b;}.cls-11{fill:#524b47;}.cls-12{fill:#423c38;}.cls-13{fill:#4c4643;}.cls-14{fill:#4a413f;}.cls-15{fill:#3e3530;}.cls-16{fill:#403530;}.cls-17{fill:#443c38;}.cls-18{fill:#59534f;}.cls-19{fill:#f6f4f3;}.cls-20{fill:#f2f1ef;}</style></defs><title>Cat</title><path class="cls-1" d="M190.07,55.61s31.07-25.39,39.16-11.38c2,5.26,2.86,7.29,2.86,7.29l.42,4.8-6.12,4.37-26.69,3.24Z"/><path class="cls-1" d="M99,213a32.29,32.29,0,0,1,4-9.65c5.45-8.56,6-8.89,17.46-9-6.58-1.89-12.84-2.15-18.94-3.34-13.82-2.68-24-10.8-32.71-21.2l.16.13c-.83-1.92-1.65-3.87-4.38-2.61-1.36-2-.54-4.7-2.34-6.52-.94-6.12-4.42-11.38-5.87-17.32l-2.65-6.3c2.38-11.42,4.71-22.86,7.81-34.12C66.07,90.88,71.93,79.58,83.15,72c5.48-8.4,14.6-12.43,22.08-18.43l.09,1.64c1.59,1.31,3,.19,4.57-.19,13.6-3.36,27.28-6.12,41.42-4.19l4.31-1.37c3,2,6.37,2.59,9.86,2.82h2.81a118.77,118.77,0,0,1,31.06,13.37,9.55,9.55,0,0,0,6,1.23c4.28.66,6.76,3.74,9.3,6.83A97.87,97.87,0,0,1,227.7,94.16c1.41-9.3-1.1-18.68,1.54-27.78,2.21-1.87,4.47-3.58,7.64-2.9l.2,2c.32,2.42-3.1,4-1.58,6.68a10.32,10.32,0,0,1,.06,1.39c1.23,10.18.19,20.27-1.3,30.33-.3,2-.1,4.75-2.52,5.23s-1.44,1.74-1.09,2.78c3.3,9.72,3.81,19.89,4.83,30L234,145c-2,3.83-1.44,8.5-4,12.14l-1.49,3.07c-2.12,3.82-4.92,13.89-7.26,15.44a107.32,107.32,0,0,1-22.81,13.3,47,47,0,0,1-21.4,3.35c8.55-2,13,4.23,17.08,11.31,2.8,4.86,3.33,10.63,6.41,15.35l-1.39,2.55c-.66,3.17-1.35,6.34,1.46,8.95l-2.65,3.91c-4,.95-5.34,4.95-8.33,7.07-4.2,3-8.23,6.44-13.83,3.25-1.46-.83-2.65-.08-4,.36-10.59,3.48-13.26,1.63-14.66-10.06a5.79,5.79,0,0,0,0,1.6c1,12.24.87,12.44-10.8,12.17-8.12-.19-9-1.14-8.82-9.53,0-2.1,0-4.19,0-6.29,0-.93-1.07-.3-.15-.43.07,0,.12.21.11.66a47.44,47.44,0,0,1-.17,7c-.54,3.28-1.46,6.58-5,7.77s-6.34-.44-8.89-2.74c-1.37-1.24-2.2-3-3.94-4.2-2,6.05-6.13,5.28-10.47,3.21-5-2.38-7.17-7.11-9.35-11.78a14.26,14.26,0,0,1-.6-2.71c-.36,2.5,1.7,4.41,1.12,6.75"/><path class="cls-2" d="M230.08,65.71c-.08,9.53-.14,19.07-.25,28.6,0,1.78.38,4.3-2,4.5-2,.16-1.58-2.3-2.19-3.71-4.7-10.89-10.37-21.08-21-27.44-4-.25-4.81-3.37-5.73-6.39,2.16-6,5-11.71,11.92-13.06,8.18-1.59,12.87,3.46,16.42,10,2.82,3.05,5.42-1.68,8.19-.22l1.42,0C237,62.7,233.14,63.84,230.08,65.71Z"/><path class="cls-2" d="M84.18,73.89c-5.39.69-7.32,5.41-9.95,9C69.75,89,65.58,95.45,63.18,102.8a2.45,2.45,0,0,1-3.17-.16c-2.68-5.21-1-10.81-1.43-16.23-.42-4.75.89-9.61-1-14.24a3.57,3.57,0,0,1-1.37-2.61L56.38,68c1.1-1.75,2.5-1.38,3.84-.85-.66-1.58-4.86-.16-3.83-3.79a1.16,1.16,0,0,1,0-.81c1-1.32,2.4-.83,3.67-.67,3.12.38.43-1.61.94-2.3,3.92-9,10.33-11,18.1-5.6a60.3,60.3,0,0,1,9.26,7.32c1.46,2.61-.59,4.16-1.89,5.86C84.9,69.15,83.73,71.23,84.18,73.89Z"/><path class="cls-3" d="M99.37,236.24c-.35-1.61-.79-3.22.3-4.74,3.25,1.78,3.72,5.68,6.2,8.07,3.29,3.18,6.92,5.29,11.75,4.67,1-3-2.79-5.61,0-9,2.5,3.14,4.64,6.35,7.31,9,4.87,4.92,8.7,3.75,10.22-3,.51-2.26.56-4.62,1-6.91s0-4.65,2.79-6.73c0,4.87.54,9.26-.14,13.46-.84,5.27,1.38,6.62,5.93,6.33a30.77,30.77,0,0,1,4.18-.13c5.72.41,8.28-1.25,6.64-7.71a12.47,12.47,0,0,1,2.66-11.91c.31,3.69.36,7.41,1,11,1.22,7.18,4.18,8.58,10.69,5.34,2.63-1.31,5.2-2.73,8.7-4.58-2,4.55-.91,5.62,2.86,4.61,5.57-1.49,8.9-5.64,12.47-9.65.94-1.06,2.48-5,4-.18-5,10.45-13.47,13.61-24.69,14.79a199.67,199.67,0,0,1-21,1.17c-9.89,0-19.61,1.89-30.16-.69-8.82-2.15-13.42-3.77-16.86-6.66a31.65,31.65,0,0,1-5.78-6.69"/><path class="cls-4" d="M95.22,215.66c2.52-8.53,5.9-14.9,11.44-20.4-15.41-4.95-31.58-8-37.88-25.43,2.12-.15,3.44,1.13,4.61,2.62,9.65,12.26,23.22,16.43,37.87,18.39,3.92.52,7.84,1.06,11.76,1.58a2.16,2.16,0,0,1,2.15,2.25c0,1.39-1.13,1.87-2.42,1.86a10,10,0,0,0-2.09,0c-3.53.74-7.41-2.71-10.58.49a33.79,33.79,0,0,0-8.77,14.07c-.91,3.06-1,6.43-3.3,9.08"/><path class="cls-5" d="M198.87,61.26l5.73,6.39c-1.38,2.69-3.12,1.09-4.58.24a145.14,145.14,0,0,0-30.17-13.65c-.66-.21-1.05-1.29-1.57-2,6.75-1.24,13.88,4.07,19.46,1.42s9.9-8.25,15.5-11.59c6.29-3.75,12.85-6.87,20.43-3.83,6.15,2.47,9.92,6.53,8.57,13.8-2-4.51-2.87-9.88-9.08-10.74A23.75,23.75,0,0,0,209,44c-6.24,3.17-11.64,7.56-17.25,12.8Z"/><path class="cls-4" d="M200.48,218.9c-3.19-.09-3.26-2.9-4.1-4.89-1.17-2.78-1.78-5.81-3.14-8.47-3.41-6.66-6.91-13.25-16.46-11.57-1.88.33-4.69.73-7-3.17,4.09,0,7.36.15,10.61,0a59.52,59.52,0,0,0,32.35-11.57c2.49-1.8,4.56-5,8.47-3.62-3.48,8.39-11.21,11.33-18.75,14.34-4.08,1.63-8.38,2.69-12.69,4C195,201.69,201.81,208.56,200.48,218.9Z"/><path class="cls-6" d="M60.67,102.88l2.51-.08c-1.83,11.37-6,22.24-7.19,33.77-.13,1.31-1.47.56-2.29.64-.4-5.78-.73-11.6,1.05-17.21,3.49-10.94-2.89-21.22-1.9-32,.58-6.27-1.22-12.91,3.37-18.43l1.23,1c3,3.42,1.07,7.54,1.58,11.31C60,88.86,57.18,96.11,60.67,102.88Z"/><path class="cls-7" d="M235.48,141.89c-3.53-1-2.51-4-2.68-6.34-.35-4.85-.65-9.67-1.42-14.5s-4.51-8.71.14-14.86c3.43-4.53,1.8-13,2.26-19.65.3-4.37-.28-8.84,1.79-13,2.89,2,2.69,5.19,2.88,8.14.41,6.54.26,13.3-1.77,19.36-3.34,9.94-2.41,19.42-.19,29.25C237.32,134,237.59,138.19,235.48,141.89Z"/><path class="cls-5" d="M56.25,58.06c.33-18.45,11.66-25,27.62-16,5.43,3.08,11,6,14.37,11.68l-.8.64c-3.6,1.16-6.12-1.23-8.9-2.75C84.12,49.25,80.1,46,75,44.87c-6.53-1.48-10,.34-12.48,6.56-1.14,2.83-1,6.7-5.37,7.08Z"/><path class="cls-8" d="M151.31,50.84a8.08,8.08,0,0,1-5.3,1.41c-12-.33-23.6,2-35.25,4.33-1.65.34-4.65,2.91-5.44-1.37,11.61-6.33,24.21-7.8,37.14-7.35C145.61,48,149.08,47.74,151.31,50.84Z"/><path class="cls-9" d="M84.18,73.89c-3.85-1.22-2-3.59-.8-5.32a64.64,64.64,0,0,1,5.41-6.14c1.81-4.44,5.56-6.78,9.56-8.85l-.11.21c1.32-.78,2.62-1.6,4-2.32,2.32-1.23,3.45-.66,3,2.11C100.68,62.9,88.38,64.2,84.18,73.89Z"/><path class="cls-7" d="M235.41,58c-2.75-.47-5.22,9.09-8.19.22,4.23-.81,5.29-5.55,8.72-7.5C238.21,53.57,236.09,55.69,235.41,58Z"/><path class="cls-10" d="M61.87,60.58,64.06,63a6.32,6.32,0,0,1-2.34.7c-1.8-.22-3.57-.74-5.35-1.14-.79-.5-1.6-1-2.35-1.5-1.49-1.06-4-2.41-2.89-4.1,1.71-2.58,3.51.09,5.12,1.15l-.1-.2C57.94,59,60.53,58.5,61.87,60.58Z"/><path class="cls-11" d="M200.55,230.4q-7.07-3.69-1.46-8.95C203.51,223.8,200.63,227.33,200.55,230.4Z"/><path class="cls-5" d="M166.64,52.29c-4.08,1.84-9,2.5-11-2.82C164.9,52,173.76,39.63,166.64,52.29Z"/><path class="cls-12" d="M64.73,167l3.84-2.56c2.22,1.75-.8,3.82.38,5.56-2.16-.1-2.47,4-5,2.39-.75-.47-.5-2.53-.71-3.86A1.83,1.83,0,0,1,64.73,167Z"/><path class="cls-13" d="M230.08,65.71,236.83,58c3.66,1.8-.34,3.67.05,5.5C234.77,64.69,233.25,67.74,230.08,65.71Z"/><path class="cls-7" d="M235.5,72.18c-2.24.07-5.49.82-2.36-3.08a33.16,33.16,0,0,1,3.94-3.6C241.83,69,236.18,70,235.5,72.18Z"/><path class="cls-7" d="M233.39,164.65c-.89-2.64-10.48-.27-4.09-7.1,2.72,3.33,7.39,2,10.74,4.11C238.58,165,235.71,164.18,233.39,164.65Z"/><path class="cls-13" d="M224,163.65l10,2.27c.16,4.08-3.39,1.44-4.81,2.66C227.16,167.29,223.76,167.41,224,163.65Z"/><path class="cls-7" d="M220.92,171.49c-1.13-1.93-3.33-4.44,1.59-3.54a33.16,33.16,0,0,1,5,1.76C226.75,175.54,223.17,171.05,220.92,171.49Z"/><path class="cls-7" d="M54.37,155.88c1.09-2.56,10.47.52,4.62-6.77-3,3.12-7.52,1.45-11,3.28C49.16,155.87,52.09,155.24,54.37,155.88Z"/><path class="cls-13" d="M63.77,155.59,53.62,157.1c-.47,4.05,3.27,1.7,4.6,3C60.38,159,63.76,159.36,63.77,155.59Z"/><path class="cls-7" d="M66.28,163.65c1.27-1.84,3.65-4.17-1.32-3.65a33.16,33.16,0,0,0-5.15,1.37C60.16,167.24,64.07,163,66.28,163.65Z"/><path class="cls-14" d="M56.38,63.33c.75,2.09,4.73,1,4.25,3.65-.31,1.73-2.81.54-4.26,1-1.67-.57-4.22-.67-4.26-2.7C52.06,62.5,54.91,64,56.38,63.33Z"/><path class="cls-15" d="M99.69,159c-11.31-.12-20.59-9.81-20.45-21.34.13-10.9,10.89-21,22.18-20.84s20.37,10,20.22,21.63S111.94,159.11,99.69,159Z"/><path class="cls-15" d="M177.95,137.91c-.11-11.53,9.79-21,21.81-20.84,10.71.13,19.64,9.39,19.75,20.48a20.94,20.94,0,0,1-20.7,21.11C187.27,158.87,178.06,149.71,177.95,137.91Z"/><path class="cls-16" d="M137.16,169.86a4.3,4.3,0,0,1,1.8-5.51c2-1.23,6,1,9.76,1.76,3.21.7,10.54-5.75,11.94.34,1.25,5.42-4.28,6.31-9.72,6.42S138.47,172.64,137.16,169.86Z"/><path class="cls-6" d="M91,102.19c2.64-6.3,13.94-10.71,19.88-7.87,1.8.86,3.09,2.28,2.88,4.33s-2.31,2.51-3.74,2.13c-6.14-1.63-10.84.5-15,4.91-1,1.1-2.5,2.52-4.14.89C89.47,105.15,90.59,103.54,91,102.19Z"/><path class="cls-17" d="M192.81,88.36c6.78-.94,16.33,5.41,17.94,12,.21.84.32,2.14-.15,2.62-1,1-2.24.42-3-.52-4.68-5.78-10.07-9.59-18.06-7.39a1.75,1.75,0,0,1-2.1-2.1C187.94,90,190,88.72,192.81,88.36Z"/><path class="cls-18" d="M99.67,231.5l-.3,4.74c-2.29-1.77.28-5.48-3-7.11-1.38-.68.24-1.83,1.14-2.46,1.21-.84,2.61-1.33,3.86-.41s.24,1.94-.4,2.87A22.7,22.7,0,0,0,99.67,231.5Z"/><path class="cls-18" d="M101.83,223.35c-3.55,2.47-5.68,2.2-7.33-.44a1.89,1.89,0,0,1,.22-1.79C97.83,219.45,98.77,222.76,101.83,223.35Z"/><path class="cls-1" d="M61.87,60.58c-2.34,0-3.93-1.56-5.72-2.72,3.6-.58,3.61-3.72,4.49-6.26C64,42.06,69,39.75,78.24,44.06c4.57,2.14,8.78,5.05,13.17,7.58,2.14,1.23,4.09,3.25,6.95,1.93-3.05,3.09-5.08,7.3-9.56,8.85-4-.93-6.59-4.13-9.71-6.39C71.17,50.29,66.14,51.48,61.87,60.58Z"/><path class="cls-1" d="M60.67,102.88c-3.63,0-2.61-3.09-2.68-4.69-.39-9.19-.4-18.39-.53-27.59,4.48-1.92,2.87,1.89,2.91,3.4C60.6,83.62,60.6,93.25,60.67,102.88Z"/><path class="cls-19" d="M115,130.88c-1,4.14-3.33,6.89-7.69,6.64s-6.75-3.2-6.54-7.47,2.89-6.75,7.37-6.53S114.33,126.9,115,130.88Z"/><path class="cls-20" d="M206.05,122.62c4.53.72,7,3.13,6.9,7.55s-2.8,7.1-7.09,7-6.8-2.88-6.69-7.37S202.07,123.21,206.05,122.62Z"/></svg>