<svg id="Layer_1" data-name="Layer 1" xmlns="http://www.w3.org/2000/svg" viewBox="0 0 288 288"><defs><style>.cls-1,.cls-24{fill:#f4f2ef;}.cls-2{fill:#f7d0da;}.cls-3{fill:#3c332f;}.cls-4{fill:#3e3632;}.cls-5{fill:#3f3733;}.cls-6{fill:#403733;}.cls-7{fill:#423a36;}.cls-8{fill:#403833;}.cls-9{fill:#433b38;}.cls-10{fill:#463c3b;}.cls-11{fill:#524b47;}.cls-12{fill:#423c38;}.cls-13{fill:#4c4643;}.cls-14{fill:#4a413f;}.cls-15{fill:#59534f;}.cls-16{fill:#3e3530;}.cls-17{fill:#0c0c0c;}.cls-18{fill:#131313;}.cls-19{fill:#121212;}.cls-20{fill:#424241;}.cls-21{fill:#fff;}.cls-22{fill:#faf9f9;}.cls-23{fill:#fafafa;}.cls-24{stroke:#333;stroke-miterlimit:10;stroke-width:6px;}.cls-25{fill:#f9cccc;}.cls-26{fill:#facccc;}.cls-27{fill:#bfbfbf;}.cls-28{fill:#343434;}</style></defs><title>Manga</title><path class="cls-1" d="M186.9,38.64s30.58-25,38.54-11.2c1.94,5.18,2.82,7.18,2.82,7.18l.42,4.72-6,4.3-26.27,3.19Z"/><path class="cls-1" d="M97.23,193.55a31.79,31.79,0,0,1,3.94-9.5c5.36-8.43,6-8.75,17.18-8.83-6.47-1.86-12.64-2.12-18.64-3.28-13.61-2.63-23.59-10.63-32.2-20.87l.16.13c-.82-1.89-1.62-3.81-4.31-2.57-1.34-1.93-.53-4.63-2.31-6.41-.93-6-4.35-11.2-5.78-17.05L52.68,119c2.34-11.25,4.64-22.5,7.69-33.58,4.48-12,10.25-23.14,21.29-30.6C87,46.51,96,42.54,103.39,36.64l.09,1.61c1.56,1.29,3,.19,4.5-.18,13.39-3.31,26.85-6,40.77-4.12L153,32.59c2.94,2,6.27,2.55,9.71,2.78h2.77A116.9,116.9,0,0,1,196,48.52a9.4,9.4,0,0,0,5.91,1.21c4.21.65,6.65,3.68,9.15,6.72a96.33,96.33,0,0,1,12.85,20.12c1.38-9.16-1.08-18.39,1.52-27.34,2.17-1.84,4.4-3.53,7.52-2.85l.19,2c.31,2.39-3,3.9-1.55,6.57a10.16,10.16,0,0,1,.06,1.37c1.21,10,.19,20-1.28,29.86-.29,2-.1,4.68-2.48,5.15s-1.42,1.71-1.07,2.74c3.24,9.57,3.75,19.58,4.75,29.5l-1.48,3c-2,3.77-1.42,8.37-4,11.95l-1.47,3c-2.09,3.76-4.85,13.67-7.15,15.2a105.64,105.64,0,0,1-22.46,13.09,46.27,46.27,0,0,1-21.06,3.3c8.42-2,12.81,4.16,16.82,11.13,2.76,4.79,3.27,10.46,6.31,15.11l-1.36,2.51c-.65,3.12-1.33,6.24,1.43,8.81l-2.61,3.85c-3.9.93-5.25,4.87-8.2,7-4.14,2.94-8.1,6.34-13.62,3.2-1.43-.82-2.6-.07-3.9.35-10.43,3.42-13.05,1.61-14.43-9.9a5.7,5.7,0,0,0,0,1.57c1,12,.86,12.24-10.63,12-8-.18-8.85-1.12-8.68-9.38,0-2.06,0-4.13,0-6.19,0-.92-1.05-.3-.14-.43.07,0,.12.21.11.65a46.7,46.7,0,0,1-.17,6.87c-.53,3.23-1.44,6.48-5,7.65s-6.24-.44-8.75-2.7c-1.35-1.22-2.17-2.94-3.88-4.14-1.94,6-6,5.2-10.31,3.16-4.91-2.34-7.06-7-9.2-11.6a14,14,0,0,1-.59-2.67c-.36,2.46,1.68,4.34,1.11,6.64"/><path class="cls-2" d="M226.29,48.58c-.08,9.38-.13,18.77-.25,28.15,0,1.75.38,4.23-2,4.43-2,.16-1.56-2.27-2.16-3.65-4.62-10.72-10.21-20.75-20.68-27-3.94-.25-4.74-3.32-5.64-6.29,2.12-5.93,4.94-11.53,11.73-12.85,8.05-1.57,12.67,3.41,16.16,9.82,2.77,3,5.34-1.66,8.06-.22l1.4,0C233.13,45.62,229.3,46.74,226.29,48.58Z"/><path class="cls-2" d="M82.67,56.63c-5.3.68-7.21,5.33-9.79,8.87-4.41,6-8.52,12.36-10.88,19.59a2.41,2.41,0,0,1-3.12-.16c-2.63-5.13-.94-10.65-1.41-16-.41-4.67.87-9.46-1-14a3.52,3.52,0,0,1-1.35-2.57l.14-1.56c1.08-1.73,2.46-1.36,3.78-.84-.65-1.55-4.78-.16-3.77-3.73a1.15,1.15,0,0,1,0-.8c1-1.3,2.36-.81,3.61-.66,3.07.38.43-1.58.93-2.26C63.7,33.64,70,31.65,77.66,37a59.36,59.36,0,0,1,9.11,7.21c1.44,2.57-.58,4.1-1.86,5.76C83.38,52,82.23,54,82.67,56.63Z"/><path class="cls-3" d="M97.63,216.44c-.35-1.58-.78-3.17.29-4.67,3.2,1.75,3.67,5.59,6.1,7.95,3.24,3.13,6.81,5.21,11.57,4.59,1-2.94-2.75-5.52,0-8.86,2.46,3.09,4.57,6.25,7.19,8.9,4.79,4.85,8.57,3.69,10.06-2.91.5-2.22.55-4.55.94-6.8s0-4.57,2.75-6.62c0,4.79.53,9.12-.13,13.25-.83,5.18,1.36,6.52,5.84,6.23a30.29,30.29,0,0,1,4.12-.13c5.63.4,8.15-1.23,6.54-7.59a12.27,12.27,0,0,1,2.62-11.72c.3,3.63.35,7.3,1,10.87,1.2,7.07,4.12,8.45,10.52,5.25,2.59-1.29,5.12-2.69,8.56-4.51-2,4.48-.9,5.53,2.82,4.54,5.48-1.47,8.76-5.55,12.28-9.5.93-1,2.44-4.88,3.91-.17-4.89,10.29-13.26,13.4-24.31,14.56a196.54,196.54,0,0,1-20.71,1.16c-9.74,0-19.31,1.86-29.69-.68-8.68-2.12-13.21-3.71-16.6-6.56a31.15,31.15,0,0,1-5.69-6.58"/><path class="cls-4" d="M93.54,196.18c2.48-8.39,5.8-14.67,11.26-20.08-15.17-4.87-31.08-7.85-37.28-25,2.08-.15,3.39,1.12,4.54,2.58,9.5,12.06,22.85,16.18,37.27,18.1,3.86.52,7.72,1,11.58,1.55a2.12,2.12,0,0,1,2.11,2.22c0,1.37-1.11,1.84-2.38,1.83a9.89,9.89,0,0,0-2.06,0c-3.47.73-7.3-2.67-10.42.49a33.27,33.27,0,0,0-8.63,13.85c-.9,3-1,6.33-3.24,8.94"/><path class="cls-5" d="M195.57,44.2l5.64,6.29c-1.36,2.65-3.07,1.08-4.51.24A142.86,142.86,0,0,0,167,37.3c-.65-.2-1-1.27-1.54-1.93,6.64-1.22,13.66,4,19.15,1.4s9.74-8.12,15.25-11.41c6.19-3.69,12.65-6.76,20.11-3.77,6,2.43,9.76,6.43,8.43,13.58-1.94-4.44-2.82-9.73-8.93-10.57a23.38,23.38,0,0,0-14,2.66c-6.14,3.12-11.46,7.44-17,12.6Z"/><path class="cls-4" d="M197.15,199.37c-3.14-.09-3.21-2.85-4-4.82-1.15-2.73-1.75-5.72-3.09-8.34-3.35-6.56-6.81-13-16.2-11.38-1.85.33-4.62.72-6.91-3.12,4,0,7.24.14,10.45,0a58.59,58.59,0,0,0,31.84-11.38c2.45-1.77,4.49-4.91,8.34-3.56-3.43,8.26-11,11.15-18.45,14.12-4,1.6-8.25,2.65-12.49,4C191.75,182.42,198.46,189.19,197.15,199.37Z"/><path class="cls-6" d="M59.54,85.16,62,85.08c-1.8,11.2-5.93,21.9-7.08,33.24-.13,1.29-1.45.55-2.25.63-.4-5.69-.72-11.42,1-16.94,3.43-10.77-2.85-20.89-1.87-31.52.57-6.18-1.2-12.7,3.32-18.14l1.21,1c3,3.36,1.05,7.42,1.56,11.13C58.86,71.36,56.1,78.5,59.54,85.16Z"/><path class="cls-7" d="M231.6,123.56c-3.47-1-2.47-4-2.64-6.24-.34-4.77-.64-9.52-1.4-14.28s-4.44-8.58.14-14.63c3.38-4.46,1.77-12.75,2.22-19.35.3-4.3-.27-8.7,1.76-12.75,2.85,2,2.65,5.11,2.84,8,.41,6.44.26,13.09-1.75,19.06-3.29,9.79-2.37,19.12-.19,28.79C233.41,115.85,233.68,119.92,231.6,123.56Z"/><path class="cls-5" d="M55.18,41c.33-18.16,11.48-24.62,27.19-15.71,5.35,3,10.87,5.9,14.15,11.5l-.79.63c-3.55,1.14-6-1.21-8.76-2.71-4.36-2.39-8.32-5.56-13.32-6.7-6.43-1.46-9.82.33-12.29,6.46-1.12,2.78-1,6.59-5.28,7Z"/><path class="cls-8" d="M148.75,33.94a8,8,0,0,1-5.22,1.39c-11.79-.32-23.23,1.93-34.7,4.26-1.63.33-4.57,2.86-5.35-1.35C114.91,32,127.31,30.57,140,31,143.14,31.12,146.55,30.89,148.75,33.94Z"/><path class="cls-9" d="M82.67,56.63c-3.79-1.2-2-3.53-.78-5.24a63.62,63.62,0,0,1,5.33-6C89,41,92.69,38.67,96.63,36.64l-.11.2c1.3-.76,2.58-1.58,3.91-2.28,2.28-1.21,3.4-.65,3,2.08C98.91,45.82,86.81,47.1,82.67,56.63Z"/><path class="cls-7" d="M231.53,40.95c-2.7-.46-5.14,8.95-8.07.22,4.16-.8,5.21-5.46,8.58-7.39C234.29,36.63,232.21,38.72,231.53,40.95Z"/><path class="cls-10" d="M60.72,43.53l2.16,2.34a6.22,6.22,0,0,1-2.3.69c-1.77-.22-3.51-.73-5.26-1.12-.77-.49-1.57-.95-2.32-1.48-1.47-1-4-2.37-2.84-4,1.69-2.54,3.45.09,5,1.13l-.09-.19C56.84,42,59.39,41.48,60.72,43.53Z"/><path class="cls-11" d="M197.22,210.69q-7-3.63-1.43-8.81C200.14,204.19,197.3,207.66,197.22,210.69Z"/><path class="cls-5" d="M163.85,35.37c-4,1.81-8.86,2.46-10.86-2.78C162.13,35.05,170.85,22.9,163.85,35.37Z"/><path class="cls-12" d="M63.52,148.24l3.78-2.52c2.19,1.72-.78,3.76.37,5.47-2.12-.1-2.44,3.9-4.89,2.36-.74-.46-.49-2.49-.7-3.8A1.8,1.8,0,0,1,63.52,148.24Z"/><path class="cls-13" d="M226.29,48.58l6.65-7.6c3.6,1.77-.33,3.61.05,5.41C230.9,47.58,229.41,50.57,226.29,48.58Z"/><path class="cls-7" d="M231.62,54.94c-2.2.07-5.4.81-2.32-3a32.64,32.64,0,0,1,3.88-3.54C237.85,51.79,232.3,52.79,231.62,54.94Z"/><path class="cls-7" d="M229.54,146c-.88-2.6-10.32-.27-4-7,2.68,3.28,7.28,2,10.58,4C234.65,146.35,231.83,145.51,229.54,146Z"/><path class="cls-13" d="M220.34,145l9.85,2.23c.16,4-3.34,1.42-4.74,2.62C223.41,148.57,220.07,148.68,220.34,145Z"/><path class="cls-7" d="M217.27,152.7c-1.11-1.9-3.28-4.37,1.56-3.48a32.64,32.64,0,0,1,5,1.73C223,156.69,219.49,152.27,217.27,152.7Z"/><path class="cls-7" d="M53.33,137.34c1.07-2.52,10.31.51,4.54-6.67C55,133.74,50.46,132.1,47,133.91,48.2,137.33,51.09,136.71,53.33,137.34Z"/><path class="cls-13" d="M62.58,137.05l-10,1.48c-.46,4,3.22,1.67,4.53,3C59.24,140.4,62.57,140.76,62.58,137.05Z"/><path class="cls-7" d="M65.05,145c1.25-1.81,3.6-4.11-1.3-3.59a32.64,32.64,0,0,0-5.07,1.35C59,148.52,62.88,144.39,65.05,145Z"/><path class="cls-14" d="M55.31,46.23c.74,2.06,4.66.94,4.18,3.6-.31,1.7-2.77.53-4.19,1-1.64-.56-4.15-.66-4.19-2.66C51.06,45.42,53.87,46.87,55.31,46.23Z"/><path class="cls-15" d="M97.92,211.77l-.29,4.67c-2.26-1.74.28-5.39-3-7-1.36-.67.23-1.81,1.12-2.42,1.19-.83,2.57-1.31,3.8-.4s.23,1.91-.39,2.83A22.34,22.34,0,0,0,97.92,211.77Z"/><path class="cls-15" d="M100,203.75c-3.49,2.43-5.59,2.16-7.21-.44a1.86,1.86,0,0,1,.22-1.76C96.11,199.91,97,203.17,100,203.75Z"/><path class="cls-1" d="M60.72,43.53c-2.3,0-3.87-1.54-5.63-2.67,3.54-.57,3.55-3.66,4.42-6.16,3.27-9.4,8.25-11.67,17.31-7.42,4.5,2.11,8.65,5,13,7.46,2.11,1.22,4,3.2,6.84,1.9-3,3-5,7.18-9.41,8.71-4-.91-6.49-4.06-9.56-6.29C69.86,33.4,64.92,34.58,60.72,43.53Z"/><path class="cls-1" d="M59.54,85.16c-3.57,0-2.57-3-2.64-4.62-.38-9-.39-18.1-.53-27.16,4.41-1.89,2.83,1.86,2.86,3.35C59.46,66.21,59.46,75.69,59.54,85.16Z"/><path class="cls-16" d="M156.56,154c-5.92-3.34-11.82-2-17.79-.36-2.82.8-5.32-.88-7.85-1.82a2.36,2.36,0,0,1-1.58-3.18,2.27,2.27,0,0,1,3.27-1.26,12.26,12.26,0,0,0,13-1.11,3.67,3.67,0,0,1,4.36.13c3.48,2.79,7.23,2.72,11.15,1.37,1.64-.57,3.41-1.24,4.13.92s-.84,3-2.71,3.64S158.74,154,156.56,154Z"/><path class="cls-17" d="M77.52,122.37c.51-7.29,8.65-15,17.17-16.6,9.62-1.79,18.72,2.13,22.58,9.83a21.25,21.25,0,0,1,1.39,4.23c.34,1.32.49,3-.85,3.58-1.71.72-2.12-1.23-2.63-2.28-5.71-11.69-19.51-14-30.9-4.93C82,118,79.88,120.19,77.52,122.37Z"/><path class="cls-17" d="M210.84,122c-2.32-2.06-4.53-4.24-7-6.16-11-8.7-23.08-6.62-30.47,5.17-.65,1-.91,3-2.61,2.31-1.45-.55-1.05-2.26-.83-3.52,1.21-6.93,5.67-11,12-13.26,11-3.9,24.72,2.24,29,12.89A2.19,2.19,0,0,1,210.84,122Z"/><path class="cls-18" d="M83.59,96.52c3.16-7.95,12.23-13.81,19.47-13.12,1.74.17,3.55.52,3.88,2.42.2,1.17-1.24,2-2.38,2.19-6.89,1-12.73,4.43-18.51,8A9.5,9.5,0,0,1,83.59,96.52Z"/><path class="cls-19" d="M203.64,93.75c-2,.87-3.09-.77-4.41-1.55-4.73-2.77-9.5-5.36-15-6.28-1.52-.25-3.67-.56-3.36-2.78.24-1.67,2-1.93,3.57-2.1C191.79,80.23,201.36,86.53,203.64,93.75Z"/><path class="cls-20" d="M148.55,174.63c.94-1.29,1.46-2,2-2.71a28.34,28.34,0,0,1,16.41-11.21c10.52-2.77,21.15-2.54,31.8-1.08,3.56.49,3.9,1.09,4.25,4.64.53,5.48.53,5.48,5.93,6.9.87.23,1.75.42,2.63.65a4.28,4.28,0,0,1,3.51,4.12c.35,4,.84,8.08,1.21,12.12q2.7,29.67,5.34,59.34c.39,4.41-.79,8.67-1.62,12.94-.4,2.09-2.18,2.76-4.2,2.53-3.44-.39-6.87-.82-10.3-1.26-13-1.68-26.07-2.16-39.09.25a27.14,27.14,0,0,0-10.44,4c-3.42,2.3-11.12,2.36-14.46.07a26,26,0,0,0-10-4c-13-2.48-26-2.09-39.08-.43-3.28.42-6.55.92-9.84,1.25-4,.39-4.55-.29-5.59-4.07-1.92-7-1-14-.39-21.05,1.41-15.59,2.88-31.17,4.32-46.75.44-4.8,1-9.58,1.29-14.39.19-2.89,1.59-4.55,4.35-4.85,5.22-.57,8.77-2.38,8-8.62-.27-2.08,1.45-3,3.48-3.4a73.46,73.46,0,0,1,12.59-1,72.79,72.79,0,0,1,16.62,1.2C136.18,161.69,143.47,166,148.55,174.63Z"/><path class="cls-21" d="M201.58,232c-17.9,1.48-35,3.8-48.78,16.47a6.94,6.94,0,0,1-.49-3.78c0-19,.25-38-.22-56.91-.18-7.09,5.55-16.7,13.52-19.57,9.27-3.35,18.86-3.43,28.52-2.46,1.51.15,2.37.63,2.5,2.43C198.22,189.3,199.89,210.44,201.58,232Z"/><path class="cls-21" d="M144.58,248c-.13,0-.33.13-.39.07-11.31-10.12-25.09-13.76-39.71-15.2-2.1-.21-4.19-.59-6.28-.61s-2.33-1-2.19-2.84c.82-10.2,1.51-20.41,2.3-30.62.75-9.75,1.58-19.5,2.36-29.26.28-3.49.25-3.64,3.4-3.93,8.44-.79,16.85-.66,25.08,1.66a22.15,22.15,0,0,1,14.74,13,12.55,12.55,0,0,1,1.24,5.22q-.08,30.71-.09,61.43C145,247.28,145.2,247.81,144.58,248Z"/><path class="cls-22" d="M213.64,245.24c-17.52-1.4-34.7-1.75-51.27,4.86,3.8-3.78,8.52-5.58,13.32-7.13,8.95-2.9,18.23-3.66,27.55-4.23,5-.31,5.45-.76,5.08-5.68-1.06-14.25-2.21-28.48-3.32-42.73-.27-3.45-.5-6.9-.77-10.35-.07-.9-.31-1.91,1-2.06a2.48,2.48,0,0,1,2.7,1.2,4.94,4.94,0,0,1,.29,1.77q1.86,20.44,3.7,40.88c.48,5.24,1,10.48,1.44,15.72A35.11,35.11,0,0,1,213.64,245.24Z"/><path class="cls-23" d="M134.65,250.35c-16.39-6.78-33.44-6.58-50.69-5.11-.93-1.88-.34-3.84-.18-5.74Q86.36,210.75,89,182c.07-.75.1-1.5.22-2.24.24-1.51,1.4-1.9,2.66-1.87,1.66,0,1.28,1.31,1.2,2.32q-1.86,23.61-3.73,47.22c-.19,2.4-.42,4.8-.45,7.2,0,3,.54,3.7,3.58,4,5.68.61,11.41.55,17.06,1.53,8.34,1.45,16.46,3.46,23.71,8.07.62.39,1.18.87,1.77,1.3Z"/><ellipse class="cls-24" cx="87.27" cy="194.5" rx="9.75" ry="12.22"/><ellipse class="cls-24" cx="209.43" cy="194.5" rx="9.75" ry="12.22"/><path class="cls-25" d="M184,141c4.82-.29,9.13,1.43,13.29,3.51,1.3.65,2.54,1.76,2.23,3.54-.28,1.61-1.65,1.77-3,2.13-6.51,1.76-12.75.53-18.87-1.65-1.67-.59-3.77-1.52-3.51-3.65s2.47-3.06,4.4-3.5A32.68,32.68,0,0,1,184,141Z"/><path class="cls-26" d="M103.2,151.76c-4.65-.13-10.22.35-10.52-3.18-.37-4.37,5.31-4.93,9.06-5.79,4.16-.95,8.43-2.12,12.57.3,1.42.83,3.14,1.35,3.19,3.41.06,2.45-2,3-3.64,3.47C110.09,151.16,106.2,152,103.2,151.76Z"/><path class="cls-27" d="M108.78,173.17c8-.5,21.75-1,29.75,11.75v12s-17.5-11.5-31-8.25A116.29,116.29,0,0,1,108.78,173.17Z"/><path class="cls-27" d="M105.65,211.92c8-.5,21.82,2.27,32,11.1v13.17a66.13,66.13,0,0,0-33.29-8.77A116.29,116.29,0,0,1,105.65,211.92Z"/><path class="cls-27" d="M122.83,194.19l6.65,18.17a74,74,0,0,1,8.46,5V202.67A38.48,38.48,0,0,0,122.83,194.19Z"/><path class="cls-27" d="M120,193.47c-5.87-1.26-10.84-.89-13,.19a82.65,82.65,0,0,0-1.25,13.58c6.71-1.62,14.71.88,21.05,3.8Z"/><path class="cls-27" d="M191.17,205.93a82.65,82.65,0,0,0-1.25-13.58c-1.59-.8-4.68-1.2-8.52-.87h0a28.7,28.7,0,0,0-8.78,1.87q-1.48.5-3,1.15l-1,.44h0a37.78,37.78,0,0,0-9.67,6.42v14.73a74,74,0,0,1,8.46-5l0,0c.92-.46,1.82-.89,2.68-1.28h0l.83-.37c2.17-.94,4-1.59,4.82-1.9C180.84,205.74,186.34,204.77,191.17,205.93Z"/><path class="cls-27" d="M188.14,171.85a47.77,47.77,0,0,0-14.63.85l.33,15.78c5-1.51,10.55-2.33,15.54-1.12A116.31,116.31,0,0,0,188.14,171.85Z"/><path class="cls-27" d="M170.06,173.79a23.8,23.8,0,0,0-11.67,9.8v12a67.72,67.72,0,0,1,12.18-6Z"/><path class="cls-27" d="M180.87,211.45a47.81,47.81,0,0,0-21.64,10.25v13.17a61.82,61.82,0,0,1,14.07-6Z"/><path class="cls-27" d="M191.27,210.6a37.64,37.64,0,0,0-7.06.3l-7.3,17a62.52,62.52,0,0,1,15.61-1.78A116.29,116.29,0,0,0,191.27,210.6Z"/><path class="cls-28" d="M245.61,108c-.2-2.58-.38-5.17-.56-7.76-.05-.78-.53-1.05-1.18-1.48-6.67-4.41-14.16-5.28-21.89-5.66a335.37,335.37,0,0,0-52.33,1.6c-5,.53-10.76.33-14.6,3.42s-7.21,2.38-11,2.56c-2.12.1-4.25,0-6.38,0-.9,0-1.95.33-2.52-.76-1.26-2.4-3.66-2.79-5.94-3.32-15.19-3.47-30.69-3.33-45.67-4-9.07.14-17.67.51-26.27,1.14-5.22.39-9.42,3-13.59,5.44-2,1.12-.49,4.85-1.17,7.32a6.84,6.84,0,0,0-.1,1.05,2.33,2.33,0,0,0,1.23,2.64c2.44,1.36,3.37,3.81,4.22,6.3,2.49,7.37,5.18,14.65,9.57,21.17a12.75,12.75,0,0,0,9.47,6,219.52,219.52,0,0,0,44.86,1.29c10.64-.82,17.7-5.71,20.67-16.1q1.36-4.76,2.58-9.55c.26-1,.24-2.08,1.36-2.7,4.15-2.31,8.4-3.78,13.15-2A4.83,4.83,0,0,1,153,118.9a53.77,53.77,0,0,0,4.1,13.85c2.9,6.78,7.9,10.51,15.23,11.55,15.92,2.26,31.76,1.22,47.65-.45,5.74-.6,9.21-3.57,11.9-8.2a101.6,101.6,0,0,0,8.13-18.75c.92-2.73,1.86-5.34,4.54-6.85A1.94,1.94,0,0,0,245.61,108ZM125.29,133.12a7.71,7.71,0,0,1-5.46,4.59,125.34,125.34,0,0,1-47.09,2c-6.4-1-10.57-4.75-13.16-10.52a37.41,37.41,0,0,1-3-19.7c.53-4.91,3-8.13,8.12-9.39,8.34-2.06,16.82-2.11,25-2.53,10.17.47,20.06.73,29.77,3.21,5.39,1.38,8.39,4.61,9.09,9.91A39.91,39.91,0,0,1,125.29,133.12ZM228.55,129c-2.6,6.13-7.1,9.83-13.77,10.77a128.55,128.55,0,0,1-45.71-1.87,9.07,9.07,0,0,1-6.89-5.91,41,41,0,0,1-2.79-21.14c.64-4.94,3.16-8.44,8.29-9.86,9.89-2.74,20-3,30-3.41,8,.15,15.73.46,23.41,1.95,7.08,1.37,9.68,3.85,10.42,10.47A37.45,37.45,0,0,1,228.55,129Z"/></svg>