<svg id="Layer_1" data-name="Layer 1" xmlns="http://www.w3.org/2000/svg" viewBox="0 0 288 288"><defs><style>.cls-1,.cls-29{fill:#f4f2ef;}.cls-2{fill:#f7d0da;}.cls-3{fill:#3c332f;}.cls-4{fill:#3e3632;}.cls-5{fill:#3f3733;}.cls-6{fill:#403733;}.cls-7{fill:#423a36;}.cls-8{fill:#403833;}.cls-9{fill:#433b38;}.cls-10{fill:#463c3b;}.cls-11{fill:#524b47;}.cls-12{fill:#423c38;}.cls-13{fill:#4c4643;}.cls-14{fill:#4a413f;}.cls-15{fill:#443c38;}.cls-16{fill:#59534f;}.cls-17{fill:#3b1613;}.cls-18{fill:#3d1713;}.cls-19{fill:#e22026;}.cls-20{fill:#565b5f;}.cls-21{fill:#231f20;}.cls-22{fill:#fbfafa;}.cls-23{fill:#faa41d;}.cls-24{fill:#0599d0;}.cls-25{fill:#ee367f;}.cls-26{fill:#5bba47;}.cls-27{fill:#f0f0f0;}.cls-28{fill:#efeff0;}.cls-29{stroke:#333;stroke-miterlimit:10;stroke-width:4px;}.cls-30{fill:#facbcb;}</style></defs><title>Gaming</title><path class="cls-1" d="M190.07,55.61s31.07-25.39,39.16-11.38c2,5.26,2.86,7.29,2.86,7.29l.42,4.8-6.12,4.37-26.69,3.24Z"/><path class="cls-1" d="M99,213a32.29,32.29,0,0,1,4-9.65c5.45-8.56,6-8.89,17.46-9-6.58-1.89-12.84-2.15-18.94-3.34-13.82-2.68-24-10.8-32.71-21.2l.16.13c-.83-1.92-1.65-3.87-4.38-2.61-1.36-2-.54-4.7-2.34-6.52-.94-6.12-4.42-11.38-5.87-17.32l-2.65-6.3c2.38-11.42,4.71-22.86,7.81-34.12C66.07,90.88,71.93,79.58,83.15,72c5.48-8.4,14.6-12.43,22.08-18.43l.09,1.64c1.59,1.31,3,.19,4.57-.19,13.6-3.36,27.28-6.12,41.42-4.19l4.31-1.37c3,2,6.37,2.59,9.86,2.82h2.81a118.77,118.77,0,0,1,31.06,13.37,9.55,9.55,0,0,0,6,1.23c4.28.66,6.76,3.74,9.3,6.83A97.87,97.87,0,0,1,227.7,94.16c1.41-9.3-1.1-18.68,1.54-27.78,2.21-1.87,4.47-3.58,7.64-2.9l.2,2c.32,2.42-3.1,4-1.58,6.68a10.32,10.32,0,0,1,.06,1.39c1.23,10.18.19,20.27-1.3,30.33-.3,2-.1,4.75-2.52,5.23s-1.44,1.74-1.09,2.78c3.3,9.72,3.81,19.89,4.83,30L234,145c-2,3.83-1.44,8.5-4,12.14l-1.49,3.07c-2.12,3.82-4.92,13.89-7.26,15.44a107.32,107.32,0,0,1-22.81,13.3,47,47,0,0,1-21.4,3.35c8.55-2,13,4.23,17.08,11.31,2.8,4.86,3.33,10.63,6.41,15.35l-1.39,2.55c-.66,3.17-1.35,6.34,1.46,8.95l-2.65,3.91c-4,.95-5.34,4.95-8.33,7.07-4.2,3-8.23,6.44-13.83,3.25-1.46-.83-2.65-.08-4,.36-10.59,3.48-13.26,1.63-14.66-10.06a5.79,5.79,0,0,0,0,1.6c1,12.24.87,12.44-10.8,12.17-8.12-.19-9-1.14-8.82-9.53,0-2.1,0-4.19,0-6.29,0-.93-1.07-.3-.15-.43.07,0,.12.21.11.66a47.44,47.44,0,0,1-.17,7c-.54,3.28-1.46,6.58-5,7.77s-6.34-.44-8.89-2.74c-1.37-1.24-2.2-3-3.94-4.2-2,6.05-6.13,5.28-10.47,3.21-5-2.38-7.17-7.11-9.35-11.78a14.26,14.26,0,0,1-.6-2.71c-.36,2.5,1.7,4.41,1.12,6.75"/><path class="cls-2" d="M230.08,65.71c-.08,9.53-.14,19.07-.25,28.6,0,1.78.38,4.3-2,4.5-2,.16-1.58-2.3-2.19-3.71-4.7-10.89-10.37-21.08-21-27.44-4-.25-4.81-3.37-5.73-6.39,2.16-6,5-11.71,11.92-13.06,8.18-1.59,12.87,3.46,16.42,10,2.82,3.05,5.42-1.68,8.19-.22l1.42,0C237,62.7,233.14,63.84,230.08,65.71Z"/><path class="cls-2" d="M84.18,73.89c-5.39.69-7.32,5.41-9.95,9C69.75,89,65.58,95.45,63.18,102.8a2.45,2.45,0,0,1-3.17-.16c-2.68-5.21-1-10.81-1.43-16.23-.42-4.75.89-9.61-1-14.24a3.57,3.57,0,0,1-1.37-2.61L56.38,68c1.1-1.75,2.5-1.38,3.84-.85-.66-1.58-4.86-.16-3.83-3.79a1.16,1.16,0,0,1,0-.81c1-1.32,2.4-.83,3.67-.67,3.12.38.43-1.61.94-2.3,3.92-9,10.33-11,18.1-5.6a60.3,60.3,0,0,1,9.26,7.32c1.46,2.61-.59,4.16-1.89,5.86C84.9,69.15,83.73,71.23,84.18,73.89Z"/><path class="cls-3" d="M99.37,236.24c-.35-1.61-.79-3.22.3-4.74,3.25,1.78,3.72,5.68,6.2,8.07,3.29,3.18,6.92,5.29,11.75,4.67,1-3-2.79-5.61,0-9,2.5,3.14,4.64,6.35,7.31,9,4.87,4.92,8.7,3.75,10.22-3,.51-2.26.56-4.62,1-6.91s0-4.65,2.79-6.73c0,4.87.54,9.26-.14,13.46-.84,5.27,1.38,6.62,5.93,6.33a30.77,30.77,0,0,1,4.18-.13c5.72.41,8.28-1.25,6.64-7.71a12.47,12.47,0,0,1,2.66-11.91c.31,3.69.36,7.41,1,11,1.22,7.18,4.18,8.58,10.69,5.34,2.63-1.31,5.2-2.73,8.7-4.58-2,4.55-.91,5.62,2.86,4.61,5.57-1.49,8.9-5.64,12.47-9.65.94-1.06,2.48-5,4-.18-5,10.45-13.47,13.61-24.69,14.79a199.67,199.67,0,0,1-21,1.17c-9.89,0-19.61,1.89-30.16-.69-8.82-2.15-13.42-3.77-16.86-6.66a31.65,31.65,0,0,1-5.78-6.69"/><path class="cls-4" d="M95.22,215.66c2.52-8.53,5.9-14.9,11.44-20.4-15.41-4.95-31.58-8-37.88-25.43,2.12-.15,3.44,1.13,4.61,2.62,9.65,12.26,23.22,16.43,37.87,18.39,3.92.52,7.84,1.06,11.76,1.58a2.16,2.16,0,0,1,2.15,2.25c0,1.39-1.13,1.87-2.42,1.86a10,10,0,0,0-2.09,0c-3.53.74-7.41-2.71-10.58.49a33.79,33.79,0,0,0-8.77,14.07c-.91,3.06-1,6.43-3.3,9.08"/><path class="cls-5" d="M198.87,61.26l5.73,6.39c-1.38,2.69-3.12,1.09-4.58.24a145.14,145.14,0,0,0-30.17-13.65c-.66-.21-1.05-1.29-1.57-2,6.75-1.24,13.88,4.07,19.46,1.42s9.9-8.25,15.5-11.59c6.29-3.75,12.85-6.87,20.43-3.83,6.15,2.47,9.92,6.53,8.57,13.8-2-4.51-2.87-9.88-9.08-10.74A23.75,23.75,0,0,0,209,44c-6.24,3.17-11.64,7.56-17.25,12.8Z"/><path class="cls-4" d="M200.48,218.9c-3.19-.09-3.26-2.9-4.1-4.89-1.17-2.78-1.78-5.81-3.14-8.47-3.41-6.66-6.91-13.25-16.46-11.57-1.88.33-4.69.73-7-3.17,4.09,0,7.36.15,10.61,0a59.52,59.52,0,0,0,32.35-11.57c2.49-1.8,4.56-5,8.47-3.62-3.48,8.39-11.21,11.33-18.75,14.34-4.08,1.63-8.38,2.69-12.69,4C195,201.69,201.81,208.56,200.48,218.9Z"/><path class="cls-6" d="M60.67,102.88l2.51-.08c-1.83,11.37-6,22.24-7.19,33.77-.13,1.31-1.47.56-2.29.64-.4-5.78-.73-11.6,1.05-17.21,3.49-10.94-2.89-21.22-1.9-32,.58-6.27-1.22-12.91,3.37-18.43l1.23,1c3,3.42,1.07,7.54,1.58,11.31C60,88.86,57.18,96.11,60.67,102.88Z"/><path class="cls-7" d="M235.48,141.89c-3.53-1-2.51-4-2.68-6.34-.35-4.85-.65-9.67-1.42-14.5s-4.51-8.71.14-14.86c3.43-4.53,1.8-13,2.26-19.65.3-4.37-.28-8.84,1.79-13,2.89,2,2.69,5.19,2.88,8.14.41,6.54.26,13.3-1.77,19.36-3.34,9.94-2.41,19.42-.19,29.25C237.32,134,237.59,138.19,235.48,141.89Z"/><path class="cls-5" d="M56.25,58.06c.33-18.45,11.66-25,27.62-16,5.43,3.08,11,6,14.37,11.68l-.8.64c-3.6,1.16-6.12-1.23-8.9-2.75C84.12,49.25,80.1,46,75,44.87c-6.53-1.48-10,.34-12.48,6.56-1.14,2.83-1,6.7-5.37,7.08Z"/><path class="cls-8" d="M151.31,50.84a8.08,8.08,0,0,1-5.3,1.41c-12-.33-23.6,2-35.25,4.33-1.65.34-4.65,2.91-5.44-1.37,11.61-6.33,24.21-7.8,37.14-7.35C145.61,48,149.08,47.74,151.31,50.84Z"/><path class="cls-9" d="M84.18,73.89c-3.85-1.22-2-3.59-.8-5.32a64.64,64.64,0,0,1,5.41-6.14c1.81-4.44,5.56-6.78,9.56-8.85l-.11.21c1.32-.78,2.62-1.6,4-2.32,2.32-1.23,3.45-.66,3,2.11C100.68,62.9,88.38,64.2,84.18,73.89Z"/><path class="cls-7" d="M235.41,58c-2.75-.47-5.22,9.09-8.19.22,4.23-.81,5.29-5.55,8.72-7.5C238.21,53.57,236.09,55.69,235.41,58Z"/><path class="cls-10" d="M61.87,60.58,64.06,63a6.32,6.32,0,0,1-2.34.7c-1.8-.22-3.57-.74-5.35-1.14-.79-.5-1.6-1-2.35-1.5-1.49-1.06-4-2.41-2.89-4.1,1.71-2.58,3.51.09,5.12,1.15l-.1-.2C57.94,59,60.53,58.5,61.87,60.58Z"/><path class="cls-11" d="M200.55,230.4q-7.07-3.69-1.46-8.95C203.51,223.8,200.63,227.33,200.55,230.4Z"/><path class="cls-5" d="M166.64,52.29c-4.08,1.84-9,2.5-11-2.82C164.9,52,173.76,39.63,166.64,52.29Z"/><path class="cls-12" d="M64.73,167l3.84-2.56c2.22,1.75-.8,3.82.38,5.56-2.16-.1-2.47,4-5,2.39-.75-.47-.5-2.53-.71-3.86A1.83,1.83,0,0,1,64.73,167Z"/><path class="cls-13" d="M230.08,65.71,236.83,58c3.66,1.8-.34,3.67.05,5.5C234.77,64.69,233.25,67.74,230.08,65.71Z"/><path class="cls-7" d="M235.5,72.18c-2.24.07-5.49.82-2.36-3.08a33.16,33.16,0,0,1,3.94-3.6C241.83,69,236.18,70,235.5,72.18Z"/><path class="cls-7" d="M233.39,164.65c-.89-2.64-10.48-.27-4.09-7.1,2.72,3.33,7.39,2,10.74,4.11C238.58,165,235.71,164.18,233.39,164.65Z"/><path class="cls-13" d="M224,163.65l10,2.27c.16,4.08-3.39,1.44-4.81,2.66C227.16,167.29,223.76,167.41,224,163.65Z"/><path class="cls-7" d="M220.92,171.49c-1.13-1.93-3.33-4.44,1.59-3.54a33.16,33.16,0,0,1,5,1.76C226.75,175.54,223.17,171.05,220.92,171.49Z"/><path class="cls-7" d="M54.37,155.88c1.09-2.56,10.47.52,4.62-6.77-3,3.12-7.52,1.45-11,3.28C49.16,155.87,52.09,155.24,54.37,155.88Z"/><path class="cls-13" d="M63.77,155.59,53.62,157.1c-.47,4.05,3.27,1.7,4.6,3C60.38,159,63.76,159.36,63.77,155.59Z"/><path class="cls-7" d="M66.28,163.65c1.27-1.84,3.65-4.17-1.32-3.65a33.16,33.16,0,0,0-5.15,1.37C60.16,167.24,64.07,163,66.28,163.65Z"/><path class="cls-14" d="M56.38,63.33c.75,2.09,4.73,1,4.25,3.65-.31,1.73-2.81.54-4.26,1-1.67-.57-4.22-.67-4.26-2.7C52.06,62.5,54.91,64,56.38,63.33Z"/><path class="cls-6" d="M117.11,105.07c6.83-.3,15.64,8,15.61,14.61,0,2-.75,3.77-2.69,4.45s-3.26-1-3.52-2.47c-1.15-6.25-5.08-9.59-10.82-11.43-1.44-.46-3.35-1.18-2.57-3.36C113.79,105,115.72,105.3,117.11,105.07Z"/><path class="cls-15" d="M172,115.58c2.82-6.23,13.29-10.93,19.71-8.78.82.28,2,.87,2.14,1.52.32,1.34-.84,2.12-2.05,2.27-7.38.87-13.48,3.4-15.89,11.33a1.75,1.75,0,0,1-2.9.65C170.71,120.55,170.77,118.13,172,115.58Z"/><path class="cls-16" d="M99.67,231.5l-.3,4.74c-2.29-1.77.28-5.48-3-7.11-1.38-.68.24-1.83,1.14-2.46,1.21-.84,2.61-1.33,3.86-.41s.24,1.94-.4,2.87A22.7,22.7,0,0,0,99.67,231.5Z"/><path class="cls-16" d="M101.83,223.35c-3.55,2.47-5.68,2.2-7.33-.44a1.89,1.89,0,0,1,.22-1.79C97.83,219.45,98.77,222.76,101.83,223.35Z"/><path class="cls-1" d="M61.87,60.58c-2.34,0-3.93-1.56-5.72-2.72,3.6-.58,3.61-3.72,4.49-6.26C64,42.06,69,39.75,78.24,44.06c4.57,2.14,8.78,5.05,13.17,7.58,2.14,1.23,4.09,3.25,6.95,1.93-3.05,3.09-5.08,7.3-9.56,8.85-4-.93-6.59-4.13-9.71-6.39C71.17,50.29,66.14,51.48,61.87,60.58Z"/><path class="cls-1" d="M60.67,102.88c-3.63,0-2.61-3.09-2.68-4.69-.39-9.19-.4-18.39-.53-27.59,4.48-1.92,2.87,1.89,2.91,3.4C60.6,83.62,60.6,93.25,60.67,102.88Z"/><path class="cls-17" d="M148.9,157.77c5,.44,10-.44,14.94.87,3.6.94,4.67,3,4.42,6.34-.86,11.29-13.7,19.57-25,16.07-8.75-2.72-14-9.32-13.93-17.22,0-2.74,1-4.21,3.76-5C138.34,157.24,143.64,158.19,148.9,157.77Z"/><path class="cls-18" d="M200,131.44c.75,10.51-9.71,21.15-20.72,14.84-1.29-.74-1.9-2-3.09-2.73-2.18-1.35-1.7-2.39.31-3.61,6.94-4.21,13.79-8.57,20.7-12.83,1.77-1.09,2.91-.79,2.81,1.6C200,129.8,200,130.89,200,131.44Z"/><path class="cls-18" d="M119.14,139.42c-4.73-3.08-9.33-6.38-14.63-8.48l-5.91-4.17c-1-.25-2.4-1-2.49.65-.12,2.18-1,4.6.93,6.52-.26,5.12,2.55,8.71,6.23,11.62,4.42,3.5,9.5,3.61,13.35.73l1.66-1.19h0C122.18,142.83,122.41,141.55,119.14,139.42Z"/><path class="cls-19" d="M147.93,161.77a112.18,112.18,0,0,1,13,.62c3.47.42,3.4,2.38,2.74,4.59-1.54,5.15-8.84,11.06-15.17,10.65-6.8-.44-12.69-4.65-14.34-10.86-.68-2.56-.14-3.72,2.58-4.36C140.72,161.47,144.68,162,147.93,161.77Z"/><path class="cls-20" d="M106.41,243.77A27.38,27.38,0,0,1,80,224.27c-4.62-14.48,1.57-28.05,15.74-34.57a26.67,26.67,0,0,1,11.35-2.26h.19q6.94,0,13.88,0H141.3l15,0q7.84,0,15.71,0h17.2c7.29,0,13.54,2,18.56,5.87a27.66,27.66,0,0,1-4.42,47.37,20.75,20.75,0,0,1-6.29,2.15l-.14,0a31.53,31.53,0,0,1-7,.82h0a26.5,26.5,0,0,1-16.16-5.55,8.65,8.65,0,0,0-5.43-1.83c-6.86,0-13.68,0-20.49,0l-19,0a8.74,8.74,0,0,0-5.33,1.87A29.29,29.29,0,0,1,106.41,243.77Z"/><path class="cls-21" d="M156.26,189.94q7.87,0,15.74,0h17.17c6.73,0,12.45,1.81,17,5.35l.05,0,.05,0a25.15,25.15,0,0,1-4.07,43.05l-.09,0-.09,0a18.06,18.06,0,0,1-5.46,1.86l-.14,0-.14,0a29.05,29.05,0,0,1-6.42.76,23.73,23.73,0,0,1-14.66-5.05,11.18,11.18,0,0,0-6.93-2.33h-.05c-6.26,0-12.93,0-20.4,0l-19,0a11.19,11.19,0,0,0-6.77,2.33,26.81,26.81,0,0,1-15.67,5.1,24.92,24.92,0,0,1-24-17.76c-4.21-13.2,1.45-25.58,14.41-31.54a24.23,24.23,0,0,1,10.3-2h.18c4,0,8.28,0,13.87,0h20.17l14.95,0m0-5-15,0H121.14q-6.92,0-13.84,0h-.21a29.4,29.4,0,0,0-12.39,2.49C79.6,194.37,72.6,209.26,77.62,225a29.85,29.85,0,0,0,28.79,21.24,31.86,31.86,0,0,0,18.58-6,6.21,6.21,0,0,1,3.86-1.4h0l19,0q10.21,0,20.42,0h0a6.18,6.18,0,0,1,3.93,1.33,28.82,28.82,0,0,0,17.66,6.05,33.89,33.89,0,0,0,7.52-.88,23.15,23.15,0,0,0,6.94-2.36,30.15,30.15,0,0,0,4.88-51.6c-5.37-4.16-12.19-6.39-20.08-6.4H172q-7.87,0-15.74,0Z"/><path class="cls-22" d="M106.85,199.71a16,16,0,0,1,16,15.92,16.36,16.36,0,0,1-16,16c-8.66.06-16.4-7.68-16.27-16.27A16.26,16.26,0,0,1,106.85,199.71Z"/><path class="cls-23" d="M189.49,213.38a4.84,4.84,0,0,1-5-4.92,5,5,0,0,1,4.65-5c2.41-.34,5.19,2.34,5.3,4.81A5.36,5.36,0,0,1,189.49,213.38Z"/><path class="cls-24" d="M176.25,220.49a5.15,5.15,0,0,1-5.09-4.6,5.2,5.2,0,0,1,4.73-5.27,5.78,5.78,0,0,1,5.38,4.74C181.47,217.8,178.92,220.4,176.25,220.49Z"/><path class="cls-25" d="M204.72,220c-1.82.35-3.64.74-5.21-.69-2.31-3.28-2.25-5.94.17-7.76,2.21-1.66,5-1.14,7,1.28S207.8,217.63,204.72,220Z"/><path class="cls-26" d="M189.28,230.38a4.65,4.65,0,0,1-4.81-5,5.22,5.22,0,0,1,4.84-4.73,5.4,5.4,0,0,1,5.12,5A5,5,0,0,1,189.28,230.38Z"/><path class="cls-27" d="M140.42,224.51a4,4,0,0,1-4.06-1.66,2.07,2.07,0,0,1,.9-3.08,8.8,8.8,0,0,1,7.21,0,2.31,2.31,0,0,1,.55,3.47C143.93,224.79,142.31,224.46,140.42,224.51Z"/><path class="cls-28" d="M156.52,219.24c2.07-.13,4.41-.23,4.37,2.66,0,2.56-2.22,2.62-4.21,2.62-2.16,0-4.86.2-5-2.62C151.6,218.87,154.34,219.15,156.52,219.24Z"/><path d="M106.69,225.7c-2.59.62-3.18-.76-2.92-3,.36-3-.28-5-4-4.33-2.22.41-3.09-.38-3.12-2.89s1.1-3.11,3.17-2.74c3.6.65,4.41-1.15,3.9-4.23-.37-2.23.64-3,2.83-3,2,.05,3.74.22,3.2,2.9-.77,3.83,1,4.9,4.46,4.28,2.74-.49,2.32,1.37,2.47,3,.18,2-.48,3-2.58,2.61-3.84-.75-5,1.06-4.35,4.53C110.2,225.45,109,226.21,106.69,225.7Z"/><ellipse class="cls-29" cx="84.96" cy="194.99" rx="7.71" ry="9.66"/><ellipse class="cls-29" cx="207.64" cy="197.08" rx="7.71" ry="9.66"/><path class="cls-30" d="M104.27,156.48c7.49.06,13.24,4.9,12.91,10.3-.29,4.81-3.91,7.37-8.52,6-3.57-1-6.87-2.52-9.12-5.65-1.66-2.31-3.6-4.88-2-7.7A6.26,6.26,0,0,1,104.27,156.48Z"/><path class="cls-30" d="M198,165.84c-3.59,6.57-10.57,9.35-15.17,6.52-4.1-2.53-4.65-6.93-1.3-10.36,2.6-2.66,5.47-4.86,9.29-5.37,2.82-.37,6-.87,7.72,1.9A6.26,6.26,0,0,1,198,165.84Z"/></svg>