<svg id="Layer_1" data-name="Layer 1" xmlns="http://www.w3.org/2000/svg" viewBox="0 0 288 288"><defs><style>.cls-1{fill:#f4f2ef;}.cls-2{fill:#f7d0da;}.cls-3{fill:#3c332f;}.cls-4{fill:#3e3632;}.cls-5{fill:#3f3733;}.cls-6{fill:#403733;}.cls-7{fill:#423a36;}.cls-8{fill:#403833;}.cls-9{fill:#433b38;}.cls-10{fill:#463c3b;}.cls-11{fill:#524b47;}.cls-12{fill:#423c38;}.cls-13{fill:#4c4643;}.cls-14{fill:#4a413f;}.cls-15{fill:#3e3530;}.cls-16{fill:#59534f;}.cls-17{fill:#f6f4f3;}.cls-18{fill:#f2f1ef;}.cls-19{fill:#faeb00;}.cls-20{fill:#fdf05f;}.cls-21{fill:#facccc;}.cls-22{fill:#f9cccc;}.cls-23{fill:#090707;}.cls-24{fill:#e22026;}.cls-25{fill:none;stroke:#3e3530;stroke-miterlimit:10;}</style></defs><title>Suggestions</title><path class="cls-1" d="M190.07,78.88s31.07-25.39,39.16-11.38c2,5.26,2.86,7.29,2.86,7.29l.42,4.8L226.38,84l-26.69,3.24Z"/><path class="cls-1" d="M99,236.26a32.29,32.29,0,0,1,4-9.65c5.45-8.56,6-8.89,17.46-9-6.58-1.89-12.84-2.15-18.94-3.34-13.82-2.68-24-10.8-32.71-21.2l.16.13c-.83-1.92-1.65-3.87-4.38-2.61-1.36-2-.54-4.7-2.34-6.52-.94-6.12-4.42-11.38-5.87-17.32l-2.65-6.3c2.38-11.42,4.71-22.86,7.81-34.12,4.55-12.21,10.41-23.51,21.63-31.09,5.48-8.4,14.6-12.43,22.08-18.43l.09,1.64c1.59,1.31,3,.19,4.57-.19,13.6-3.36,27.28-6.12,41.42-4.19l4.31-1.37c3,2,6.37,2.59,9.86,2.82h2.81a118.77,118.77,0,0,1,31.06,13.37,9.55,9.55,0,0,0,6,1.23c4.28.66,6.76,3.74,9.3,6.83a97.87,97.87,0,0,1,13.05,20.44c1.41-9.3-1.1-18.68,1.54-27.78,2.21-1.87,4.47-3.58,7.64-2.9l.2,2c.32,2.42-3.1,4-1.58,6.68a10.32,10.32,0,0,1,.06,1.39c1.23,10.18.19,20.27-1.3,30.33-.3,2-.1,4.75-2.52,5.23s-1.44,1.74-1.09,2.78c3.3,9.72,3.81,19.89,4.83,30l-1.5,3.06c-2,3.83-1.44,8.5-4,12.14l-1.49,3.07c-2.12,3.82-4.92,13.89-7.26,15.44a107.32,107.32,0,0,1-22.81,13.3,47,47,0,0,1-21.4,3.35c8.55-2,13,4.23,17.08,11.31,2.8,4.86,3.33,10.63,6.41,15.35l-1.39,2.55c-.66,3.17-1.35,6.34,1.46,8.95l-2.65,3.91c-4,.95-5.34,4.95-8.33,7.07-4.2,3-8.23,6.44-13.83,3.25-1.46-.83-2.65-.08-4,.36-10.59,3.48-13.26,1.63-14.66-10.06a5.79,5.79,0,0,0,0,1.6c1,12.24.87,12.44-10.8,12.17-8.12-.19-9-1.14-8.82-9.53,0-2.1,0-4.19,0-6.29,0-.93-1.07-.3-.15-.43.07,0,.12.21.11.66a47.44,47.44,0,0,1-.17,7c-.54,3.28-1.46,6.58-5,7.77s-6.34-.44-8.89-2.74c-1.37-1.24-2.2-3-3.94-4.2-2,6.05-6.13,5.28-10.47,3.21-5-2.38-7.17-7.11-9.35-11.78a14.26,14.26,0,0,1-.6-2.71c-.36,2.5,1.7,4.41,1.12,6.75"/><path class="cls-2" d="M230.08,89c-.08,9.53-.14,19.07-.25,28.6,0,1.78.38,4.3-2,4.5-2,.16-1.58-2.3-2.19-3.71-4.7-10.89-10.37-21.08-21-27.44-4-.25-4.81-3.37-5.73-6.39,2.16-6,5-11.71,11.92-13.06,8.18-1.59,12.87,3.46,16.42,10,2.82,3.05,5.42-1.68,8.19-.22l1.42,0C237,86,233.14,87.11,230.08,89Z"/><path class="cls-2" d="M84.18,97.16c-5.39.69-7.32,5.41-9.95,9-4.48,6.14-8.65,12.55-11.05,19.9a2.45,2.45,0,0,1-3.17-.16c-2.68-5.21-1-10.81-1.43-16.23-.42-4.75.89-9.61-1-14.24a3.57,3.57,0,0,1-1.37-2.61l.14-1.59c1.1-1.75,2.5-1.38,3.84-.85-.66-1.58-4.86-.16-3.83-3.79a1.16,1.16,0,0,1,0-.81c1-1.32,2.4-.83,3.67-.67,3.12.38.43-1.61.94-2.3,3.92-9,10.33-11,18.1-5.6a60.3,60.3,0,0,1,9.26,7.32c1.46,2.61-.59,4.16-1.89,5.86C84.9,92.43,83.73,94.5,84.18,97.16Z"/><path class="cls-3" d="M99.37,259.51c-.35-1.61-.79-3.22.3-4.74,3.25,1.78,3.72,5.68,6.2,8.07,3.29,3.18,6.92,5.29,11.75,4.67,1-3-2.79-5.61,0-9,2.5,3.14,4.64,6.35,7.31,9,4.87,4.92,8.7,3.75,10.22-3,.51-2.26.56-4.62,1-6.91s0-4.65,2.79-6.73c0,4.87.54,9.26-.14,13.46-.84,5.27,1.38,6.62,5.93,6.33a30.77,30.77,0,0,1,4.18-.13c5.72.41,8.28-1.25,6.64-7.71A12.47,12.47,0,0,1,158.23,251c.31,3.69.36,7.41,1,11,1.22,7.18,4.18,8.58,10.69,5.34,2.63-1.31,5.2-2.73,8.7-4.58-2,4.55-.91,5.62,2.86,4.61,5.57-1.49,8.9-5.64,12.47-9.65.94-1.06,2.48-5,4-.18-5,10.45-13.47,13.61-24.69,14.79a199.67,199.67,0,0,1-21,1.17c-9.89,0-19.61,1.89-30.16-.69-8.82-2.15-13.42-3.77-16.86-6.66a31.65,31.65,0,0,1-5.78-6.69"/><path class="cls-4" d="M95.22,238.93c2.52-8.53,5.9-14.9,11.44-20.4-15.41-4.95-31.58-8-37.88-25.43,2.12-.15,3.44,1.13,4.61,2.62C83,208,96.61,212.15,111.26,214.11c3.92.52,7.84,1.06,11.76,1.58a2.16,2.16,0,0,1,2.15,2.25c0,1.39-1.13,1.87-2.42,1.86a10,10,0,0,0-2.09,0c-3.53.74-7.41-2.71-10.58.49a33.79,33.79,0,0,0-8.77,14.07c-.91,3.06-1,6.43-3.3,9.08"/><path class="cls-5" d="M198.87,84.53l5.73,6.39c-1.38,2.69-3.12,1.09-4.58.24a145.14,145.14,0,0,0-30.17-13.65c-.66-.21-1.05-1.29-1.57-2,6.75-1.24,13.88,4.07,19.46,1.42s9.9-8.25,15.5-11.59c6.29-3.75,12.85-6.87,20.43-3.83,6.15,2.47,9.92,6.53,8.57,13.8-2-4.51-2.87-9.88-9.08-10.74A23.75,23.75,0,0,0,209,67.32c-6.24,3.17-11.64,7.56-17.25,12.8Z"/><path class="cls-4" d="M200.48,242.17c-3.19-.09-3.26-2.9-4.1-4.89-1.17-2.78-1.78-5.81-3.14-8.47-3.41-6.66-6.91-13.25-16.46-11.57-1.88.33-4.69.73-7-3.17,4.09,0,7.36.15,10.61,0a59.52,59.52,0,0,0,32.35-11.57c2.49-1.8,4.56-5,8.47-3.62-3.48,8.39-11.21,11.33-18.75,14.34-4.08,1.63-8.38,2.69-12.69,4C195,225,201.81,231.83,200.48,242.17Z"/><path class="cls-6" d="M60.67,126.15l2.51-.08c-1.83,11.37-6,22.24-7.19,33.77-.13,1.31-1.47.56-2.29.64-.4-5.78-.73-11.6,1.05-17.21,3.49-10.94-2.89-21.22-1.9-32,.58-6.27-1.22-12.91,3.37-18.43l1.23,1c3,3.42,1.07,7.54,1.58,11.31C60,112.13,57.18,119.38,60.67,126.15Z"/><path class="cls-7" d="M235.48,165.16c-3.53-1-2.51-4-2.68-6.34-.35-4.85-.65-9.67-1.42-14.5s-4.51-8.71.14-14.86c3.43-4.53,1.8-13,2.26-19.65.3-4.37-.28-8.84,1.79-13,2.89,2,2.69,5.19,2.88,8.14.41,6.54.26,13.3-1.77,19.36-3.34,9.94-2.41,19.42-.19,29.25C237.32,157.32,237.59,161.46,235.48,165.16Z"/><path class="cls-5" d="M56.25,81.33c.33-18.45,11.66-25,27.62-16,5.43,3.08,11,6,14.37,11.68l-.8.64c-3.6,1.16-6.12-1.23-8.9-2.75C84.12,72.52,80.1,69.3,75,68.14c-6.53-1.48-10,.34-12.48,6.56-1.14,2.83-1,6.7-5.37,7.08Z"/><path class="cls-8" d="M151.31,74.11a8.08,8.08,0,0,1-5.3,1.41c-12-.33-23.6,2-35.25,4.33-1.65.34-4.65,2.91-5.44-1.37,11.61-6.33,24.21-7.8,37.14-7.35C145.61,71.24,149.08,71,151.31,74.11Z"/><path class="cls-9" d="M84.18,97.16c-3.85-1.22-2-3.59-.8-5.32a64.64,64.64,0,0,1,5.41-6.14c1.81-4.44,5.56-6.78,9.56-8.85l-.11.21c1.32-.78,2.62-1.6,4-2.32,2.32-1.23,3.45-.66,3,2.11C100.68,86.17,88.38,87.47,84.18,97.16Z"/><path class="cls-7" d="M235.41,81.23c-2.75-.47-5.22,9.09-8.19.22,4.23-.81,5.29-5.55,8.72-7.5C238.21,76.84,236.09,79,235.41,81.23Z"/><path class="cls-10" d="M61.87,83.85l2.19,2.38a6.32,6.32,0,0,1-2.34.7c-1.8-.22-3.57-.74-5.35-1.14-.79-.5-1.6-1-2.35-1.5-1.49-1.06-4-2.41-2.89-4.1,1.71-2.58,3.51.09,5.12,1.15l-.1-.2C57.94,82.31,60.53,81.77,61.87,83.85Z"/><path class="cls-11" d="M200.55,253.67q-7.07-3.69-1.46-8.95C203.51,247.07,200.63,250.6,200.55,253.67Z"/><path class="cls-5" d="M166.64,75.56c-4.08,1.84-9,2.5-11-2.82C164.9,75.24,173.76,62.9,166.64,75.56Z"/><path class="cls-12" d="M64.73,190.22l3.84-2.56c2.22,1.75-.8,3.82.38,5.56-2.16-.1-2.47,4-5,2.39-.75-.47-.5-2.53-.71-3.86A1.83,1.83,0,0,1,64.73,190.22Z"/><path class="cls-13" d="M230.08,89l6.75-7.73c3.66,1.8-.34,3.67.05,5.5C234.77,88,233.25,91,230.08,89Z"/><path class="cls-7" d="M235.5,95.45c-2.24.07-5.49.82-2.36-3.08a33.16,33.16,0,0,1,3.94-3.6C241.83,92.24,236.18,93.26,235.5,95.45Z"/><path class="cls-7" d="M233.39,187.92c-.89-2.64-10.48-.27-4.09-7.1,2.72,3.33,7.39,2,10.74,4.11C238.58,188.3,235.71,187.45,233.39,187.92Z"/><path class="cls-13" d="M224,186.92l10,2.27c.16,4.08-3.39,1.44-4.81,2.66C227.16,190.56,223.76,190.68,224,186.92Z"/><path class="cls-7" d="M220.92,194.76c-1.13-1.93-3.33-4.44,1.59-3.54a33.16,33.16,0,0,1,5,1.76C226.75,198.81,223.17,194.32,220.92,194.76Z"/><path class="cls-7" d="M54.37,179.16c1.09-2.56,10.47.52,4.62-6.77-3,3.12-7.52,1.45-11,3.28C49.16,179.14,52.09,178.51,54.37,179.16Z"/><path class="cls-13" d="M63.77,178.86l-10.15,1.51c-.47,4.05,3.27,1.7,4.6,3C60.38,182.26,63.76,182.63,63.77,178.86Z"/><path class="cls-7" d="M66.28,186.92c1.27-1.84,3.65-4.17-1.32-3.65a33.16,33.16,0,0,0-5.15,1.37C60.16,190.52,64.07,186.31,66.28,186.92Z"/><path class="cls-14" d="M56.38,86.6c.75,2.09,4.73,1,4.25,3.65-.31,1.73-2.81.54-4.26,1-1.67-.57-4.22-.67-4.26-2.7C52.06,85.77,54.91,87.25,56.38,86.6Z"/><path class="cls-15" d="M99.69,182.25c-11.31-.12-20.59-9.81-20.45-21.34.13-10.9,10.89-21,22.18-20.84s20.37,10,20.22,21.63S111.94,182.38,99.69,182.25Z"/><path class="cls-15" d="M177.95,161.18c-.11-11.53,9.79-21,21.81-20.84,10.71.13,19.64,9.39,19.75,20.48a20.94,20.94,0,0,1-20.7,21.11C187.27,182.14,178.06,173,177.95,161.18Z"/><path class="cls-16" d="M99.67,254.77l-.3,4.74c-2.29-1.77.28-5.48-3-7.11-1.38-.68.24-1.83,1.14-2.46,1.21-.84,2.61-1.33,3.86-.41s.24,1.94-.4,2.87A22.7,22.7,0,0,0,99.67,254.77Z"/><path class="cls-16" d="M101.83,246.62c-3.55,2.47-5.68,2.2-7.33-.44a1.89,1.89,0,0,1,.22-1.79C97.83,242.72,98.77,246,101.83,246.62Z"/><path class="cls-1" d="M61.87,83.85c-2.34,0-3.93-1.56-5.72-2.72,3.6-.58,3.61-3.72,4.49-6.26C64,65.33,69,63,78.24,67.34c4.57,2.14,8.78,5.05,13.17,7.58,2.14,1.23,4.09,3.25,6.95,1.93-3.05,3.09-5.08,7.3-9.56,8.85-4-.93-6.59-4.13-9.71-6.39C71.17,73.56,66.14,74.75,61.87,83.85Z"/><path class="cls-1" d="M60.67,126.15c-3.63,0-2.61-3.09-2.68-4.69-.39-9.19-.4-18.39-.53-27.59,4.48-1.92,2.87,1.89,2.91,3.4C60.6,106.89,60.6,116.52,60.67,126.15Z"/><path class="cls-17" d="M115,154.15c-1,4.14-3.33,6.89-7.69,6.64s-6.75-3.2-6.54-7.47,2.89-6.75,7.37-6.53S114.33,150.17,115,154.15Z"/><path class="cls-18" d="M206.05,145.89c4.53.72,7,3.13,6.9,7.55s-2.8,7.1-7.09,7-6.8-2.88-6.69-7.37S202.07,146.48,206.05,145.89Z"/><path class="cls-15" d="M211.08,127.36c-3.26-2.34-4.73-5.4-6.82-7.91-6.2-7.42-11.4-8.23-19.33-3-1.38.92-3,3.21-4.58,1.3-1.32-1.58.53-3.35,1.68-4.72a14.38,14.38,0,0,1,20.37-2.31A23.21,23.21,0,0,1,211.08,127.36Z"/><path class="cls-15" d="M89.2,126.91c1.63-7,3.44-13.63,10.52-17,6.57-3.13,12.89-2.3,18.87,1.6,1.33.87,3.4,2,2.51,3.76s-2.9.65-4.41.19c-12.1-3.68-15.83-2.4-23.11,7.85C92.56,124.73,91.82,126.57,89.2,126.91Z"/><path class="cls-15" d="M141.66,32.31a21.41,21.41,0,0,0-13.57,23.24,33.81,33.81,0,0,0,2,6.4c2.79,7.49,5.51,15,8.26,22.52a10.32,10.32,0,0,1,.56,1.43c.14.71.13,1.45.25,2.17.18,1.05.51,1.3,1.61,1.3h17.15c1,0,1.28-.25,1.44-1.2a15.73,15.73,0,0,1,.35-2.46c1-2.88,2.12-5.72,3.18-8.58,2-5.49,4-11,6.11-16.47a21.88,21.88,0,0,0,1.19-12.82A21.36,21.36,0,0,0,141.66,32.31Zm9.69,51.21c0,.43-.19.61-.63.6-.89,0-1.77,0-2.66,0-.41,0-.56-.15-.59-.56-.24-3.24-.47-6.48-.75-9.72-.6-6.81-1.23-13.62-2.45-20.37,0-.14,0-.29,0-.53h10.42c-.19,1.13-.39,2.18-.53,3.25-.54,4.27-1.12,8.54-1.55,12.82C152.08,73.86,151.74,78.7,151.35,83.53Zm16-24.11c-2.11,5.62-4.18,11.26-6.26,16.89-.88,2.38-1.76,4.75-2.62,7.14-.17.48-.38.71-.94.69-1.55,0-3.1,0-4.7,0,0-.66,0-1.27,0-1.86.36-4.42.66-8.84,1.14-13.25.56-5.09,1.3-10.15,1.94-15.23.08-.67.36-.92,1-.88a23.27,23.27,0,0,0,2.44,0,2.9,2.9,0,0,0,3-3.34c-.13-2.41-2.17-4-4.28-3.28a3.12,3.12,0,0,0-2,1.81c-.37.94-.69,1.89-1,2.86a.63.63,0,0,1-.72.54q-5,0-10,0c-.46,0-.63-.18-.75-.6a21.33,21.33,0,0,0-.81-2.53,3.38,3.38,0,0,0-3.68-2.22,3.43,3.43,0,0,0-2.76,3.3,2.92,2.92,0,0,0,3,3.45c.86,0,1.73,0,2.59,0,.47,0,.71.12.78.64.47,3.34,1.05,6.66,1.43,10,.56,4.92,1,9.85,1.44,14.77.17,1.88.26,3.77.4,5.8-1.94,0-3.74,0-5.53,0-.18,0-.42-.36-.51-.6-2-5.36-3.93-10.72-5.9-16.08-1.1-3-2.33-5.91-3.33-8.92a19.44,19.44,0,1,1,36.54.91Zm-11-8a27.31,27.31,0,0,1,1.14-2.91,1.79,1.79,0,0,1,2.59-.67,2.48,2.48,0,0,1,.62,3,1.49,1.49,0,0,1-.9.57C158.73,51.44,157.64,51.4,156.36,51.4Zm-14,0c-1.19,0-2.2.06-3.2,0a1.42,1.42,0,0,1-1.37-1.67,2.14,2.14,0,0,1,1.59-2.2A2,2,0,0,1,141.61,49C141.91,49.78,142.12,50.56,142.41,51.44Z"/><path class="cls-15" d="M157.63,90.82a5.26,5.26,0,0,0-.88,0c-5,.18-10,.37-15.05.54-1.6.05-1.84.28-1.76,1.88,0,.8.33,1.1,1.16,1.08,2.68-.07,5.36-.16,8-.25V94c1,0,2,0,3,0q2.55-.06,5.09-.16c1.13,0,1.38-.32,1.38-1.43,0-.2,0-.39,0-.59A.94.94,0,0,0,157.63,90.82Z"/><path class="cls-15" d="M156.38,95.26l-14,.55c-1.53.06-1.72.25-1.69,1.81,0,.88.33,1.19,1.23,1.16l7.31-.27v0l7.31-.25c1.15,0,1.36-.34,1.3-1.86C157.79,95.53,157.38,95.22,156.38,95.26Z"/><path class="cls-15" d="M155.73,99.71l-5.82.25-7.37.31c-.77,0-1.09.38-1.12,1.16,0,.27,0,.54,0,.81a.91.91,0,0,0,1,1c.54,0,1.08,0,1.62-.08h0l11.8-.47c1.06,0,1.34-.47,1.25-1.86C157.07,100,156.62,99.66,155.73,99.71Z"/><path class="cls-15" d="M149.4,27.87c.7,0,1.14-.52,1.15-1.41,0-1.87,0-3.74,0-5.62q0-.22,0-.44c0-1.77,0-3.55,0-5.32a1.83,1.83,0,0,0-.66-1.18,1.07,1.07,0,0,0-1,.09,1.88,1.88,0,0,0-.51,1.21c0,3.74,0,7.49,0,11.23C148.28,27.33,148.69,27.85,149.4,27.87Z"/><path class="cls-15" d="M168.75,35.08q4.1-4.09,8.18-8.2a5.5,5.5,0,0,0,.59-1,4.3,4.3,0,0,0-.78-.92,1,1,0,0,0-1.33.29q-4.12,4.12-8.23,8.25a1.1,1.1,0,0,0-.12,1.64A1.09,1.09,0,0,0,168.75,35.08Z"/><path class="cls-15" d="M130,35.05a1.12,1.12,0,1,0,1.58-1.54q-4.08-4.11-8.19-8.19a5.39,5.39,0,0,0-1-.59c-.33.28-.74.48-.91.8a1.12,1.12,0,0,0,.35,1.39Q126,31,130,35.05Z"/><path class="cls-15" d="M123,54c.92,0,1.36-.38,1.36-1.09s-.48-1.1-1.36-1.1H111.66c-.87,0-1.39.42-1.39,1.09s.52,1.08,1.39,1.09H123Z"/><path class="cls-15" d="M187.28,51.76H175.82c-.91,0-1.37.35-1.4,1.06s.42,1.13,1.39,1.13h5.69c1.87,0,3.74,0,5.62,0,.29,0,.7,0,.83-.16a1.92,1.92,0,0,0,.51-1.17C188.41,52,187.9,51.76,187.28,51.76Z"/><path class="cls-15" d="M124.11,61.77l-4.23,1.75c-.59.25-1.19.47-1.77.74a1,1,0,0,0-.57,1.28c.15.37.57.63.82.89.43-.13.67-.18.9-.28L125,63.78c.87-.36,1.16-.91.87-1.58S125,61.4,124.11,61.77Z"/><path class="cls-15" d="M159,29.46c.66.29,1.25,0,1.6-.86q1.2-2.89,2.4-5.79c.08-.2.14-.42.27-.83-.26-.25-.52-.67-.88-.82a1,1,0,0,0-1.36.66l-2.45,5.93C158.21,28.53,158.39,29.2,159,29.46Z"/><path class="cls-15" d="M172.61,43.21a1.05,1.05,0,0,0,1.42.57c2.12-.86,4.24-1.73,6.33-2.65.32-.14.51-.58.65-.75,0-1-.76-1.52-1.52-1.22q-3.15,1.26-6.27,2.59A1,1,0,0,0,172.61,43.21Z"/><path class="cls-15" d="M180.11,64.46l-6-2.48c-.76-.31-1.34-.13-1.62.5s0,1.2.8,1.54l5.79,2.4c.22.09.46.16.69.23l.18.11c.3-.34.72-.63.87-1C181,65.15,180.68,64.7,180.11,64.46Z"/><path class="cls-15" d="M138.29,28.74a1.08,1.08,0,0,0,1.46.6,1.07,1.07,0,0,0,.55-1.43c-.85-2.12-1.73-4.23-2.64-6.32-.13-.31-.53-.5-.67-.61-1.07,0-1.62.69-1.3,1.5C136.53,24.58,137.4,26.66,138.29,28.74Z"/><path class="cls-15" d="M125.12,41.37l-5.59-2.32c-.27-.11-.56-.18-1-.33-.25.27-.67.53-.81.9a1,1,0,0,0,.64,1.31l5.93,2.46c.82.34,1.45.19,1.72-.42S126,41.72,125.12,41.37Z"/><path class="cls-15" d="M149.33,104.94h-3.39c-.32,0-.71,0-.57.5a2.07,2.07,0,0,0,1.87,1.41c1.23,0,2.46,0,3.68,0a1.84,1.84,0,0,0,1.92-1.05,4.73,4.73,0,0,0,.23-.66,2.42,2.42,0,0,0-.65-.21C151.39,104.93,150.36,104.94,149.33,104.94Z"/><path class="cls-19" d="M168.28,48.38A19.44,19.44,0,1,0,130.81,58.5c1,3,2.23,5.94,3.33,8.92,2,5.36,3.92,10.72,5.9,16.08.09.24.33.59.51.6,1.79,0,3.59,0,5.53,0-.14-2-.22-3.92-.4-5.8-.45-4.93-.88-9.86-1.44-14.77-.38-3.35-1-6.67-1.43-10-.07-.52-.31-.65-.78-.64-.86,0-1.73,0-2.59,0a2.92,2.92,0,0,1-3-3.45,3.43,3.43,0,0,1,2.76-3.3,3.38,3.38,0,0,1,3.68,2.22,21.33,21.33,0,0,1,.81,2.53c.12.42.28.61.75.6q5,0,10,0a.63.63,0,0,0,.72-.54c.28-1,.6-1.93,1-2.86a3.12,3.12,0,0,1,2-1.81c2.1-.71,4.15.87,4.28,3.28a2.9,2.9,0,0,1-3,3.34,23.27,23.27,0,0,1-2.44,0c-.68,0-1,.2-1,.88C155.3,58.86,154.55,63.92,154,69c-.49,4.4-.78,8.83-1.14,13.25,0,.6,0,1.2,0,1.86,1.6,0,3.15,0,4.7,0,.56,0,.77-.21.94-.69.85-2.39,1.74-4.76,2.62-7.14,2.08-5.63,4.15-11.27,6.26-16.89A19.42,19.42,0,0,0,168.28,48.38Z"/><path class="cls-20" d="M154.64,53H144.22c0,.24,0,.39,0,.53,1.21,6.74,1.85,13.55,2.45,20.37.28,3.24.51,6.48.75,9.72,0,.4.18.57.59.56.89,0,1.77,0,2.66,0,.44,0,.6-.17.63-.6.39-4.83.73-9.67,1.22-14.5.43-4.28,1-8.55,1.55-12.82C154.25,55.15,154.46,54.09,154.64,53Z"/><path class="cls-20" d="M159.82,51.38a1.49,1.49,0,0,0,.9-.57,2.48,2.48,0,0,0-.62-3,1.79,1.79,0,0,0-2.59.67,27.31,27.31,0,0,0-1.14,2.91C157.64,51.4,158.73,51.44,159.82,51.38Z"/><path class="cls-20" d="M139.42,47.55a2.14,2.14,0,0,0-1.59,2.2,1.42,1.42,0,0,0,1.37,1.67c1,.08,2,0,3.2,0-.29-.88-.5-1.66-.79-2.41A2,2,0,0,0,139.42,47.55Z"/><path class="cls-21" d="M189.32,197.92h-.49c-5.77-.17-9.83-2.93-10-6.78-.12-2.87,1-4.74,4-5.23,5.21-.86,11.16,2.32,12.37,6.64S195,198,189.32,197.92Z"/><path class="cls-22" d="M114.78,187.24a18.67,18.67,0,0,1,3.17.19c1.94.52,4,1.25,4.71,3.24.79,2.19-1.39,3.22-2.67,4.26-2.68,2.19-5.7,4.07-9.26,4.28a5.93,5.93,0,0,1-5.85-3.81c-1.14-2.62.8-4.42,2.73-5.68C110,188.21,112.48,186.86,114.78,187.24Z"/><path class="cls-23" d="M156.67,190c-.11,5.4-.57,10.75-2.65,15.81-.83,2-1.84,4-4.41,4.06s-3.83-1.67-4.73-3.67a39.38,39.38,0,0,1-2.24-25,6,6,0,0,1,6-5,6.48,6.48,0,0,1,6.62,4.22C156.65,183.55,156.74,186.78,156.67,190Z"/><path class="cls-24" d="M145.69,190.16c.1-1.57-.15-3.95.68-6.23.54-1.5,1-3.18,3-3.11s3,1.42,3.54,3.14a22.17,22.17,0,0,1,.37,10,37.44,37.44,0,0,1-2,8.13c-.4,1-.64,2.43-2,2.45-1.54,0-1.78-1.52-2.17-2.65A34.23,34.23,0,0,1,145.69,190.16Z"/><path class="cls-25" d="M152.85,84.16c0-.66,0-1.27,0-1.86.36-4.42.66-8.84,1.14-13.25.56-5.09,1.3-10.15,1.94-15.23.08-.67.36-.92,1-.88a23.27,23.27,0,0,0,2.44,0,2.9,2.9,0,0,0,3-3.34c-.13-2.41-2.17-4-4.28-3.28a3.12,3.12,0,0,0-2,1.81c-.37.94-.69,1.89-1,2.86a.63.63,0,0,1-.72.54q-5,0-10,0c-.46,0-.63-.18-.75-.6a21.28,21.28,0,0,0-.81-2.53,3.38,3.38,0,0,0-3.68-2.22,3.43,3.43,0,0,0-2.76,3.3,2.92,2.92,0,0,0,3,3.45c.86,0,1.73,0,2.59,0,.47,0,.71.12.78.64.47,3.34,1.05,6.66,1.43,10,.56,4.92,1,9.85,1.44,14.77.17,1.88.26,3.77.4,5.8h-2.66l.05.2h12.57l.06-.2Zm4.66-35.63a1.79,1.79,0,0,1,2.59-.67,2.48,2.48,0,0,1,.63,3,1.49,1.49,0,0,1-.9.57c-1.09.07-2.18,0-3.46,0A27.32,27.32,0,0,1,157.51,48.53Zm-18.29,2.93a1.42,1.42,0,0,1-1.37-1.67,2.14,2.14,0,0,1,1.59-2.2,2,2,0,0,1,2.19,1.48c.3.74.51,1.52.79,2.41C141.22,51.47,140.21,51.53,139.22,51.45Zm12.14,32.11c0,.43-.19.61-.63.6-.89,0-1.77,0-2.66,0-.41,0-.56-.15-.59-.56-.24-3.24-.47-6.48-.75-9.72-.6-6.81-1.23-13.62-2.45-20.37,0-.14,0-.29,0-.53h10.42c-.19,1.13-.39,2.18-.53,3.25-.54,4.27-1.12,8.54-1.55,12.82C152.09,73.89,151.74,78.73,151.35,83.56Z"/></svg>