<svg id="Layer_1" data-name="Layer 1" xmlns="http://www.w3.org/2000/svg" viewBox="0 0 1067.84 248.92"><defs><style>.cls-1{fill:#fec40c;}.cls-2{fill:#00834a;}.cls-3{fill:#fdf000;}.cls-4{fill:#fefefe;}.cls-5{fill:#fefefd;}.cls-6{fill:#1e8a4a;}.cls-7{fill:#118648;}.cls-8{fill:#0e8649;}.cls-9{fill:#f5f4f2;}.cls-10{fill:#006c3c;}.cls-11{fill:#413a35;}.cls-12{fill:#fcef01;}.cls-13{fill:#faee04;}.cls-14{fill:#fbfcf9;}.cls-15{fill:#443f39;}.cls-16{fill:#f1f7f3;}.cls-17{fill:#f3f9f7;}.cls-18{fill:#ede60a;}.cls-19{fill:#f1c013;}.cls-20{fill:#f6ec04;}.cls-21{fill:#4c5549;}.cls-22{fill:#4e5249;}.cls-23{fill:#eff6e8;}.cls-24{fill:#fcef0b;}.cls-25{fill:#f0bf14;}.cls-26{fill:#fdf112;}.cls-27{fill:#55564e;}.cls-28{fill:#fec60c;}.cls-29{fill:#675d52;}.cls-30{fill:#4c443b;}.cls-31{fill:#4c423a;}.cls-32{fill:#3f3630;}.cls-33{fill:#f6cfdb;}.cls-34{fill:#f5d0db;}.cls-35{fill:#4a4139;}.cls-36{fill:#4a413a;}.cls-37{fill:#524742;}.cls-38{fill:#534a45;}.cls-39{fill:#544b47;}.cls-40{fill:#f2f0ee;}.cls-41{fill:#f3f2f0;}.cls-42{fill:#f0eeee;}.cls-43{fill:#f0eeed;}.cls-44{fill:#f4f2ef;}.cls-45{fill:#f7d0da;}.cls-46{fill:#3c332f;}.cls-47{fill:#3e3632;}.cls-48{fill:#3f3733;}.cls-49{fill:#403733;}.cls-50{fill:#423a36;}.cls-51{fill:#403833;}.cls-52{fill:#433b38;}.cls-53{fill:#463c3b;}.cls-54{fill:#524b47;}.cls-55{fill:#423c38;}.cls-56{fill:#4c4643;}.cls-57{fill:#4a413f;}.cls-58{fill:#3e3530;}.cls-59{fill:#403530;}.cls-60{fill:#443c38;}.cls-61{fill:#59534f;}.cls-62{fill:#f6f4f3;}.cls-63{fill:#f2f1ef;}</style></defs><title>banner</title><path class="cls-1" d="M755.12-.06q246.26,0,492.5-.1c3.75,0,4.6.85,4.6,4.6q-.2,120.75,0,241.5c0,3.42-.67,4.1-4.1,4.09q-99-.19-198-.09c-16.49-2.64-31.87-9.24-47.88-13.57a13.78,13.78,0,0,1-2.83-1c-1.68-.87-3.13-1.89-3.25-4a3.69,3.69,0,0,1,3-4.06c3-.83,3.06-2.54,1.76-4.85a8.7,8.7,0,0,0-.79-1.27c-1.93-2.34-2.37-7.7-5.2-6.91-3.21.9-3.1,6.14-4.44,9.48-.7,1.74.34,2.75,2,3.33,1.94.68,4.08,1.63,3.12,4.2-.91,2.42-3.31,1.92-5.22,1.52-7.67-1.58-15.06-4.21-22.67-6.05-9.06-2.18-18.09-4.47-27.12-6.78a21,21,0,0,1-4.72-1.59,5.56,5.56,0,0,1-3.2-6.18c.42-2.79,2.47-3.71,4.94-4.14,7.66-1.33,7.74-1.45,3.93-8.38-3.28-6-6.64-11.92-9.95-17.9-.64-1.16-1.24-2.57-2.84-2.42s-2,1.54-2.55,2.78c-2.82,6.95-5.1,14.09-7.65,21.13-1.06,2.94.22,4.44,3.28,4.6a22.38,22.38,0,0,1,5,.43c2.37.65,3.89,2,3.57,4.64-.34,2.75-2.38,3.51-4.75,3.23-5.8-.68-11.42-2.28-17.11-3.5-39.87-8.57-80-15.31-120.44-20.78a19,19,0,0,1-4.84-1.19c-2.87-1.2-3.86-3-1.68-5.78,1.78-2.3.55-7.94-1.87-9.33a1.47,1.47,0,0,0-1.39-.14c-1.42.56-5.54,7.44-5.32,9.23.31,2.66-.67,4.52-3.39,4.35-7.6-.46-15.28-.54-22.52-3.41-1.54-4.17-1-8.67-2.14-12.92,2.58-6.9,8.5-8.54,14.82-8.72,13.95-.38,27.9-.11,41.85-.13,11.29,0,22.59,0,33.88,0,9.52-.06,12.68-3,13.78-12.53-1.42-6.59-5.31-10-12.16-10.16-7.15-.22-14.31-.22-21.46,0-10.65.25-17.06-6.65-17.87-15.51-.91-10-4.29-12.45-14.35-12.49-19.3-.1-38.59.1-57.89-.1-8.56-.09-13.74-4.3-15.85-12.33-.09-1.49-.48-2.93-.64-4.42-.76-7.08-3.15-9.69-9.92-11-13.32-2.61-16.36-6.48-15.64-19.84,2.14-7.55,7.92-12,16.48-12.41,5.93-.31,11.88,0,17.82-.19,9.57,1.16,19.15,0,28.71-.26,4.94-.15,8.54-5.33,9.2-11.37-2-8.42-5.27-11-13.92-11.13-3.33,0-6.64,0-9.84-1.22-6.71-2.52-11.27-9.39-10.49-15.91.71-5.94,6.57-10.68,14-11.43C742,.77,748.57.83,755.12-.06Z"/><path class="cls-1" d="M-2.88,249.94q-90.88,0-181.79.1c-3.7,0-4.3-.88-4.3-4.38q.18-122.37.09-244.72c1.9-1,3.93-.48,5.89-.48Q-30.38.43,122.23.41c2,0,4,.5,5.89-.47h1c1.73.94,3.6.47,5.39.48l149.84,0A19.52,19.52,0,0,1,289.8.7c1,1.12.14,1.76-.67,2.36a9.3,9.3,0,0,1-4.25,1.36C273.5,6.36,274.66,10,277,20.25c1,4.1,4.6,5.45,8.55,5.56,5.66.16,11.32,0,17,.08a19.89,19.89,0,0,1,11.32,3.35c5.06,3.47,7.72,8.38,6.88,14.54-.87,6.32-3.9,11.31-10.48,13.26a30.44,30.44,0,0,1-4.77,1.43c-9.95-.38-19.87-.77-29.85.24-6.42.65-9.56,4-10.37,11.16a30.56,30.56,0,0,1-.59,4.94c-2,7-7.65,11.15-15.8,11.19-24.62.14-49.23.06-73.85,0a30.42,30.42,0,0,0-11.67,2.14c-1.49.61-2.67,1.28-3.15,2.86-4.84,10.07-.24,18,11,18.69,7,.4,14,0,21,.14,10.14.15,15.22,4.39,17.26,14.3.27,1.3.57,2.59.78,3.9,1,6.25,3.7,8.69,10,8.73,18.95.13,37.91,0,56.86,0a27.6,27.6,0,0,1,12.12,2.39c4.26,2,7.27,5.2,8.31,10,.08.83.32,1.63.43,2.45,1.56,11.44,2,12,13.48,14.27a15.76,15.76,0,0,1,10.48,7c2,3.08,2.87,6.37.71,9.83-2.52,2.84-6,2-9.19,2.47-5.32.74-10.62,1.69-16,1.48-2.25-.52-3.09-2.09-3.12-4.29-.1,1.55.65,3.32-1.16,4.39-5.83,1.33-7,.41-7-6-7.83,2.26-6.17-5.84-9.52-9-2.28,1.83-3.23,4.32-4.47,6.6-.83,1.52.16,2.27,1.16,3.31,3.42,3.59,2.65,6.75-2,8-3.65,1-7.42,1.9-11.23.5-1.32-1.92.19-4.09-.7-6.12-.06,2.46,1.05,5.21-1.6,7-8.23,3-17,3.14-25.47,4.44-30.74,4.71-61.34,10.12-91.76,16.58-5.53,1.18-11,2.54-16.57,3.61-2.56.49-5.6,1.31-6.84-2.12-1.07-3,.77-4.68,3.35-5.74,1.79-.73,2-2,1.41-3.67s-1.22-3.45-1.78-5.2c-.95-3-1.8-5.47-5.7-2.54-2.5,1.88-3.94-.55-4.83-2.56-1.42-3.19-2.42-6.56-3.82-9.75-1.65-3.74-3.44-4-5.45-.52C96.27,190.8,92.42,198,88.61,205.2c-1.33,2.53-.54,4.17,2.41,4.55,1.15.15,2.33.1,3.48.25,2.71.36,4.78,1.54,5.27,4.47s-.19,5.63-2.94,7.37a16.66,16.66,0,0,1-5.14,1.89c-27.5,6.65-54.6,14.69-81.46,23.56C6,248.71,1.38,248.52-2.88,249.94Z"/><path class="cls-2" d="M-2.88,249.94c13.52-5.61,27.58-9.6,41.54-13.87,18.28-5.6,36.67-10.82,55.31-15,4.53-1,4.31-3.58,4.14-6.77-.22-4.26-3.47-1.72-5.3-2.26-1.07-.32-2.32,0-3.48-.08-3.8-.26-5.3-2.55-3.65-5.75,4.47-8.72,9.22-17.3,14.13-25.78,2-3.45,5.65-3,7.17.76,2,4.92,3.66,10,5.52,15.09a4.49,4.49,0,0,0,1.28-.61c1.5-1.56,1.44-5.13,4.52-4.5,2.66.55,2.27,3.72,3.18,5.75a50.27,50.27,0,0,1,2,5.62c.64,2,2.32,4,1.46,6.14-1,2.46-3.5,1.16-5.34,1.48-2.31.39-1.85,2.14-1.61,3.48.41,2.27,2.06,1,3.14.71,22.87-5.12,45.84-9.81,68.93-13.87,22.59-4,45.22-7.79,68-10.51a2,2,0,0,1,2.43-.16c3.59-.59,7.17-1.25,10.77-1.75,1.56-.22,3-.24,3-2.39,0-2-.84-2.65-2.7-2.55-3.56.18-3.44-1.61-2.1-4,1.61-2.91,3.15-5.85,4.78-8.74.55-1,1.07-2.29,2.43-2.23,1.65.08,1.88,1.66,2.33,2.87,1.15,3.1,2.26,6.23,3.37,9.31.82.14,1.17-.32,1.64-.83,1-1,1.08-4.09,3.2-2.61a5.25,5.25,0,0,1,1.74,5.81c-1.21,3.28-1.36,3.22,2.18,3.06a12.4,12.4,0,0,1,1.48.1,14.69,14.69,0,0,1,3.42-.67l26.14-3.21c2.65-3,6.54-2.48,9.8-2.76,8.77-.73,17.51-1.75,26.28-2.39,5.13,1.28,10.11-.47,15.17-.84,6.56-.47,13.1-1.31,19.81-1.49-2.3-1-4.7-1.79-5.34-4.57,1.56-8.19,6.29-14.83,10.89-21.45,1.85-2.66,5.06-2.16,7.28.35,1.2,1.36,1.65,3.17,2.76,5.08,4.22-6.44,6.87-13.32,11.3-19.14,2.3-2.15,4.74-2.4,7.36-.59,4.24,5.29,5.47,11.9,7.83,18,.26.72,0,1.78.77,2.12s1.27-.53,1.62-1.23a15.5,15.5,0,0,0,1-2.67,13.24,13.24,0,0,1,1.93-3.47c3.27-4.23,6.43-4.18,9.93.14a136.51,136.51,0,0,1,5.94,16c.06,5.34-.29,5.86-5.88,8.45,6.14,1.37,12-1.48,17.9-.43,2.12.66,5-.43,6.13,2.53-2.92,4.82,1.88,6.72,3.71,9.75,4.28,3,5.72,8.93,11.25,10.76,2.19.72,4.37,1.57,6.52,2.42,3.67,1.46,4.24,3.07,2.29,6.5-1.48,2.59-3.11,5-2.73,8.31.2,1.73-1.25,3-2.73,3.91-3.52,1.56-7.41,1.92-10.92,3.47-3.1,1.37-7.45,1.9-7.35,6.31s4.4,4.94,7.55,6.19a58.47,58.47,0,0,0,19.42,4.27c15.42.55,30.94,1.79,46.23-1.64,4.7-1.06,9.44-2.16,13.64-4.67,4.77-2.85,4.77-5.55.09-8.43-3.58-2.2-7.85-2.75-11.51-4.77a5,5,0,0,1-1.89-2.47A4.37,4.37,0,0,1,548,212c1-3.37-.56-6.13-2.27-8.82-2.62-4.1-2.17-5.59,2.38-7.39s9.13-3.3,11.56-8a5.11,5.11,0,0,1,1-1c3.11-2,6-4.15,3.32-8.49,0-2.74.73-5.07,3.3-6.47,2.58-1,5.4,0,8-1,8.91-.1,17.82-.26,26.64,1.43a11.11,11.11,0,0,0,4.9-.2,28.5,28.5,0,0,1,7.93.3c1.27.15,2.45,0,2.71-1.51.29-1.66-.8-2.29-2.25-2.71-9.42-2.77-10-4.1-6.41-13.41.43-1.09,1-2.09,1.46-3.17a88.88,88.88,0,0,1,4-11.29c2.45-5.39,6.71-5.83,10.42-1.24a48,48,0,0,1,4.53,7.75c1,1.78,1.71,2.36,3.76.91,3.6-2.54,5.75-1.9,8.31,1.66,1.51,2.12,2.21,4.78,4.42,7,2.17-4,3.29-8,4.63-11.94a20.1,20.1,0,0,1,2.71-5.87c2.72-3.51,6.76-3.95,9.25-.34A156.76,156.76,0,0,1,677,164.8c1.38,3.18-.23,5.81-3.24,7.48-2.1,1.11-4.62.21-6.75,1.35,1.65,1.65,30.13,5.13,35.67,4.37,8.71.75,17.43,1.45,26.11,2.51,2.41.3,4.21.35,4.92-2.53.49-2,1.47-4,4-3.55s3.31,2.48,3.66,4.74c.19,1.23-.43,2.76,1.3,3.39,1.52.78,3.33,1,4.57,2.31,7.12.73,14.23,1.49,21.35,2.17,1.07.1,2.48,1,3.2-.28.95-1.74-1-1.51-1.74-2.19-1.26-1.18.54-7,1.94-6.57,3.78,1.13,2.93-2.1,3.84-3.51s.61-3.63,2.69-3.74,2.32,2.11,3.15,3.46c1,1.69,1.95,3.47,2.89,5.23,1.62,3,4.74,6.6-2.39,6.39-1.05,0-1.31.84-1.14,1.77.25,1.3,1.33,1.22,2.32,1.36,5.93.85,11.85,1.77,17.78,2.59,41.4,5.72,82.45,13.38,123.25,22.37,1.27.28,2.85,1.81,4,0a3.7,3.7,0,0,0,.08-2.89c-.72-1.94-2.57-1.05-3.91-1.08-10.34-.25-10.6-.6-7.1-10.18q3.6-9.84,7.14-19.7c.7-2,1.47-3.79,4-3.86,2.15-.06,3.23,1.36,4.16,3,4.32,7.87,8.74,15.69,13,23.61,2.46,4.58,1,6.92-4.1,7-1.5,0-3,0-4.5,0-1.74,0-3.39-.13-3.23,2.46.11,2-.22,3.85,2.63,4.5,18.65,4.24,37.12,9.2,55.55,14.31,1,.26,2.42,1.43,2.75-.55.37-2.26-1.6-1.76-2.72-1.67-5,.42-5.28-2-3.82-5.8,1.37-3.57,2.6-7.2,3.94-10.78.46-1.22.82-2.65,2.54-2.67,1.35,0,2,.91,2.59,2,2.28,4.25,4.64,8.46,6.94,12.7,1.8,3.32.48,4.53-3,4.55-1.42,0-3.6-1-3.73,1.88-.1,2.37,1.77,2.52,3.31,3,15.78,4.67,31.5,9.55,47,15a20.43,20.43,0,0,1,2.21,1.07Z"/><path class="cls-3" d="M717.79,55c-7.07.28-14.17-.74-21.21.61-6.13,1.18-9.88,4.87-11.68,10.73-1,2.13-3,3-5.06,3.71-35.91,13-72,25.51-108,38.32-2.17.78-4.36,1.67-6.78,1.38-4.22-2.26-5-6.39-5.81-10.56.82-2.44,3-3.44,5-4.65q73.63-45.31,147.17-90.8c3-1.89,6.45-2.55,9.68-3.78h34q-9,1.47-18,2.94a27.65,27.65,0,0,0-3.39.74c-7.53,2.23-11.06,6-10.54,11.3a14.37,14.37,0,0,0,13.59,13c3,.21,6,0,9,.09,6.32.29,11.35,5.86,11.43,12.53-.91,3.07-3.76,3.56-6.19,4.4C740.06,48.68,729.39,53.39,717.79,55Z"/><path class="cls-3" d="M301.12-.06h79c5.89,1.29,9.49,6,13.61,9.65q42,37.56,84,75c2.46,2.18,5.17,4.25,6.3,7.59-.18,4.64-2.68,7.68-6.71,9.65-2.86.13-5.06-1.52-7.35-2.83Q388.65,52.51,307.27,6c-2.28-1.3-4.89-2.23-6.39-4.64A1.25,1.25,0,0,1,301.12-.06Z"/><path class="cls-4" d="M721.12-.06Q690.39,19,659.64,38.06q-48,29.61-96,59.12c-1.12.7-2.32,1.29-3.48,1.92-4.26-.41-5.33-3.87-6.7-7-.07-2.25,1.4-3.62,2.85-5,13-12.46,26-24.83,39-37.27C610.48,35.15,626,20.81,641,5.93a30.79,30.79,0,0,1,9.1-6Z"/><path class="cls-4" d="M483.21,92.34,409,25.87,380.12-.06h48A14.08,14.08,0,0,1,434,5.12c17.88,24.59,36,49,53.88,73.59,1.45,2,3.2,3.87,3.45,6.52C489.84,90.53,487.76,92.35,483.21,92.34Z"/><path class="cls-3" d="M650.12-.06Q620.54,28.26,591,56.58q-18.37,17.63-36.68,35.33c-4-.3-7-3-8.43-7.69.08-2.46,1.51-4.32,2.82-6.24,16.42-24.17,33-48.21,49.35-72.43,1.62-2.39,3.36-4.51,6.1-5.61Z"/><path class="cls-3" d="M490.46,85.09q-27-36.69-54-73.4c-2.85-3.87-5.56-7.83-8.34-11.75h36a12,12,0,0,1,4,5c10,22.26,20,44.57,30,66.82,1.28,2.83,3,5.62,2.7,9-1.3,3.2-4.5,4-7.12,5.5A2.14,2.14,0,0,1,490.46,85.09Z"/><path class="cls-4" d="M604.12-.06q-27,39.57-53.9,79.16c-1.12,1.64-2.1,3.38-3.14,5.07-3.71,1.75-7,.32-10.05-4.29-.51-2.8.79-5.21,1.79-7.63,9.09-22.27,18.24-44.5,27.29-66.78a11.44,11.44,0,0,1,4-5.53Z"/><path class="cls-3" d="M570.12-.06c-4.66,14-10.91,27.31-16.33,41C548.6,54,543.16,67,537.83,80c-4.15,1.65-7.42.77-10.87-2.93-1.35-3.65-.2-7.31.45-10.8,3.67-19.88,7.16-39.79,10.67-59.7.44-2.48,1-4.87,3-6.63Z"/><path class="cls-4" d="M500.15,80.88q-18-40-36-80a2.87,2.87,0,0,1-.05-1h29c3,2.68,3.19,6.53,3.88,10,4,20.2,8.75,40.25,12.75,60.45.49,2.42,1.33,4.85.27,7.34C507.37,80.83,504.13,82,500.15,80.88Z"/><path class="cls-3" d="M509.05,77.86q-7.67-36.51-15.35-73c-.34-1.62-.89-3.2-.58-4.89h26c2,1.67,2.12,4,2.13,6.36q.11,32.39,0,64.78c0,2,0,4-1.24,5.75C516.5,78.63,513,80.44,509.05,77.86Z"/><path class="cls-5" d="M519.34,76.82q-.11-38.44-.22-76.88h22c-1.36,12.87-4.34,25.47-6.43,38.22C532.58,51.09,530.24,64,528,76.88,525.1,79.72,522.21,79.23,519.34,76.82Z"/><path class="cls-1" d="M128.12-.06c-2.05,1.66-4.48,1-6.74,1Q-33.75,1-188.88.94c1.11-2.09,3-.94,4.5-.94q127.5-.11,255-.06Z"/><path class="cls-1" d="M301.12-.06a.78.78,0,0,1,.32.76c-3.77,4.09-7.13,4.41-11.5,1.1C287.62.46,285.06,1,282.61,1Q208.95.92,135.27.89c-2.05,0-4.35.9-6.15-.95Z"/><path class="cls-3" d="M711,99.73c3.83,9.18,6.91,11.21,17,11.21H783.9c11.08,0,15,3.46,16.15,14.39,1,9.44,5.51,13.53,15,13.59,7.81,0,15.62-.1,23.43,0a12.63,12.63,0,0,1,12.64,12.07c-2.22,2.45-5.16,2.07-8,1.84-17-1.41-34.11-2.61-51.16-4-18.54-1.51-37.08-3.09-55.62-4.53-14.57-1.12-29.1-2.78-43.72-3.42-9-.39-18.1-.7-26.77-2.37-11.12-2.13-22.23-.84-33.3-2.32-15.13-2-30.46-2.33-45.66-3.91-5.61-.58-11.33-.07-16.79-2-3.62-1.49-2.67-5.43-4.28-8-.19-1.8-.33-3.58,1-5.07,4.46-2.57,9.57-2.64,14.42-3.25,23.18-2.89,46.33-6.07,69.5-9,17.92-2.26,35.83-4.64,53.73-7C706.9,97.78,709.19,97.87,711,99.73Z"/><path class="cls-4" d="M569.41,128.73l155.77,12.38L849.6,151c.5,0,1,0,1.5,0,1,7.65-3.45,13.89-11,15a40.9,40.9,0,0,1-6,.32q-37.18,0-74.37,0c-6.09,0-11.11,1.73-14,7.56-.06,2.73-1,5.35-.9,8.12,0,1.64-.77,2.82-2.78,2.06-1.88-.57-6.11.51-2.14-3.84,1.15-1.26-1.09-3.73-3-5.64-1.32,2.88-4.06,5.13.73,7.74l-1,1-33.53-3.47c-8-1.61-16.21-2.72-24-5.53-2-.71-4.25-1.1-4.91-3.63,2-2.1,2-4.23.53-6.74-4.34-7.65-8.52-15.38-12.74-23.1-1.06-1.93-2.07-3.95-4.73-3.71s-3.26,2.56-4,4.56c-2.32,6.35-4.58,12.72-7.27,20.21-2.3-4.07-4.1-7.27-5.93-10.46-1-1.8-1.55-4.45-4.26-4.25s-2.62,3.07-3.59,4.88c-.3.56-.49,1.19-1,2.46-2.8-5-5.39-9.57-7.9-14.18-.91-1.67-1.87-3.35-4-3.21s-2.83,1.92-3.47,3.73c-1.31,3.75-2.77,7.45-4.18,11.17a5.08,5.08,0,0,1-4.24.82C595.08,149,582.16,146.24,570,141c-1.77-1-2.2-2.78-2.81-4.48C567.8,133.92,566.17,130.63,569.41,128.73Z"/><path class="cls-4" d="M711,99.73q-41.81,5.35-83.6,10.71-30.17,3.86-60.35,7.66c-3.47-2.41-4-5.52-2.22-9.2Q602.58,95.43,640.29,82C655.14,76.69,670,71.53,684.9,66.32c-.74,10.75,3.71,15.92,14.47,16.8C708,83.83,711.39,88.65,711,99.73Z"/><path class="cls-5" d="M717.79,55c12.8-5.71,26.34-9.45,39.39-14.49,1.69,7.29-4.32,14.42-12.59,14.56C735.66,55.2,726.72,55,717.79,55Z"/><path class="cls-6" d="M742.15,184.12c.79-.43,3.13-.12,1.83-1.71-3.14-3.88-.52-6,1.85-8.47,3.6,3.23,2.78,7,1.45,10.93C745.52,185,743.72,185.35,742.15,184.12Z"/><path class="cls-4" d="M427,135.12c-2.19-.8-4.32-1.15-6.12.84-5.87,4-12.8,3.15-19.28,3.9-13,1.5-26,3.16-39.06,4.55-13.85,1.47-27.7,3.08-41.55,4.54-6.6.7-13.11,2.2-19.79,2.26-1.88,0-3.66.16-5.06-1.39-3.2-7.81-9.2-10.59-17.4-10.49-19,.22-37.93.09-56.89.06-9.82,0-13-3-14-12.76-1.09-10.57-5.85-14.83-16.63-14.85-6.66,0-13.31,0-20,0-13-.08-19.05-10.24-13-21.82,4.73-2.86,9.85-1.27,14.64-.77,16.51,1.73,33.08,2.82,49.56,4.76,15.17,1.79,30.4,2.84,45.59,4.45,12.53,1.33,25.08,2.69,37.68,3.52,11.26.74,22.46,2.3,33.7,3.36,12.22,1.15,24.48,2,36.67,3.53,16,2,32.07,2.88,48.08,4.64,12.53,1.38,25.08,2.82,37.7,3.37a25.25,25.25,0,0,1,9.22,1.87c2.49,1.54,2.6,4,2.51,6.53-.37,2.29.09,5-2.78,6.12-7.91,2.68-16.31,2-24.41,3.57-4.37.82-8.84,1-13.26,1.59A7.71,7.71,0,0,1,427,135.12Z"/><path class="cls-3" d="M471.24,120q-39.51-3.73-79-7.48-44.48-4.26-88.94-8.56t-88.94-8.61L158.2,90c3.54-4.73,8.59-6,14.1-6q38,0,76,0c9.57,0,14.44-4.68,14.84-14.17.38-9,4-12.92,14.87-13.56,9.43-.56,19-1,28.41.58,4.73-.63,9.17.68,13.59,2.1,38.61,12.44,77.33,24.55,116,36.94,10.61,3.4,21.23,6.77,31.88,10,2.55.78,5.12,1.56,6.8,3.89C474.52,113.48,475.83,117.71,471.24,120Z"/><path class="cls-4" d="M474.05,109.85Q424.64,94.3,375.22,78.72q-34.43-10.89-68.81-21.93c4.83-1.58,9.21-3.71,11.37-8.79,3.89-9.2-2.3-19-12.53-19.53-6-.29-12,0-17.95-.1A14.81,14.81,0,0,1,273.84,7.6a6.8,6.8,0,0,1,4.39-3.75,32.69,32.69,0,0,1,11.71-2c3.93.71,7.71-.25,11.5-1.1,18.36,10.39,36.75,20.73,55.07,31.18q60.44,34.47,120.81,69C478.8,104.84,477.23,107.64,474.05,109.85Z"/><path class="cls-3" d="M296.18,149.82,373.39,141q20.3-2.32,40.59-4.58c2.3-.26,4.63-.3,6.94-.44-4,7.4-8,14.8-12.07,22.41-2.11-2.27-2.21-5-3.28-7.32-.62-1.34-.84-2.9-2.69-3.18-2.1-.31-2.94,1.16-3.76,2.62Q394,159.57,389,168.67c-4.33,5.09-10.81,5.44-16.55,7.18a90.58,90.58,0,0,1-13.05,2.89l-37.15,3.16c-.38-8.89-3.77-12.66-12.7-14.13C298.48,166,296,162.56,296.18,149.82Z"/><path class="cls-7" d="M260.55,189.77l-2.43.16c.53-.89,1-2.13,0-2.66-4.81-2.79,0-4.77.59-7a1.13,1.13,0,0,1,2,0c.69,2,3.23,4.17,1,6.11C260.37,187.55,259.65,188.14,260.55,189.77Z"/><path class="cls-8" d="M296.11,185.11a4.06,4.06,0,0,1-3.42.67c.64-1,1-1.64-.2-2.84-2.18-2.18.7-3.65,1.41-5.4.26-.65,1.45-.62,1.6,0,.43,1.8,3.1,3.52.61,5.5C295,183.94,295,184.41,296.11,185.11Z"/><path class="cls-9" d="M474.3,174.69c-1.35-3.77-4.58-.58-6.62-1.79-.39-2.71,1.61-4,3.21-5.62,2.85-3.06,2.57-7.21,3.66-10.87.45-1.53.48-3.21,1.16-4.71,2-7.55,5.26-14.22,12.35-18.32,5.62-7,13.41-9.07,21.89-10.06,4.21-.48,8.49-.51,12.63-1.56a5.38,5.38,0,0,1,2.25-.22c2.23.5,4.12,2.69,6.73,1.37a4.54,4.54,0,0,1,1.42.23c6.41,2.35,12.41,5.61,18.67,8.29,5.87,1.34,8.08,6.38,11.06,11,1.4-2.69-.81-7,3.69-8a1.87,1.87,0,0,1,1.31,1.64c1.16,5.9,1.47,11.74-1.43,17.3a3.2,3.2,0,0,0-.56,2.36c1.56,4.71,1.45,9.73,2.79,14.48a2.18,2.18,0,0,1-1.2,2.62L565.09,179c-.21,3.43-2.17,6.11-3.84,8.91a.49.49,0,0,0-.31.56c-4.7,3.4-9.46,6.53-15.09,8.39-2.79.91-5.59.24-8,1.16,5.92-.31,9,3.46,11.27,14.06a.59.59,0,0,0-.14.63c-.7,2,1.1,3.57.85,5.48a3.36,3.36,0,0,1-1.19,1.77A23.23,23.23,0,0,1,534,226.07c-3.9.24-6.62-.1-7.34-4.32.88,3.67-.71,5.46-4.52,5.67-5,.27-6-.67-6.06-5.85-.56,5.17-2.41,6.43-6.64,4.47-1.16-.53-2-1.4-3.62-1.18-5,.69-7.94-1.24-9.82-6-2.81-7.17.43-16.44,7.14-20.43-10.24-1.59-18.91-5.8-24.76-14.76C477.42,180.5,474.28,178.32,474.3,174.69Z"/><path class="cls-10" d="M548.25,219c.31-.37.61-.75.91-1.12.5-1-.3-2.39,1.1-3a28.84,28.84,0,0,1,13.13,4.3c6.14,3.67,6.09,7.9-.11,11.59a45.48,45.48,0,0,1-18.42,5.82c-19.32,2.09-38.71,3-57.87-1.7a37.31,37.31,0,0,1-11.15-4.19c-5.18-3.24-5.28-8.43,0-11.49a40.29,40.29,0,0,1,17.49-5.28c2.48-.19,2.33,1.73,2.75,3.3,1.49,5.52,4.5,7,10.17,8.48,10.92,2.85,21.62.26,32.4-.07C543.06,225.52,545.11,221.35,548.25,219Z"/><path class="cls-3" d="M570,139.93l41.86,12.19c-.61,1.89-1.21,3.78-1.86,5.66-2.83,8.15-2.73,8.39,5.83,8.56,2.62,0,3.78.56,3.93,3.55.19,3.82-1.08,5.16-4.8,4.59-2.29-.36-4.62-.44-6.93-.64-11.33-2.62-20.41-9.83-30.51-15-3.75-1.89-8-3.24-10.25-7.38C568.64,147.75,566.86,143.26,570,139.93Z"/><path class="cls-3" d="M427,135.12l44.16-5.07c1.12.5,2.33.87,2.82,2.18a4,4,0,0,1,.16,2.27c-.92,2.2-.05,4.77-1.41,6.87-5.83,4.39-12.93,5.49-19.63,7.62-1.33.43-2.58-.18-3.76-.83-.79-1.53-1.09-3.53-3.42-3.61s-2.81,1.87-3.73,3.34c-.78,1.24-1.52,2.49-2.27,3.73-1.65,1.78-3.38,3.24-5.93,1.57Z"/><path class="cls-5" d="M568.27,151.85l39.78,22-33-1.07c-2.81-1.29-6.08-2-7.31-5.39a95.25,95.25,0,0,0-1.79-9.74C565.25,155.2,565.63,153,568.27,151.85Z"/><path class="cls-11" d="M548.25,219c-2.44,6.4-8,8.56-13.91,8.62-8.11.08-16.18,1.66-24.33.4-8-1.23-14.57-3.77-15.64-13.12,0-.37-.69-.67-1.05-1,1.3-4.5,1.54-9.33,4.74-13.26,1.35-1.67-.72-2.19-1.86-2.56-6.2-2.06-12.41-4-15.54-10.61-.7-1.47-4.45-.27-3.38-3.58.35-.93.83-1.62,2-1.07C485.67,192.31,495,196.23,506,197c1.39.1,3.63-.16,3.38,1.79s-2.44,1.05-3.83,1-2.6-.29-3.74.78c-5.71,5.35-7.48,15.51-1.65,21.8,1.16,1.25,2.81,2.43,4.38,2,1.85-.55-.14-2.75,1-4,1.8,0,2.1,1.83,3.11,2.81,1.27,1.23,2.23,3.36,4.36,2.59,1.94-.71,2-2.85,2.16-4.68.16-1.44-.09-3,1.71-4.74.2,1.88.74,3.42.45,4.78-1,4.72,1.33,5.4,5.22,5,2.56-.24,3.73-1.06,3-3.75a5.52,5.52,0,0,1,1.22-5.72,4.14,4.14,0,0,1,.69,1.13c1.49,7.31,1.47,7.25,8.52,5.24,2.08-.59,4,2.25,6.61-.07C544.16,221.55,544.61,217.7,548.25,219Z"/><path class="cls-12" d="M472.15,168.59l-4.47,4.31-18.25.87c-1.92.09-3.59.11-3.53-2.69s2-2.06,3.47-2.13c6.33-.28,6.33-.26,5.42-6a5.48,5.48,0,0,1,2.94-4.28,118.54,118.54,0,0,1,10.57-6.28c1.86-.94,3.92-2,5.8.15C475.5,158.12,473,163.25,472.15,168.59Z"/><path class="cls-5" d="M472.63,152.14l-17.84,10.78-5.41-14.76,22.24-7.42C472.89,144.46,474.94,148.11,472.63,152.14Z"/><path class="cls-13" d="M674.4,170.76c9.54,3.34,19.5,5.32,28.89,9.16-12.52-.93-25-1.93-37.56-2.71-2.63-.16-2.83-1.37-2.84-3.44,0-2.3,1.14-2.72,3.1-2.71C668.79,171.08,671.6,170.87,674.4,170.76Z"/><path class="cls-14" d="M359.4,178.74,389,168.67c.15,4.17,3.24,3.28,5.8,3.45,1.46.1,3.57-.85,3.79,1.86s-2.09,2.13-3.48,2.24C383.21,177.13,371.3,177.92,359.4,178.74Z"/><path class="cls-15" d="M549.11,212c-2.39-1.68-2.45-4.56-3.51-6.91-1.82-4-4-7.28-9.24-6.37-1,.17-2-.18-2.72-1.69,2.43-.3,4.7-.68,7-.86a29.06,29.06,0,0,0,15-5.82c1.61-1.17,3.08-2.58,5.32-2-2.49,5.41-7.59,7.14-12.64,8.84-2.86,1-3.79,2-1.65,4.84S551.09,208,549.11,212Z"/><path class="cls-16" d="M436.42,173.93c-2.94.26-5.89.48-8.83.81-2.17.25-3.43-.18-3.39-2.79,0-2.42.14-4.22,3.35-3.91,4.56.43,9.14.61,13.71,1,.87.06.76.87.71,1.52C441.19,173.39,438.22,172.71,436.42,173.93Z"/><path class="cls-17" d="M410.14,175.52c-1.82.1-3.63.22-5.45.28-1.13,0-2.4.3-2.42-1.54,0-1.45.58-2.09,2-2.18,3.19-.2,6.91,1.26,8.48-3.62.33-1.06,4-1,5.56-.05s.8,3.36.71,5.09c-.12,2.31-2.19,1.41-3.47,1.59-1.8.26-3.63.27-5.45.39Z"/><path class="cls-18" d="M650,176.17c-3.1-.13-5.41-.28-7.72-.32-1.6,0-2.44-.66-2.4-2.36s1.13-1.72,2.36-1.79c3.78-.19,7.55-.45,11.33-.63,2.36-.12,4.76-.43,4.42,3.32-.35,3.94-3.12,1.82-4.85,2.07A10.58,10.58,0,0,1,650,176.17Z"/><path class="cls-19" d="M109.24,211.91c1,0,2,0,3,0,1.29,0,2.7-.28,2.77,1.83.06,1.79-1,2.26-2.36,2.59-2.1.52-4.18,1.09-6.29,1.52-1.45.29-3.2.73-3.07-1.75.1-1.77-1-4.33,2.47-4.2C106.91,212,108.08,211.92,109.24,211.91Z"/><path class="cls-20" d="M630.5,175.09c-6.71-.34-7.14-.78-6.4-6.41.13-1-.05-2.13,1.37-2.19s1.39.89,1.36,2c-.11,3.61,2.58,3,4.87,3.29,1.52.19,4.26-1.35,4.3,1.62,0,3.68-3,1-4.52,1.71C631.21,175.24,630.83,175.1,630.5,175.09Z"/><path class="cls-21" d="M479.25,182.86l-2,1.07c-2.29-2.52-5.61-3.91-7.59-7,1.05-1.7,3.38-.95,4.61-2.29C475.75,177.54,479.48,179,479.25,182.86Z"/><path class="cls-22" d="M561.25,187.86c-.94-1.42-3.87-2.72.41-4.07,1.32-.41,1.3-3.82,3.43-4.84,1.13,1.52,3.54.91,4.7,3.11Z"/><path class="cls-1" d="M280.28,186.91c-1.83.12-3.55.5-3.29-1.91.31-2.93,2.67-1.64,4.21-1.92s4-.23,3.84,1.69C284.81,187.81,281.66,186.19,280.28,186.91Z"/><path class="cls-23" d="M434,153.19l5.93-1.57a23.93,23.93,0,0,1-4.09,7.16C435,156.69,434,155.16,434,153.19Z"/><path class="cls-24" d="M569.22,167.77a22,22,0,0,1,5.82,5l-7.73.09.52-1.75A2.54,2.54,0,0,1,569.22,167.77Z"/><path class="cls-25" d="M772.65,186.86c2.36-1.43,4-1.56,5.58-.53a1.3,1.3,0,0,1,0,1.21C776.6,188.64,775,188.06,772.65,186.86Z"/><path class="cls-26" d="M436.42,173.93a15.79,15.79,0,0,1,5.55-3.41C442.78,176,438.74,173.55,436.42,173.93Z"/><path class="cls-27" d="M550.26,214.89c-.22,1.07,0,2.27-1.1,3-1.78-1.69-3.26-3.39-.19-5.26Z"/><path class="cls-28" d="M474.05,109.85l3.27-8.93c2.33-2.61,4.79-5.13,5.89-8.58,3-1.8,5.75-3.92,7.25-7.25,4.06.52,6.24-3.31,9.69-4.21l8.9-3,10.29-1,8.66.06c3,2.07,6.47,2.34,9.83,3.11,2.94,1.72,5.53,4.2,9.25,4.18,1.4,3.51,4.3,5.63,7.2,7.74l5.85,7.19q2.37,4.91,4.72,9.8l2.22,9.2,0,4.56c.7.92,0,1.3-.66,1.68a2,2,0,0,1-2.23-1.58c.52-2.94-2-4.47-3.18-6.58-4.16-16.3-14-27.44-30.2-32.31-22.52-6.76-47.07,7.68-52.6,30.64-.24,1,0,2-.14,3-.82,2.11-2.46,3.78-2.91,6.16-.24,1.27-1,3.38-3.3,1.89-.22-1.86-.43-3.71-.65-5.57Z"/><path class="cls-29" d="M565.82,123.8l1.28-1.14c3.09,1.14,1,4.23,2.31,6.07-.31,2.34-.62,4.67-.94,7a.79.79,0,0,1-1.16.22c-.34-.39-.68-.79-1-1.18a9,9,0,0,1-3.22-9C563.63,124.59,564.82,124.32,565.82,123.8Z"/><path class="cls-30" d="M567.31,136l1.16-.22c.52,1.39,1,2.79,1.55,4.19a58,58,0,0,1-1.75,11.92c-2.08,5.45-.14,10.66,1,15.92l-1.39,3.34c-2.85-1.18-1.19-3.75-1.74-5.64C563.16,155.5,567.2,145.81,567.31,136Z"/><path class="cls-31" d="M471.88,125.54c3.15-2,2.12-6.57,5.36-8.47,1.57-3.37,4.46-3,7.27-2.42a23.46,23.46,0,0,1,8.85,4.44A12,12,0,0,0,503.72,121c4.37-1,8.75-2.1,13.26-2,2.78.09,5.83.18,6.61,3.88-6.09,2.11-12.57,1.82-18.84,2.89-6.57,1.11-11.87,3.63-15.72,9.07-3,1.12-2.83-1-2.69-2.77.12-1.58,1.41-2.54,2.44-3.6,2.25-1.75,3.14-3.35-.22-5-1.79-.86-3.45-2-5.45-2.37-4-.63-6.09,2-5.1,6.35.69,3.83-1.14,5.22-4.75,4.89-1.06-.44-2.1-.9-2.06-2.32C473.46,128.85,469.61,126.73,471.88,125.54Z"/><path class="cls-3" d="M523.59,122.88c-6.23-3.52-12.52-1.33-18.68.07-4.64,1-8.58,1.16-12.66-2-4.25-3.34-9-6.41-15-3.83-1.5-1.41-.94-3-.47-4.62a43.81,43.81,0,0,1,42-32.27c19-.2,34.83,10.23,42.25,29.24.81,2.08,2,4.26.88,6.67a2.49,2.49,0,0,1-2.07,1.2c-4.65-.25-8.41,1.74-11.6,4.8-3.8,3.65-7.87,5.22-12.94,2.82-1-.49-2.31-.26-3.27-1l.13,0c-2-1.39-4.75.06-6.69-1.64Z"/><path class="cls-32" d="M496.56,180.16a11.29,11.29,0,0,1-11.13-11.08c-.08-6.09,5.7-11.57,12-11.4a11.06,11.06,0,0,1,10.66,11.44C508.08,175.46,503.11,180.21,496.56,180.16Z"/><path class="cls-32" d="M549,157.94a11,11,0,0,1,10.78,10.77,11.37,11.37,0,0,1-11.52,11.23,11,11,0,0,1-11-11.11C537.31,162.57,542.41,157.84,549,157.94Z"/><path class="cls-33" d="M564.2,126c-1.76,1.88.35,2.55,1,3.83.74,1.44.75,3.27,1.07,4.93-2.11,2.65-.74,5.77-1.18,8.65-.2,1.34.77,3.4-1.25,3.77-1.49.27-1.9-1.62-2.44-2.76-1.79-3.77-3.76-7.41-7.16-10a18.28,18.28,0,0,0-3.07-1.52c-1.3-1.74-3.37-3-3.34-5.57,1.75-5.7,3.17-6.77,8.51-6.93C560.45,120.3,563.46,121.52,564.2,126Z"/><path class="cls-34" d="M473.26,132.37c2.31-.45,3.89-1.55,3.74-4.18.15-4.32,2.48-6.38,6.39-5.27,3.23.92,6,2.69,7,6.2a26.68,26.68,0,0,0-3,3.7c-.82,1.47-.42,2.53,1.61,2-6.57,3.86-9.41,10.29-11.74,17.07-3,.11-3.88-1.57-4.23-4.27-.63-4.78.41-9.51.11-14.27a4.74,4.74,0,0,0,.16-.65A1.17,1.17,0,0,0,473.26,132.37Z"/><path class="cls-35" d="M549,128.33c.54,1.63,3,2.33,2.21,4.59l-19.12-9c7.49,1.89,13.56-.39,19.08-5.7,2.81-2.71,6.89-3,10.8-2.1,1.58,1.82,5.68,2.25,3.42,6.2-3.85-1.39-7.79-3.07-11.81-1.06C550.81,122.6,546.89,123.66,549,128.33Z"/><path class="cls-36" d="M473.18,133.37c2.17,3.61.66,7.59,1,11.37.25,3,.65,5.39,3.13,7.17q-1.65,7.41-3.32,14.81c-.22,1-.52,1.93-1.83,1.87-1.41-5.53,2.11-10.92.48-16.45-.41-3.79-1.32-7.54-1-11.4C472,138.26,471.24,135.53,473.18,133.37Z"/><path class="cls-37" d="M522.88,187.79a17.43,17.43,0,0,1-2.84-.29c-1.74-.5-4.47-.09-4.08-3.08.42-3.26,2.8-1.9,4.56-1.45a7.1,7.1,0,0,0,4.33-.18c1.68-.62,3.37-1.07,3.87,1.28.45,2.11-1,2.89-2.84,3.19C524.76,187.44,523.63,187.65,522.88,187.79Z"/><path class="cls-38" d="M499.87,145.14c1.88.31,4.16.48,4,2.85-.13,2.63-2.35,1.41-3.88,1.41-2.27,0-4.07,1.19-5.81,2.54-.61.48-1.48,1-2.25.26-.92-.83-.6-1.8-.05-2.7C493.74,146.51,496.71,145.61,499.87,145.14Z"/><path class="cls-39" d="M554.53,151c-3.5-2.33-6.49-5.46-11-4.76a1.08,1.08,0,0,1-.93-1.44A3.8,3.8,0,0,1,544.1,143C548.26,141,554.5,145.5,554.53,151Z"/><path class="cls-35" d="M525.5,122.3a32.5,32.5,0,0,0,5.36-.92c3.73-1.14,1.65,1.27,1.33,2.56C529.52,125.18,527,125.66,525.5,122.3Z"/><path class="cls-40" d="M549,128.33c-3.33-1.14-3.88-2.55-.69-4.76,2.7-1.89,5.3-3.85,8.54-4.8,3.84-1.12,6.83-.43,8.54,3.52-.11.58-.26,1.17.46,1.51.28,1.33-.74,1.72-1.62,2.22-1.54-1.22-2.92-2.76-4.64-3.6C554.88,120.12,550.91,122.44,549,128.33Z"/><path class="cls-41" d="M490.41,129.12c-1.73-.25-2.89-1.42-4.16-2.5-4.37-3.69-6.16-3.36-9.25,1.57-1-.13-2.37.05-2.55-1.06-.85-5,5.37-9.68,10.28-7.79a8.76,8.76,0,0,1,1.34.66l9,5.25C493.76,127,492.77,128.76,490.41,129.12Z"/><path class="cls-42" d="M504.32,165.38a3.44,3.44,0,0,1-3.69,3.45c-2.18,0-3.6-1.37-3.63-3.82s1.33-3.76,3.59-3.71S504.25,162.63,504.32,165.38Z"/><path class="cls-43" d="M552.52,168.59c-2.23-.28-3.7-1.27-3.7-3.76s1-3.87,3.43-3.88a3.54,3.54,0,0,1,3.81,3.69C556.18,167,554.79,168.25,552.52,168.59Z"/><path class="cls-44" d="M544.12,123.68S561,109.9,565.37,117.5c1.09,2.86,1.55,4,1.55,4l.23,2.6-3.32,2.38-14.48,1.75Z"/><path class="cls-44" d="M494.71,209.08a17.14,17.14,0,0,1,2.17-5.23c2.95-4.65,3.25-4.83,9.47-4.89-3.57-1-7-1.16-10.28-1.81-7.5-1.45-13-5.86-17.75-11.5l.09.07c-.45-1-.9-2.1-2.38-1.42-.73-1.08-.29-2.55-1.27-3.54-.51-3.32-2.39-6.17-3.18-9.4L470.14,168c1.29-6.2,2.56-12.41,4.24-18.52,2.46-6.61,5.64-12.74,11.72-16.86,3-4.56,7.93-6.74,12-10l0,.89c.87.71,1.63.11,2.48-.1,7.38-1.82,14.81-3.32,22.48-2.27l2.34-.75a10.47,10.47,0,0,0,5.35,1.53h1.52a64.45,64.45,0,0,1,16.86,7.26,5.12,5.12,0,0,0,3.25.66c2.33.36,3.67,2,5.05,3.71a53.07,53.07,0,0,1,7.08,11.1c.77-5-.6-10.14.84-15.08,1.2-1,2.42-1.94,4.14-1.57l.11,1.08c.17,1.32-1.68,2.18-.86,3.63a6.28,6.28,0,0,1,0,.75,61.76,61.76,0,0,1-.71,16.46c-.16,1.09-.05,2.58-1.37,2.84s-.78.94-.59,1.51c1.79,5.27,2.07,10.79,2.62,16.28l-.8,1.68c-1.09,2.08-.78,4.62-2.17,6.59l-.81,1.67c-1.15,2.07-2.67,7.53-3.94,8.38A58,58,0,0,1,548.66,196a25.46,25.46,0,0,1-11.61,1.82c4.64-1.08,7.06,2.3,9.27,6.14,1.52,2.63,1.81,5.77,3.48,8.33L549,213.7c-.35,1.72-.73,3.44.8,4.86l-1.44,2.12c-2.17.51-2.9,2.68-4.52,3.83-2.28,1.63-4.47,3.5-7.51,1.77-.79-.45-1.43-.05-2.17.19-5.74,1.89-7.19.89-8-5.46a3.17,3.17,0,0,0,0,.87c.54,6.64.47,6.75-5.86,6.61-4.41-.11-4.89-.62-4.79-5.17V219.9c0-.5-.58-.16-.08-.23,0,0,.07.11.06.36a26.83,26.83,0,0,1-.09,3.8c-.3,1.78-.79,3.57-2.72,4.21s-3.44-.24-4.82-1.48a18.79,18.79,0,0,0-2.14-2.28c-1.08,3.28-3.32,2.86-5.68,1.74-2.71-1.29-3.89-3.86-5.07-6.39a7.6,7.6,0,0,1-.33-1.47c-.19,1.35.92,2.39.61,3.66"/><path class="cls-45" d="M565.83,129.16c0,5.17-.07,10.35-.13,15.52,0,1,.2,2.33-1.09,2.44-1.08.09-.86-1.25-1.19-2-2.55-5.91-5.62-11.44-11.39-14.89-2.17-.14-2.61-1.83-3.11-3.47,1.17-3.26,2.71-6.35,6.47-7.09,4.44-.86,7,1.88,8.91,5.43,1.53,1.65,2.94-.91,4.44-.12h.77C569.59,127.53,567.49,128.14,565.83,129.16Z"/><path class="cls-45" d="M486.66,133.6c-2.92.37-4,2.93-5.4,4.88a39,39,0,0,0-6,10.81,1.33,1.33,0,0,1-1.72-.09c-1.46-2.83-.54-5.87-.78-8.81-.23-2.58.49-5.21-.54-7.72a1.94,1.94,0,0,1-.74-1.42l.09-.85c.6-1,1.36-.75,2.08-.46-.36-.86-2.63-.09-2.08-2.06a.66.66,0,0,1,0-.44c.55-.71,1.31-.45,2-.36,1.69.21.23-.87.51-1.25,2.12-4.88,5.6-6,9.82-3a32.64,32.64,0,0,1,5,4c.79,1.41-.32,2.25-1,3.18A4.49,4.49,0,0,0,486.66,133.6Z"/><path class="cls-46" d="M494.91,221.69a3,3,0,0,1,.16-2.57c1.76,1,2,3.08,3.36,4.38,1.79,1.73,3.76,2.87,6.38,2.53.54-1.62-1.52-3,0-4.88a55,55,0,0,0,4,4.88c2.64,2.67,4.72,2,5.54-1.62.28-1.23.3-2.51.54-3.75s0-2.53,1.52-3.66a47.63,47.63,0,0,1-.08,7.31c-.45,2.86.75,3.59,3.22,3.43a17.17,17.17,0,0,1,2.27-.07c3.1.23,4.49-.68,3.6-4.18a6.76,6.76,0,0,1,1.44-6.46c.17,2,.2,4,.55,6,.66,3.89,2.26,4.65,5.8,2.89,1.42-.71,2.82-1.48,4.72-2.48-1.09,2.47-.5,3.05,1.55,2.5,3-.81,4.83-3.06,6.77-5.24.51-.57,1.34-2.71,2.17-.09-2.72,5.67-7.31,7.38-13.4,8a111.2,111.2,0,0,1-11.4.64c-5.36,0-10.64,1-16.36-.38-4.79-1.17-7.28-2-9.15-3.61a17.27,17.27,0,0,1-3.14-3.63"/><path class="cls-47" d="M492.65,210.53a24.48,24.48,0,0,1,6.21-11.07c-8.36-2.69-17.13-4.34-20.55-13.8a2.88,2.88,0,0,1,2.5,1.42c5.24,6.65,12.6,8.91,20.55,10l6.38.86a1.17,1.17,0,0,1,1.17,1.17v0c0,.75-.62,1-1.32,1a5.34,5.34,0,0,0-1.13,0c-1.92.4-4-1.47-5.74.26a18.34,18.34,0,0,0-4.76,7.64c-.5,1.66-.54,3.49-1.79,4.92"/><path class="cls-48" d="M548.9,126.74l3.11,3.47c-.75,1.46-1.7.59-2.49.13a78.8,78.8,0,0,0-16.37-7.4c-.36-.12-.57-.7-.85-1.09,3.66-.67,7.53,2.21,10.56.77s5.37-4.48,8.41-6.29c3.41-2,7-3.73,11.08-2.08,3.34,1.34,5.39,3.55,4.65,7.49-1.08-2.45-1.55-5.36-4.92-5.83a12.93,12.93,0,0,0-7.69,1.47,41.46,41.46,0,0,0-9.36,6.94Z"/><path class="cls-47" d="M549.77,212.28c-1.73,0-1.77-1.57-2.22-2.65-.64-1.51-1-3.15-1.71-4.6-1.85-3.61-3.75-7.19-8.93-6.27a3.19,3.19,0,0,1-3.8-1.72c2.22,0,4,.08,5.76,0a32.36,32.36,0,0,0,17.55-6.28c1.35-1,2.48-2.71,4.6-2-1.89,4.56-6.08,6.15-10.17,7.79-2.22.88-4.55,1.45-6.89,2.17C546.8,203,550.49,206.67,549.77,212.28Z"/><path class="cls-49" d="M473.91,149.33l1.36,0c-1,6.17-3.26,12.06-3.9,18.32-.07.71-.8.3-1.25.35-.21-3.14-.39-6.3.57-9.34,1.9-5.94-1.56-11.52-1-17.37.32-3.4-.66-7,1.83-10l.67.55c1.63,1.85.58,4.09.86,6.13C473.54,141.72,472,145.66,473.91,149.33Z"/><path class="cls-50" d="M568.76,170.5c-1.91-.55-1.36-2.17-1.45-3.44-.19-2.64-.35-5.25-.77-7.87s-2.45-4.73.07-8.06c1.86-2.46,1-7.06,1.23-10.67.16-2.37-.15-4.79,1-7.05,1.57,1.08,1.46,2.81,1.56,4.42a27.56,27.56,0,0,1-1,10.5c-1.81,5.39-1.3,10.54-.1,15.87A8.66,8.66,0,0,1,568.76,170.5Z"/><path class="cls-48" d="M471.51,125c.18-10,6.33-13.57,15-8.68,2.94,1.67,6,3.25,7.79,6.33l-.43.35c-1.95.63-3.32-.67-4.83-1.49-2.4-1.29-4.58-3.06-7.35-3.67-3.54-.8-5.42.19-6.77,3.56-.62,1.54-.54,3.64-2.91,3.84Z"/><path class="cls-51" d="M523.09,121.09a4.46,4.46,0,0,1-2.88.77c-6.51-.18-12.8,1.08-19.12,2.35-.9.18-2.53,1.57-3-.75,6.3-3.43,13.14-4.23,20.16-4C520,119.55,521.88,119.41,523.09,121.09Z"/><path class="cls-52" d="M486.66,133.6c-2.09-.66-1.08-1.95-.43-2.89a35.71,35.71,0,0,1,2.94-3.33c1-2.41,3-3.68,5.18-4.8l-.06.11c.72-.42,1.42-.87,2.17-1.26,1.26-.66,1.88-.36,1.63,1.15C495.62,127.63,488.94,128.34,486.66,133.6Z"/><path class="cls-50" d="M568.72,125c-1.49-.26-2.83,4.93-4.44.12,2.3-.44,2.87-3,4.73-4.07C570.24,122.57,569.09,123.72,568.72,125Z"/><path class="cls-53" d="M474.56,126.38l1.19,1.31a3.39,3.39,0,0,1-1.27.38,29.56,29.56,0,0,1-2.91-.62l-1.27-.81c-.81-.58-2.17-1.31-1.57-2.23.93-1.4,1.9,0,2.78.63l-.06-.11C472.43,125.52,473.83,125.25,474.56,126.38Z"/><path class="cls-54" d="M549.81,218.52q-3.84-2-.79-4.85C551.41,214.94,549.85,216.86,549.81,218.52Z"/><path class="cls-48" d="M531.41,121.88c-2.22,1-4.89,1.35-6-1.53C530.46,121.72,535.27,115,531.41,121.88Z"/><path class="cls-55" d="M476.11,184.12l2.08-1.39c1.21,1-.43,2.08.21,3-1.17-.05-1.34,2.17-2.71,1.3-.41-.26-.27-1.38-.39-2.1A1,1,0,0,1,476.11,184.12Z"/><path class="cls-56" d="M565.83,129.16l3.66-4.18c2,1-.18,2,0,3C568.38,128.61,567.55,130.26,565.83,129.16Z"/><path class="cls-50" d="M568.77,132.67c-1.21,0-3,.45-1.28-1.67a17.93,17.93,0,0,1,2.14-1.95C572.21,130.94,569.14,131.49,568.77,132.67Z"/><path class="cls-50" d="M567.63,182.85c-.48-1.44-5.69-.15-2.22-3.86,1.47,1.81,4,1.09,5.83,2.23C570.44,183,568.89,182.59,567.63,182.85Z"/><path class="cls-56" d="M562.53,182.3l5.43,1.24c.09,2.21-1.84.78-2.61,1.44C564.25,184.28,562.4,184.34,562.53,182.3Z"/><path class="cls-50" d="M560.86,186.56c-.61-1.05-1.81-2.41.86-1.92a17.53,17.53,0,0,1,2.72,1C564,188.76,562.08,186.32,560.86,186.56Z"/><path class="cls-50" d="M470.49,178.09c.59-1.39,5.68.28,2.5-3.68-1.62,1.7-4.08.79-6,1.78C467.66,178.08,469.25,177.74,470.49,178.09Z"/><path class="cls-56" d="M475.59,177.93l-5.51.82c-.25,2.2,1.78.92,2.5,1.63C473.75,179.78,475.58,180,475.59,177.93Z"/><path class="cls-50" d="M477,182.3c.69-1,2-2.26-.72-2a18,18,0,0,0-2.79.75C473.63,184.25,475.75,182,477,182.3Z"/><path class="cls-57" d="M471.58,127.87c.41,1.13,2.57.54,2.3,2-.16.94-1.52.29-2.31.54-.9-.31-2.29-.36-2.31-1.46C469.23,127.42,470.78,128.23,471.58,127.87Z"/><path class="cls-58" d="M495.08,179.78A11.42,11.42,0,0,1,484,168.2c.07-5.91,5.91-11.39,12-11.31a11.45,11.45,0,0,1,11,11.74C506.91,174.94,501.73,179.84,495.08,179.78Z"/><path class="cls-58" d="M537.55,168.34A11.48,11.48,0,0,1,549.38,157a11.16,11.16,0,0,1,10.72,11.11,11.38,11.38,0,0,1-11.24,11.46A11.13,11.13,0,0,1,537.55,168.34Z"/><path class="cls-59" d="M515.41,185.67a2.34,2.34,0,0,1,1-3c1.08-.66,3.25.55,5.29,1,1.75.38,5.72-3.12,6.48.18.68,2.94-2.32,3.43-5.27,3.49S516.12,187.18,515.41,185.67Z"/><path class="cls-49" d="M490.36,149c1.44-3.41,7.57-5.81,10.79-4.27a2.33,2.33,0,0,1,1.56,2.35,1.5,1.5,0,0,1-2,1.16c-3.33-.89-5.88.27-8.13,2.66-.55.6-1.36,1.37-2.25.49S490.14,149.69,490.36,149Z"/><path class="cls-60" d="M545.61,141.45c3.68-.51,8.86,2.94,9.73,6.51.12.46.18,1.16-.08,1.42-.54.55-1.21.23-1.63-.28-2.54-3.14-5.46-5.2-9.8-4a1,1,0,0,1-1.14-.71,1,1,0,0,1,0-.43A3,3,0,0,1,545.61,141.45Z"/><path class="cls-61" d="M495.07,219.12l-.16,2.57c-1.25-1,.15-3-1.63-3.85-.75-.37.13-1,.62-1.34a1.72,1.72,0,0,1,2.09-.22c.68.5.13,1.05-.22,1.56A12.19,12.19,0,0,0,495.07,219.12Z"/><path class="cls-61" d="M496.24,214.7c-1.93,1.34-3.08,1.19-4-.24a1,1,0,0,1,.12-1C494.07,212.58,494.58,214.38,496.24,214.7Z"/><path class="cls-44" d="M474.56,126.38c-1.27,0-2.13-.85-3.11-1.48,2-.31,2-2,2.44-3.4,1.82-5.17,4.54-6.43,9.55-4.09,2.48,1.16,4.76,2.74,7.15,4.11,1.16.67,2.22,1.77,3.77,1-1.66,1.68-2.76,4-5.19,4.8-2.17-.5-3.58-2.24-5.27-3.46C479.6,120.79,476.87,121.44,474.56,126.38Z"/><path class="cls-44" d="M473.91,149.33c-2,0-1.42-1.68-1.46-2.55-.21-5-.21-10-.29-15,2.44-1,1.56,1,1.58,1.85C473.87,138.88,473.87,144.1,473.91,149.33Z"/><path class="cls-62" d="M503.39,164.52c-.55,2.25-1.81,3.74-4.18,3.61a3.55,3.55,0,0,1-3.54-4.06,3.45,3.45,0,0,1,4-3.54C502.1,160.65,503,162.36,503.39,164.52Z"/><path class="cls-63" d="M552.79,160c2.46.39,3.8,1.7,3.75,4.1a3.55,3.55,0,0,1-3.85,3.8c-2.33-.06-3.69-1.57-3.63-4S550.63,160.36,552.79,160Z"/></svg>