<svg id="Layer_1" data-name="Layer 1" xmlns="http://www.w3.org/2000/svg" viewBox="0 0 288 288"><defs><style>.cls-1,.cls-32{fill:#f4f2ef;}.cls-2{fill:#f7d0da;}.cls-3{fill:#3c332f;}.cls-4{fill:#3e3632;}.cls-5{fill:#3f3733;}.cls-6{fill:#403733;}.cls-7{fill:#423a36;}.cls-8{fill:#403833;}.cls-9{fill:#433b38;}.cls-10{fill:#463c3b;}.cls-11{fill:#524b47;}.cls-12{fill:#423c38;}.cls-13{fill:#4c4643;}.cls-14{fill:#4a413f;}.cls-15{fill:#3e3530;}.cls-16{fill:#443c38;}.cls-17{fill:#59534f;}.cls-18{fill:#f6f4f3;}.cls-19{fill:#f2f1ef;}.cls-20{fill:#070606;}.cls-21{fill:#facbcc;}.cls-22{fill:#facccc;}.cls-23{fill:#e32025;}.cls-24{fill:#c89c7d;}.cls-25{fill:#066bb3;}.cls-26{fill:#a3ce4c;}.cls-27{fill:#ef4975;}.cls-28{fill:#f6e21c;}.cls-29{fill:#a17e65;}.cls-30{fill:#eb9b3a;}.cls-31{fill:#939393;}.cls-32{stroke:#333;stroke-miterlimit:10;stroke-width:4px;}</style></defs><title>Art</title><path class="cls-1" d="M182.72,54s31.07-25.39,39.16-11.38c2,5.26,2.86,7.29,2.86,7.29l.42,4.8L219,59.07l-26.69,3.24Z"/><path class="cls-1" d="M91.62,211.37a32.29,32.29,0,0,1,4-9.65c5.45-8.56,6-8.89,17.46-9-6.58-1.89-12.84-2.15-18.94-3.34-13.82-2.68-24-10.8-32.71-21.2l.16.13c-.83-1.92-1.65-3.87-4.38-2.61-1.36-2-.54-4.7-2.34-6.52-.94-6.12-4.42-11.38-5.87-17.32l-2.65-6.3c2.38-11.42,4.71-22.86,7.81-34.12C58.72,89.27,64.59,78,75.8,70.39,81.28,62,90.4,58,97.88,52L98,53.59c1.59,1.31,3,.19,4.57-.19,13.6-3.36,27.28-6.12,41.42-4.19l4.31-1.37c3,2,6.37,2.59,9.86,2.82h2.81A118.77,118.77,0,0,1,192,64a9.55,9.55,0,0,0,6,1.23c4.28.66,6.76,3.74,9.3,6.83a97.87,97.87,0,0,1,13.05,20.44c1.41-9.3-1.1-18.68,1.54-27.78,2.21-1.87,4.47-3.58,7.64-2.9l.2,2c.32,2.42-3.1,4-1.58,6.68a10.32,10.32,0,0,1,.06,1.39c1.23,10.18.19,20.27-1.3,30.33-.3,2-.1,4.75-2.52,5.23s-1.44,1.74-1.09,2.78c3.3,9.72,3.81,19.89,4.83,30l-1.5,3.06c-2,3.83-1.44,8.5-4,12.14l-1.49,3.07c-2.12,3.82-4.92,13.89-7.26,15.44A107.32,107.32,0,0,1,191,187.28a47,47,0,0,1-21.4,3.35c8.55-2,13,4.23,17.08,11.31,2.8,4.86,3.33,10.63,6.41,15.35l-1.39,2.55c-.66,3.17-1.35,6.34,1.46,8.95l-2.65,3.91c-4,.95-5.34,4.95-8.33,7.07-4.2,3-8.23,6.44-13.83,3.25-1.46-.83-2.65-.08-4,.36-10.59,3.48-13.26,1.63-14.66-10.06a5.79,5.79,0,0,0,0,1.6c1,12.24.87,12.44-10.8,12.17-8.12-.19-9-1.14-8.82-9.53,0-2.1,0-4.19,0-6.29,0-.93-1.07-.3-.15-.43.07,0,.12.21.11.66a47.44,47.44,0,0,1-.17,7c-.54,3.28-1.46,6.58-5,7.77s-6.34-.44-8.89-2.74c-1.37-1.24-2.2-3-3.94-4.2-2,6.05-6.13,5.28-10.47,3.21-5-2.38-7.17-7.11-9.35-11.78a14.26,14.26,0,0,1-.6-2.71c-.36,2.5,1.7,4.41,1.12,6.75"/><path class="cls-2" d="M222.73,64.09c-.08,9.53-.14,19.07-.25,28.6,0,1.78.38,4.3-2,4.5-2,.16-1.58-2.3-2.19-3.71-4.7-10.89-10.37-21.08-21-27.44-4-.25-4.81-3.37-5.73-6.39,2.16-6,5-11.71,11.92-13.06,8.18-1.59,12.87,3.46,16.42,10,2.82,3.05,5.42-1.68,8.19-.22l1.42,0C229.68,61.08,225.79,62.22,222.73,64.09Z"/><path class="cls-2" d="M76.83,72.27c-5.39.69-7.32,5.41-9.95,9-4.48,6.14-8.65,12.55-11.05,19.9a2.45,2.45,0,0,1-3.17-.16c-2.68-5.21-1-10.81-1.43-16.23-.42-4.75.89-9.61-1-14.24a3.57,3.57,0,0,1-1.37-2.61L49,66.35c1.1-1.75,2.5-1.38,3.84-.85C52.2,63.92,48,65.34,49,61.71a1.16,1.16,0,0,1,0-.81c1-1.32,2.4-.83,3.67-.67,3.12.38.43-1.61.94-2.3,3.92-9,10.33-11,18.1-5.6A60.3,60.3,0,0,1,81,59.66c1.46,2.61-.59,4.16-1.89,5.86C77.55,67.54,76.38,69.61,76.83,72.27Z"/><path class="cls-3" d="M92,234.63c-.35-1.61-.79-3.22.3-4.74,3.25,1.78,3.72,5.68,6.2,8.07,3.29,3.18,6.92,5.29,11.75,4.67,1-3-2.79-5.61,0-9,2.5,3.14,4.64,6.35,7.31,9,4.87,4.92,8.7,3.75,10.22-3,.51-2.26.56-4.62,1-6.91s0-4.65,2.79-6.73c0,4.87.54,9.26-.14,13.46-.84,5.27,1.38,6.62,5.93,6.33a30.77,30.77,0,0,1,4.18-.13c5.72.41,8.28-1.25,6.64-7.71a12.47,12.47,0,0,1,2.66-11.91c.31,3.69.36,7.41,1,11,1.22,7.18,4.18,8.58,10.69,5.34,2.63-1.31,5.2-2.73,8.7-4.58-2,4.55-.91,5.62,2.86,4.61,5.57-1.49,8.9-5.64,12.47-9.65.94-1.06,2.48-5,4-.18-5,10.45-13.47,13.61-24.69,14.79a199.67,199.67,0,0,1-21,1.17c-9.89,0-19.61,1.89-30.16-.69-8.82-2.15-13.42-3.77-16.86-6.66A31.65,31.65,0,0,1,92,234.62"/><path class="cls-4" d="M87.87,214c2.52-8.53,5.9-14.9,11.44-20.4-15.41-4.95-31.58-8-37.88-25.43,2.12-.15,3.44,1.13,4.61,2.62,9.65,12.26,23.22,16.43,37.87,18.39,3.92.52,7.84,1.06,11.76,1.58a2.16,2.16,0,0,1,2.15,2.25c0,1.39-1.13,1.87-2.42,1.86a10,10,0,0,0-2.09,0c-3.53.74-7.41-2.71-10.58.49A33.79,33.79,0,0,0,94,209.46c-.91,3.06-1,6.43-3.3,9.08"/><path class="cls-5" d="M191.53,59.64,197.26,66c-1.38,2.69-3.12,1.09-4.58.24a145.14,145.14,0,0,0-30.17-13.65c-.66-.21-1.05-1.29-1.57-2,6.75-1.24,13.88,4.07,19.46,1.42s9.9-8.25,15.5-11.59c6.29-3.75,12.85-6.87,20.43-3.83,6.15,2.47,9.92,6.53,8.57,13.8-2-4.51-2.87-9.88-9.08-10.74a23.75,23.75,0,0,0-14.19,2.7C195.38,45.6,190,50,184.36,55.23Z"/><path class="cls-4" d="M193.13,217.29c-3.19-.09-3.26-2.9-4.1-4.89-1.17-2.78-1.78-5.81-3.14-8.47-3.41-6.66-6.91-13.25-16.46-11.57-1.88.33-4.69.73-7-3.17,4.09,0,7.36.15,10.61,0a59.52,59.52,0,0,0,32.35-11.57c2.49-1.8,4.56-5,8.47-3.62-3.48,8.39-11.21,11.33-18.75,14.34-4.08,1.63-8.38,2.69-12.69,4C187.64,200.07,194.46,206.94,193.13,217.29Z"/><path class="cls-6" d="M53.33,101.26l2.51-.08c-1.83,11.37-6,22.24-7.19,33.77-.13,1.31-1.47.56-2.29.64-.4-5.78-.73-11.6,1.05-17.21,3.49-10.94-2.89-21.22-1.9-32,.58-6.27-1.22-12.91,3.37-18.43l1.23,1c3,3.42,1.07,7.54,1.58,11.31C52.64,87.24,49.83,94.49,53.33,101.26Z"/><path class="cls-7" d="M228.13,140.27c-3.53-1-2.51-4-2.68-6.34-.35-4.85-.65-9.67-1.42-14.5s-4.51-8.71.14-14.86c3.43-4.53,1.8-13,2.26-19.65.3-4.37-.28-8.84,1.79-13,2.89,2,2.69,5.19,2.88,8.14.41,6.54.26,13.3-1.77,19.36-3.34,9.94-2.41,19.42-.19,29.25C230,132.43,230.25,136.57,228.13,140.27Z"/><path class="cls-5" d="M48.91,56.44c.33-18.45,11.66-25,27.62-16,5.43,3.08,11,6,14.37,11.68l-.8.64C86.5,54,84,51.58,81.21,50.06c-4.43-2.43-8.45-5.65-13.53-6.81-6.53-1.48-10,.34-12.48,6.56-1.14,2.83-1,6.7-5.37,7.08Z"/><path class="cls-8" d="M144,49.22a8.08,8.08,0,0,1-5.3,1.41c-12-.33-23.6,2-35.25,4.33-1.65.34-4.65,2.91-5.44-1.37,11.61-6.33,24.21-7.8,37.14-7.35C138.27,46.35,141.73,46.12,144,49.22Z"/><path class="cls-9" d="M76.83,72.27c-3.85-1.22-2-3.59-.8-5.32a64.64,64.64,0,0,1,5.41-6.14C83.26,56.37,87,54,91,52l-.11.21c1.32-.78,2.62-1.6,4-2.32,2.32-1.23,3.45-.66,3,2.11C93.33,61.28,81,62.58,76.83,72.27Z"/><path class="cls-7" d="M228.06,56.34c-2.75-.47-5.22,9.09-8.19.22,4.23-.81,5.29-5.55,8.72-7.5C230.86,52,228.75,54.07,228.06,56.34Z"/><path class="cls-10" d="M54.53,59l2.19,2.38a6.32,6.32,0,0,1-2.34.7c-1.8-.22-3.57-.74-5.35-1.14-.79-.5-1.6-1-2.35-1.5-1.49-1.06-4-2.41-2.89-4.1,1.71-2.58,3.51.09,5.12,1.15l-.1-.2C50.59,57.42,53.18,56.88,54.53,59Z"/><path class="cls-11" d="M193.21,228.78q-7.07-3.69-1.46-8.95C196.17,222.18,193.28,225.71,193.21,228.78Z"/><path class="cls-5" d="M159.3,50.67c-4.08,1.84-9,2.5-11-2.82C157.55,50.35,166.41,38,159.3,50.67Z"/><path class="cls-12" d="M57.38,165.33l3.84-2.56c2.22,1.75-.8,3.82.38,5.56-2.16-.1-2.47,4-5,2.39-.75-.47-.5-2.53-.71-3.86A1.83,1.83,0,0,1,57.38,165.33Z"/><path class="cls-13" d="M222.73,64.09l6.75-7.73c3.66,1.8-.34,3.67.05,5.5C227.42,63.07,225.91,66.12,222.73,64.09Z"/><path class="cls-7" d="M228.15,70.56c-2.24.07-5.49.82-2.36-3.08a33.16,33.16,0,0,1,3.94-3.6C234.48,67.36,228.84,68.37,228.15,70.56Z"/><path class="cls-7" d="M226,163c-.89-2.64-10.48-.27-4.09-7.1,2.72,3.33,7.39,2,10.74,4.11C231.23,163.41,228.36,162.56,226,163Z"/><path class="cls-13" d="M216.69,162l10,2.27c.16,4.08-3.39,1.44-4.81,2.66C219.81,165.67,216.41,165.79,216.69,162Z"/><path class="cls-7" d="M213.57,169.87c-1.13-1.93-3.33-4.44,1.59-3.54a33.16,33.16,0,0,1,5,1.76C219.4,173.92,215.82,169.43,213.57,169.87Z"/><path class="cls-7" d="M47,154.27c1.09-2.56,10.47.52,4.62-6.77-3,3.12-7.52,1.45-11,3.28C41.81,154.25,44.74,153.62,47,154.27Z"/><path class="cls-13" d="M56.42,154l-10.15,1.51c-.47,4.05,3.27,1.7,4.6,3C53,157.37,56.41,157.74,56.42,154Z"/><path class="cls-7" d="M58.93,162c1.27-1.84,3.65-4.17-1.32-3.65a33.16,33.16,0,0,0-5.15,1.37C52.82,165.63,56.72,161.42,58.93,162Z"/><path class="cls-14" d="M49,61.71c.75,2.09,4.73,1,4.25,3.65-.31,1.73-2.81.54-4.26,1-1.67-.57-4.22-.67-4.26-2.7C44.72,60.88,47.57,62.36,49,61.71Z"/><path class="cls-15" d="M92.34,157.36C81,157.24,71.75,147.55,71.89,136c.13-10.9,10.89-21,22.18-20.84s20.37,10,20.22,21.63S104.59,157.49,92.34,157.36Z"/><path class="cls-15" d="M170.6,136.29c-.11-11.53,9.79-21,21.81-20.84,10.71.13,19.64,9.39,19.75,20.48A20.94,20.94,0,0,1,191.46,157C179.92,157.25,170.71,148.09,170.6,136.29Z"/><path class="cls-6" d="M83.63,100.57c2.64-6.3,13.94-10.71,19.88-7.87,1.8.86,3.09,2.28,2.88,4.33s-2.31,2.51-3.74,2.13c-6.14-1.63-10.84.5-15,4.91-1,1.1-2.5,2.52-4.14.89C82.12,103.53,83.24,101.92,83.63,100.57Z"/><path class="cls-16" d="M185.47,86.75c6.78-.94,16.33,5.41,17.94,12,.21.84.32,2.14-.15,2.62-1,1-2.24.42-3-.52-4.68-5.78-10.07-9.59-18.06-7.39a1.75,1.75,0,0,1-2.1-2.1C180.59,88.34,182.67,87.1,185.47,86.75Z"/><path class="cls-17" d="M92.33,229.88l-.3,4.74c-2.29-1.77.28-5.48-3-7.11-1.38-.68.24-1.83,1.14-2.46,1.21-.84,2.61-1.33,3.86-.41s.24,1.94-.4,2.87A22.7,22.7,0,0,0,92.33,229.88Z"/><path class="cls-17" d="M94.48,221.73c-3.55,2.47-5.68,2.2-7.33-.44a1.89,1.89,0,0,1,.22-1.79C90.49,217.83,91.42,221.14,94.48,221.73Z"/><path class="cls-1" d="M54.53,59c-2.34,0-3.93-1.56-5.72-2.72,3.6-.58,3.61-3.72,4.49-6.26,3.32-9.55,8.38-11.86,17.59-7.54,4.57,2.14,8.78,5.05,13.17,7.58C86.21,51.26,88.15,53.28,91,52c-3.05,3.09-5.08,7.3-9.56,8.85-4-.93-6.59-4.13-9.71-6.39C63.82,48.67,58.8,49.86,54.53,59Z"/><path class="cls-1" d="M53.33,101.26c-3.63,0-2.61-3.09-2.68-4.69-.39-9.19-.4-18.39-.53-27.59,4.48-1.92,2.87,1.89,2.91,3.4C53.25,82,53.25,91.63,53.33,101.26Z"/><path class="cls-18" d="M107.63,129.26c-1,4.14-3.33,6.89-7.69,6.64s-6.75-3.2-6.54-7.47,2.89-6.75,7.37-6.53S107,125.28,107.63,129.26Z"/><path class="cls-19" d="M198.7,121c4.53.72,7,3.13,6.9,7.55s-2.8,7.1-7.09,7-6.8-2.88-6.69-7.37S194.72,121.59,198.7,121Z"/><path class="cls-20" d="M158.23,161.83c-1.16,3.5.78,3.82,3.49,3.83,5,0,7.61,1.92,8.09,5.36a8.94,8.94,0,0,1-6.15,9.44c-6.73,2.37-13.06,1.12-18.8-2.73a39.88,39.88,0,0,0-10.62-5.14,10.85,10.85,0,0,1-8.05-9c-.11-.65-.38-1.45.47-1.77s.9.46,1.24.91c7.09,9.53,20,10,28,1.08C156.52,163.1,156.93,162.14,158.23,161.83Z"/><path class="cls-21" d="M108.08,159.22a13.72,13.72,0,0,1,7.42,1.17c1.41.6,2.66,1.57,2.69,3.27s-1.24,2.26-2.5,2.77c-6.81,2.78-13.83,2.68-20.9,1.32-1.06-.2-2.35-.75-2.28-2.25a3.41,3.41,0,0,1,2.37-3C99.18,160.87,103.29,158.39,108.08,159.22Z"/><path class="cls-22" d="M184.8,169.91c-3.78.23-8.09.09-12-2.12-1.45-.82-3-1.84-2.61-3.82a3.59,3.59,0,0,1,3.55-3c6.27-.15,12.64-1,18.46,2.51,1.66,1,3.46,2.05,3.09,4s-2.46,2.42-4.41,2.38S187.21,169.91,184.8,169.91Z"/><path class="cls-23" d="M154.27,170.39c2.49-2,7.37-2.4,9.58-1.08,2.63,1.57,2.25,5.52-.82,7.43-2.79,1.74-5.88,1.72-9,1.12a8.15,8.15,0,0,1-2.19-.75c-1.39-.73-3.39-.85-3.65-2.84-.12-1,4-2.16,5.71-1.78A17.64,17.64,0,0,0,157,173c.8,0,2,.22,2.13-.91.09-.93-1-1-1.76-1.14C156.46,170.78,155.52,170.62,154.27,170.39Z"/><path class="cls-24" d="M143.09,208c3.57-19.76-8.78-38.53-27.58-41.92-18.63-3.36-36.59,9.63-40.39,29.08.35,3.86,2.28,9,9.94,9.37,6.75.37,18.14,12.09,14.06,23.73-2.05,5.84,2.92,8.84,8.29,9.87C124.4,238.7,139.83,226.08,143.09,208Z"/><circle class="cls-25" cx="104.28" cy="180.05" r="6.58" transform="translate(-101.04 213.75) rotate(-69.24)"/><circle class="cls-26" cx="123.37" cy="187.26" r="6.58" transform="translate(-95.46 236.26) rotate(-69.24)"/><circle class="cls-27" cx="129.53" cy="206.4" r="6.58" transform="translate(-109.38 254.37) rotate(-69.24)"/><circle class="cls-28" cx="117.9" cy="221.31" r="6.58" transform="translate(-130.83 253.13) rotate(-69.24)"/><circle class="cls-29" cx="89.19" cy="189.58" r="5.15" transform="translate(-119.7 205.78) rotate(-69.24)"/><path class="cls-30" d="M247.39,134.18s-20.64,39.49-29.88,29.88S247.39,134.18,247.39,134.18Z"/><path class="cls-30" d="M231.93,143.71s-5,29.78-14.41,20.35C210.46,157,231.93,143.71,231.93,143.71Z"/><path class="cls-24" d="M135.61,251.4a3.94,3.94,0,0,1-5.57,0h0a3.94,3.94,0,0,1,0-5.57l84.63-84.63a3.94,3.94,0,0,1,5.57,0h0a3.94,3.94,0,0,1,0,5.57Z"/><path class="cls-24" d="M220.23,161.21h0a3.94,3.94,0,0,1,0,5.57L135.61,251.4a3.94,3.94,0,0,1-5.57,0h0"/><polygon class="cls-31" points="212.25 174.76 206.68 169.19 215.96 156.94 224.5 165.48 212.25 174.76"/><ellipse class="cls-32" cx="90.9" cy="211.12" rx="7.71" ry="9.66"/><ellipse class="cls-32" cx="182.29" cy="203.91" rx="7.71" ry="9.66"/></svg>