<svg id="Layer_1" data-name="Layer 1" xmlns="http://www.w3.org/2000/svg" viewBox="0 0 288 288"><defs><style>.cls-1{fill:#f4f2ef;}.cls-2{fill:#f7d0da;}.cls-3{fill:#3c332f;}.cls-4{fill:#3e3632;}.cls-5{fill:#3f3733;}.cls-6{fill:#403733;}.cls-7{fill:#423a36;}.cls-8{fill:#403833;}.cls-9{fill:#433b38;}.cls-10{fill:#463c3b;}.cls-11{fill:#524b47;}.cls-12{fill:#423c38;}.cls-13{fill:#4c4643;}.cls-14{fill:#4a413f;}.cls-15{fill:#59534f;}.cls-16{fill:#070607;}.cls-17{fill:#040404;}.cls-18{fill:#030303;}.cls-19{fill:#facccc;}.cls-20{fill:#facccb;}.cls-21{fill:#111;}.cls-22{fill:#0f0f0f;}.cls-23{fill:#e22026;}.cls-24{fill:#fff;}.cls-25{fill:#f05425;}.cls-26{fill:#0b0c0c;}.cls-27{fill:#f2be17;}.cls-28{fill:#0b0d0d;}.cls-29{fill:#faeb00;}.cls-30{fill:#141514;}</style></defs><title>Contests</title><path class="cls-1" d="M190.07,62.93s31.07-25.39,39.16-11.38c2,5.26,2.86,7.29,2.86,7.29l.42,4.8L226.38,68l-26.69,3.24Z"/><path class="cls-1" d="M99,220.31a32.29,32.29,0,0,1,4-9.65c5.45-8.56,6-8.89,17.46-9-6.58-1.89-12.84-2.15-18.94-3.34-13.82-2.68-24-10.8-32.71-21.2l.16.13c-.83-1.92-1.65-3.87-4.38-2.61-1.36-2-.54-4.7-2.34-6.52-.94-6.12-4.42-11.38-5.87-17.32l-2.65-6.3c2.38-11.42,4.71-22.86,7.81-34.12C66.07,98.2,71.93,86.9,83.15,79.32c5.48-8.4,14.6-12.43,22.08-18.43l.09,1.64c1.59,1.31,3,.19,4.57-.19,13.6-3.36,27.28-6.12,41.42-4.19l4.31-1.37c3,2,6.37,2.59,9.86,2.82h2.81A118.77,118.77,0,0,1,199.35,73a9.55,9.55,0,0,0,6,1.23c4.28.66,6.76,3.74,9.3,6.83a97.87,97.87,0,0,1,13.05,20.44c1.41-9.3-1.1-18.68,1.54-27.78,2.21-1.87,4.47-3.58,7.64-2.9l.2,2c.32,2.42-3.1,4-1.58,6.68a10.32,10.32,0,0,1,.06,1.39c1.23,10.18.19,20.27-1.3,30.33-.3,2-.1,4.75-2.52,5.23s-1.44,1.74-1.09,2.78c3.3,9.72,3.81,19.89,4.83,30l-1.5,3.06c-2,3.83-1.44,8.5-4,12.14l-1.49,3.07c-2.12,3.82-4.92,13.89-7.26,15.44a107.32,107.32,0,0,1-22.81,13.3,47,47,0,0,1-21.4,3.35c8.55-2,13,4.23,17.08,11.31,2.8,4.86,3.33,10.63,6.41,15.35l-1.39,2.55c-.66,3.17-1.35,6.34,1.46,8.95l-2.65,3.91c-4,.95-5.34,4.95-8.33,7.07-4.2,3-8.23,6.44-13.83,3.25-1.46-.83-2.65-.08-4,.36-10.59,3.48-13.26,1.63-14.66-10.06a5.79,5.79,0,0,0,0,1.6c1,12.24.87,12.44-10.8,12.17-8.12-.19-9-1.14-8.82-9.53,0-2.1,0-4.19,0-6.29,0-.93-1.07-.3-.15-.43.07,0,.12.21.11.66a47.44,47.44,0,0,1-.17,7c-.54,3.28-1.46,6.58-5,7.77s-6.34-.44-8.89-2.74c-1.37-1.24-2.2-3-3.94-4.2-2,6.05-6.13,5.28-10.47,3.21-5-2.38-7.17-7.11-9.35-11.78A14.26,14.26,0,0,1,99,237c-.36,2.5,1.7,4.41,1.12,6.75"/><path class="cls-2" d="M230.08,73c-.08,9.53-.14,19.07-.25,28.6,0,1.78.38,4.3-2,4.5-2,.16-1.58-2.3-2.19-3.71-4.7-10.89-10.37-21.08-21-27.44-4-.25-4.81-3.37-5.73-6.39,2.16-6,5-11.71,11.92-13.06,8.18-1.59,12.87,3.46,16.42,10,2.82,3.05,5.42-1.68,8.19-.22l1.42,0C237,70,233.14,71.16,230.08,73Z"/><path class="cls-2" d="M84.18,81.21c-5.39.69-7.32,5.41-9.95,9-4.48,6.14-8.65,12.55-11.05,19.9A2.45,2.45,0,0,1,60,110c-2.68-5.21-1-10.81-1.43-16.23-.42-4.75.89-9.61-1-14.24a3.57,3.57,0,0,1-1.37-2.61l.14-1.59c1.1-1.75,2.5-1.38,3.84-.85-.66-1.58-4.86-.16-3.83-3.79a1.16,1.16,0,0,1,0-.81c1-1.32,2.4-.83,3.67-.67,3.12.38.43-1.61.94-2.3,3.92-9,10.33-11,18.1-5.6a60.3,60.3,0,0,1,9.26,7.32c1.46,2.61-.59,4.16-1.89,5.86C84.9,76.47,83.73,78.55,84.18,81.21Z"/><path class="cls-3" d="M99.37,243.56c-.35-1.61-.79-3.22.3-4.74,3.25,1.78,3.72,5.68,6.2,8.07,3.29,3.18,6.92,5.29,11.75,4.67,1-3-2.79-5.61,0-9,2.5,3.14,4.64,6.35,7.31,9,4.87,4.92,8.7,3.75,10.22-3,.51-2.26.56-4.62,1-6.91s0-4.65,2.79-6.73c0,4.87.54,9.26-.14,13.46-.84,5.27,1.38,6.62,5.93,6.33a30.77,30.77,0,0,1,4.18-.13c5.72.41,8.28-1.25,6.64-7.71A12.47,12.47,0,0,1,158.23,235c.31,3.69.36,7.41,1,11,1.22,7.18,4.18,8.58,10.69,5.34,2.63-1.31,5.2-2.73,8.7-4.58-2,4.55-.91,5.62,2.86,4.61,5.57-1.49,8.9-5.64,12.47-9.65.94-1.06,2.48-5,4-.18-5,10.45-13.47,13.61-24.69,14.79a199.67,199.67,0,0,1-21,1.17c-9.89,0-19.61,1.89-30.16-.69-8.82-2.15-13.42-3.77-16.86-6.66a31.65,31.65,0,0,1-5.78-6.69"/><path class="cls-4" d="M95.22,223c2.52-8.53,5.9-14.9,11.44-20.4-15.41-4.95-31.58-8-37.88-25.43,2.12-.15,3.44,1.13,4.61,2.62C83,192,96.61,196.2,111.26,198.16c3.92.52,7.84,1.06,11.76,1.58a2.16,2.16,0,0,1,2.15,2.25c0,1.39-1.13,1.87-2.42,1.86a10,10,0,0,0-2.09,0c-3.53.74-7.41-2.71-10.58.49a33.79,33.79,0,0,0-8.77,14.07c-.91,3.06-1,6.43-3.3,9.08"/><path class="cls-5" d="M198.87,68.58,204.61,75c-1.38,2.69-3.12,1.09-4.58.24a145.14,145.14,0,0,0-30.17-13.65c-.66-.21-1.05-1.29-1.57-2,6.75-1.24,13.88,4.07,19.46,1.42s9.9-8.25,15.5-11.59c6.29-3.75,12.85-6.87,20.43-3.83,6.15,2.47,9.92,6.53,8.57,13.8-2-4.51-2.87-9.88-9.08-10.74A23.75,23.75,0,0,0,209,51.37c-6.24,3.17-11.64,7.56-17.25,12.8Z"/><path class="cls-4" d="M200.48,226.22c-3.19-.09-3.26-2.9-4.1-4.89-1.17-2.78-1.78-5.81-3.14-8.47-3.41-6.66-6.91-13.25-16.46-11.57-1.88.33-4.69.73-7-3.17,4.09,0,7.36.15,10.61,0a59.52,59.52,0,0,0,32.35-11.57c2.49-1.8,4.56-5,8.47-3.62-3.48,8.39-11.21,11.33-18.75,14.34-4.08,1.63-8.38,2.69-12.69,4C195,209,201.81,215.88,200.48,226.22Z"/><path class="cls-6" d="M60.67,110.2l2.51-.08c-1.83,11.37-6,22.24-7.19,33.77-.13,1.31-1.47.56-2.29.64-.4-5.78-.73-11.6,1.05-17.21,3.49-10.94-2.89-21.22-1.9-32,.58-6.27-1.22-12.91,3.37-18.43l1.23,1c3,3.42,1.07,7.54,1.58,11.31C60,96.18,57.18,103.43,60.67,110.2Z"/><path class="cls-7" d="M235.48,149.21c-3.53-1-2.51-4-2.68-6.34-.35-4.85-.65-9.67-1.42-14.5s-4.51-8.71.14-14.86c3.43-4.53,1.8-13,2.26-19.65.3-4.37-.28-8.84,1.79-13,2.89,2,2.69,5.19,2.88,8.14.41,6.54.26,13.3-1.77,19.36-3.34,9.94-2.41,19.42-.19,29.25C237.32,141.37,237.59,145.51,235.48,149.21Z"/><path class="cls-5" d="M56.25,65.38c.33-18.45,11.66-25,27.62-16,5.43,3.08,11,6,14.37,11.68l-.8.64c-3.6,1.16-6.12-1.23-8.9-2.75C84.12,56.57,80.1,53.35,75,52.19c-6.53-1.48-10,.34-12.48,6.56-1.14,2.83-1,6.7-5.37,7.08Z"/><path class="cls-8" d="M151.31,58.16a8.08,8.08,0,0,1-5.3,1.41c-12-.33-23.6,2-35.25,4.33-1.65.34-4.65,2.91-5.44-1.37,11.61-6.33,24.21-7.8,37.14-7.35C145.61,55.29,149.08,55.06,151.31,58.16Z"/><path class="cls-9" d="M84.18,81.21c-3.85-1.22-2-3.59-.8-5.32a64.64,64.64,0,0,1,5.41-6.14c1.81-4.44,5.56-6.78,9.56-8.85l-.11.21c1.32-.78,2.62-1.6,4-2.32,2.32-1.23,3.45-.66,3,2.11C100.68,70.22,88.38,71.52,84.18,81.21Z"/><path class="cls-7" d="M235.41,65.28c-2.75-.47-5.22,9.09-8.19.22,4.23-.81,5.29-5.55,8.72-7.5C238.21,60.89,236.09,63,235.41,65.28Z"/><path class="cls-10" d="M61.87,67.9l2.19,2.38a6.32,6.32,0,0,1-2.34.7c-1.8-.22-3.57-.74-5.35-1.14-.79-.5-1.6-1-2.35-1.5-1.49-1.06-4-2.41-2.89-4.1,1.71-2.58,3.51.09,5.12,1.15l-.1-.2C57.94,66.36,60.53,65.82,61.87,67.9Z"/><path class="cls-11" d="M200.55,237.72q-7.07-3.69-1.46-8.95C203.51,231.12,200.63,234.65,200.55,237.72Z"/><path class="cls-5" d="M166.64,59.61c-4.08,1.84-9,2.5-11-2.82C164.9,59.29,173.76,46.95,166.64,59.61Z"/><path class="cls-12" d="M64.73,174.27l3.84-2.56c2.22,1.75-.8,3.82.38,5.56-2.16-.1-2.47,4-5,2.39-.75-.47-.5-2.53-.71-3.86A1.83,1.83,0,0,1,64.73,174.27Z"/><path class="cls-13" d="M230.08,73l6.75-7.73c3.66,1.8-.34,3.67.05,5.5C234.77,72,233.25,75.06,230.08,73Z"/><path class="cls-7" d="M235.5,79.5c-2.24.07-5.49.82-2.36-3.08a33.16,33.16,0,0,1,3.94-3.6C241.83,76.29,236.18,77.31,235.5,79.5Z"/><path class="cls-7" d="M233.39,172c-.89-2.64-10.48-.27-4.09-7.1,2.72,3.33,7.39,2,10.74,4.11C238.58,172.35,235.71,171.5,233.39,172Z"/><path class="cls-13" d="M224,171l10,2.27c.16,4.08-3.39,1.44-4.81,2.66C227.16,174.61,223.76,174.72,224,171Z"/><path class="cls-7" d="M220.92,178.81c-1.13-1.93-3.33-4.44,1.59-3.54a33.16,33.16,0,0,1,5,1.76C226.75,182.86,223.17,178.37,220.92,178.81Z"/><path class="cls-7" d="M54.37,163.2c1.09-2.56,10.47.52,4.62-6.77-3,3.12-7.52,1.45-11,3.28C49.16,163.19,52.09,162.56,54.37,163.2Z"/><path class="cls-13" d="M63.77,162.91l-10.15,1.51c-.47,4.05,3.27,1.7,4.6,3C60.38,166.31,63.76,166.68,63.77,162.91Z"/><path class="cls-7" d="M66.28,171c1.27-1.84,3.65-4.17-1.32-3.65a33.16,33.16,0,0,0-5.15,1.37C60.16,174.56,64.07,170.36,66.28,171Z"/><path class="cls-14" d="M56.38,70.65c.75,2.09,4.73,1,4.25,3.65-.31,1.73-2.81.54-4.26,1-1.67-.57-4.22-.67-4.26-2.7C52.06,69.82,54.91,71.3,56.38,70.65Z"/><path class="cls-15" d="M99.67,238.82l-.3,4.74c-2.29-1.77.28-5.48-3-7.11-1.38-.68.24-1.83,1.14-2.46,1.21-.84,2.61-1.33,3.86-.41s.24,1.94-.4,2.87A22.7,22.7,0,0,0,99.67,238.82Z"/><path class="cls-15" d="M101.83,230.67c-3.55,2.47-5.68,2.2-7.33-.44a1.89,1.89,0,0,1,.22-1.79C97.83,226.77,98.77,230.08,101.83,230.67Z"/><path class="cls-1" d="M61.87,67.9c-2.34,0-3.93-1.56-5.72-2.72,3.6-.58,3.61-3.72,4.49-6.26C64,49.38,69,47.07,78.24,51.38,82.81,53.53,87,56.44,91.41,59c2.14,1.23,4.09,3.25,6.95,1.93C95.3,64,93.28,68.2,88.8,69.75c-4-.93-6.59-4.13-9.71-6.39C71.17,57.61,66.14,58.8,61.87,67.9Z"/><path class="cls-1" d="M60.67,110.2c-3.63,0-2.61-3.09-2.68-4.69-.39-9.19-.4-18.39-.53-27.59,4.48-1.92,2.87,1.89,2.91,3.4C60.6,90.94,60.6,100.57,60.67,110.2Z"/><path class="cls-16" d="M146.71,184.08c-12.74,0-23.31-7.57-25.69-17.08-1.15-4.63.23-8.41,3.63-11.55A8.83,8.83,0,0,1,135.46,154c6.33,3.21,12.55,3.22,19.09.2,5.2-2.4,9.12-1.3,12.56,2.43a11.36,11.36,0,0,1,1.69,13.23A26,26,0,0,1,146.71,184.08Z"/><path class="cls-17" d="M214.52,154.72c-2.45-.35-3.94-1.66-5.55-2.78-9.69-6.7-20.32-9.75-32.12-8.14a10.07,10.07,0,0,1-2.26.17c-1.42-.13-3.62.95-4.07-.78-.54-2.05,1.89-2.21,3.29-2.84,1.21-.55,2.17-.71,2-2.76-.74-9,4.65-15.84,13.07-17.18,9.47-1.51,18.42,3.85,21.09,12.52,1.07,3.48,1.57,7.18-.55,10.08s-.78,3.94,1.26,5.57C212.46,150,214.64,151.41,214.52,154.72Z"/><path class="cls-18" d="M99.49,120.39c7.86-.51,17.57,6.32,16.15,15.86-.42,2.79,1,3.58,3.13,4.28,1,.32,2.53.86,2,2.41-.42,1.21-1.79.8-2.72.69-6.35-.75-12.67-1-19,.48a48.09,48.09,0,0,0-17.81,8.56c-1,.74-2.37,2.05-3.42.88s.44-2.53,1.34-3.24c3.44-2.69,4.67-4.84,3-10C78.84,130.44,88.26,120.44,99.49,120.39Z"/><path class="cls-19" d="M100.44,159.58c-3.57-.08-7.26.31-7.92-3-.71-3.51,2.9-4.87,5.67-5.88,4.38-1.6,8.94-2.79,13.65-2,2.11.36,4.48,1.26,4.88,3.68s-1.79,3.46-3.5,4.37C109,159,104.25,158.85,100.44,159.58Z"/><path class="cls-20" d="M183,149.17c4.26,1.14,9,1.29,12.74,4.49,1.39,1.2,2.89,2.6,1.87,4.65a3.83,3.83,0,0,1-4.27,1.88c-4.84-.86-9.86-1.1-14.23-3.79-1.55-1-3.64-1.86-3.48-3.78.17-2.09,2.54-2.3,4.26-2.8C180.85,149.55,181.83,149.41,183,149.17Z"/><path class="cls-21" d="M87.26,108.47A10.53,10.53,0,0,1,91.2,94.08c4.71-2.76,12.8-1.13,15.25,3.08.42.72,1,1.44.42,2.27a2.22,2.22,0,0,1-2.22.78,7.13,7.13,0,0,1-1-.21C92.44,97.4,91.78,97.73,87.26,108.47Z"/><path class="cls-22" d="M204.93,107.89c-.43-1-.87-2-1.29-3-2.75-6.67-6.24-8.23-12.85-5.87-1.69.6-3.94,2.57-5.1,0-1-2.11,1.4-3.53,3.05-4.53,4.29-2.58,8.85-3,13.09-.11A10.68,10.68,0,0,1,206.57,106a3.75,3.75,0,0,1-.56,1.36C205.86,107.62,205.45,107.67,204.93,107.89Z"/><path class="cls-23" d="M145.92,179.22c-7.2-.1-12.68-2.24-17-7-3.05-3.38-3.47-6.89-1.41-10.05s5.83-4.54,10-3c5,1.9,9.77,2.36,14.78.15a8.7,8.7,0,0,1,6.24-.5c5.51,1.73,7.63,7,4.35,11.73C158.61,176.75,152.29,179,145.92,179.22Z"/><path class="cls-24" d="M193.27,130c-.52,2.42-1.5,4.35-4.42,4.51-3.18.17-4.78-1.67-4.85-4.45a4.24,4.24,0,0,1,4.25-4.62C191.34,125.29,192.6,127.36,193.27,130Z"/><path class="cls-24" d="M185.47,137a2.28,2.28,0,0,1-2.4,2.54,2.25,2.25,0,0,1-2.45-1.93,2.37,2.37,0,0,1,2.18-2.78A2.29,2.29,0,0,1,185.47,137Z"/><path class="cls-24" d="M101.49,130c-.1,2.73-1.36,4.44-4.17,4.61-3,.18-4.82-1.44-4.88-4.36s1.72-4.68,4.67-4.64C99.81,125.66,101.28,127.31,101.49,130Z"/><path class="cls-24" d="M92.46,139.75c-2.83-.17-3.37-1.19-3.24-2.73a2.14,2.14,0,0,1,2.21-2.16,2.45,2.45,0,0,1,2.49,2.55C93.92,138.9,93,139.8,92.46,139.75Z"/><path class="cls-25" d="M146.87,176.17c-3.79-.39-7-.93-9.54-3.44a3.67,3.67,0,0,1-.77-4.8c2.41-4.42,14.1-5.3,17.27-1.33,2.39,3,1.88,5.71-1.43,7.64A23.33,23.33,0,0,1,146.87,176.17Z"/><path class="cls-26" d="M211.72,109.59c-2.65-.56-5.26-1.06-7.84-1.67-1.5-.35-2.52-.2-3.38,1.35-1.34,2.42-3,4.66-4.73,7.31L183.7,88l-12,28.39c-2.07-2.17-3.31-4.7-4.78-7a2.62,2.62,0,0,0-3.4-1.33c-2.58.66-5.22,1.06-8.35,1.67,1.55-3.71,2.92-7,4.3-10.29,2.58-6.13,5.15-12.27,7.79-18.38.57-1.31.44-2.09-1-2.43-.16,0-.29-.2-.45-.25-4.71-1.22-7.31-3.94-7-9.12.2-3.67-2.28-6.44-3.91-9.45-.68-1.27-.89-2.19,0-3.48a24.06,24.06,0,0,0,4.43-13.32,3.46,3.46,0,0,1,2.62-3.61,22.07,22.07,0,0,0,10.78-7.78c1.07-1.45,2.27-2.14,4.18-1.5,4.85,1.64,9.75,1.09,14.57-.15a2.19,2.19,0,0,1,2.65.92,25.37,25.37,0,0,0,12.17,8.86,2.43,2.43,0,0,1,1.8,2.52,25,25,0,0,0,4.58,14.1,2.58,2.58,0,0,1,0,3.3,24.32,24.32,0,0,0-4.5,13.84A2.83,2.83,0,0,1,206,76.28c-1.53.59-2.93,1.53-4.48,2-1.8.61-1.85,1.5-1.17,3.08,3.59,8.34,7.08,16.72,10.6,25.09C211.29,107.42,212,108.27,211.72,109.59Z"/><path class="cls-27" d="M176.48,82c-.84.08-1.28-.53-1.69-1.06a21.32,21.32,0,0,0-10.13-7.37,2.64,2.64,0,0,1-1.85-2.8,19.66,19.66,0,0,0-3.6-11.17,2.8,2.8,0,0,1,0-3.56,19.47,19.47,0,0,0,3.57-11.18,2.61,2.61,0,0,1,1.92-2.71A20.94,20.94,0,0,0,174.69,35a2.33,2.33,0,0,1,2.89-.95,20.65,20.65,0,0,0,12.24,0,2.35,2.35,0,0,1,2.9.9,20.93,20.93,0,0,0,9.89,7.22,2.43,2.43,0,0,1,1.89,2.44,20.82,20.82,0,0,0,3.72,11.69,2.49,2.49,0,0,1,0,3.25A20.81,20.81,0,0,0,204.5,71.2a2.37,2.37,0,0,1-1.87,2.42,20.42,20.42,0,0,0-9.73,7,2.55,2.55,0,0,1-3.11,1.08A22.08,22.08,0,0,0,176.48,82Z"/><path class="cls-27" d="M171,108.35c-1.31-1.79-2.12-4-3.61-4.64s-3.63.34-5.86.66L170.93,82c2.17,4.74,5.73,4.19,9.88,2.88Z"/><path class="cls-27" d="M196.69,82.53l9.09,21.64c-2.22.28-4.25-1.39-5.8-.47s-2.29,2.88-3.57,4.63L186.8,85.44c2-.47,3.79.74,5.59.55C194.39,85.79,194.85,83.47,196.69,82.53Z"/><path class="cls-28" d="M163.2,57.68a20.36,20.36,0,0,1,20.58-20.36A20.6,20.6,0,1,1,163.2,57.68Z"/><path class="cls-29" d="M200.43,58A16.76,16.76,0,1,1,183.7,41,16.81,16.81,0,0,1,200.43,58Z"/><path class="cls-30" d="M182.34,43.94c.89-.19,1.45,0,1.35,1-.07.7.32,1.66-.95,1.71a10.63,10.63,0,0,0-6.54,2.72c-1,.85-1.26-.32-1.79-.71-.92-.68-.26-1.1.27-1.54A13.22,13.22,0,0,1,182.34,43.94Z"/></svg>