<svg id="Layer_1" data-name="Layer 1" xmlns="http://www.w3.org/2000/svg" viewBox="0 0 288 288"><defs><style>.cls-1{fill:#f4f2ef;}.cls-2{fill:#f7d0da;}.cls-3{fill:#3c332f;}.cls-4{fill:#3e3632;}.cls-5{fill:#3f3733;}.cls-6{fill:#403733;}.cls-7{fill:#423a36;}.cls-8{fill:#403833;}.cls-9{fill:#433b38;}.cls-10{fill:#463c3b;}.cls-11{fill:#524b47;}.cls-12{fill:#423c38;}.cls-13{fill:#4c4643;}.cls-14{fill:#4a413f;}.cls-15{fill:#59534f;}.cls-16{fill:#0a0809;}.cls-17{fill:#0d0d0d;}.cls-18{fill:#0c0c0c;}.cls-19{fill:#0d0e0e;}.cls-20{fill:#e32026;}.cls-21{fill:#aa4a15;}.cls-22{fill:#e76524;}.cls-23{fill:#414142;}.cls-24{fill:#facccc;}</style></defs><title>Bugs</title><path class="cls-1" d="M190.07,62.15s31.07-25.39,39.16-11.38c2,5.26,2.86,7.29,2.86,7.29l.42,4.8-6.12,4.37-26.69,3.24Z"/><path class="cls-1" d="M99,219.53a32.29,32.29,0,0,1,4-9.65c5.45-8.56,6-8.89,17.46-9-6.58-1.89-12.84-2.15-18.94-3.34-13.82-2.68-24-10.8-32.71-21.2l.16.13c-.83-1.92-1.65-3.87-4.38-2.61-1.36-2-.54-4.7-2.34-6.52-.94-6.12-4.42-11.38-5.87-17.32l-2.65-6.3c2.38-11.42,4.71-22.86,7.81-34.12,4.55-12.21,10.41-23.51,21.63-31.09,5.48-8.4,14.6-12.43,22.08-18.43l.09,1.64c1.59,1.31,3,.19,4.57-.19,13.6-3.36,27.28-6.12,41.42-4.19L155.61,56c3,2,6.37,2.59,9.86,2.82h2.81A118.77,118.77,0,0,1,199.35,72.2a9.55,9.55,0,0,0,6,1.23c4.28.66,6.76,3.74,9.3,6.83A97.87,97.87,0,0,1,227.7,100.7c1.41-9.3-1.1-18.68,1.54-27.78,2.21-1.87,4.47-3.58,7.64-2.9l.2,2c.32,2.42-3.1,4-1.58,6.68a10.32,10.32,0,0,1,.06,1.39c1.23,10.18.19,20.27-1.3,30.33-.3,2-.1,4.75-2.52,5.23s-1.44,1.74-1.09,2.78c3.3,9.72,3.81,19.89,4.83,30l-1.5,3.06c-2,3.83-1.44,8.5-4,12.14l-1.49,3.07c-2.12,3.82-4.92,13.89-7.26,15.44a107.32,107.32,0,0,1-22.81,13.3,47,47,0,0,1-21.4,3.35c8.55-2,13,4.23,17.08,11.31,2.8,4.86,3.33,10.63,6.41,15.35L199.1,228c-.66,3.17-1.35,6.34,1.46,8.95l-2.65,3.91c-4,.95-5.34,4.95-8.33,7.07-4.2,3-8.23,6.44-13.83,3.25-1.46-.83-2.65-.08-4,.36-10.59,3.48-13.26,1.63-14.66-10.06a5.79,5.79,0,0,0,0,1.6c1,12.24.87,12.44-10.8,12.17-8.12-.19-9-1.14-8.82-9.53,0-2.1,0-4.19,0-6.29,0-.93-1.07-.3-.15-.43.07,0,.12.21.11.66a47.44,47.44,0,0,1-.17,7c-.54,3.28-1.46,6.58-5,7.77s-6.34-.44-8.89-2.74c-1.37-1.24-2.2-3-3.94-4.2-2,6.05-6.13,5.28-10.47,3.21-5-2.38-7.17-7.11-9.35-11.78a14.26,14.26,0,0,1-.6-2.71c-.36,2.5,1.7,4.41,1.12,6.75"/><path class="cls-2" d="M230.08,72.25c-.08,9.53-.14,19.07-.25,28.6,0,1.78.38,4.3-2,4.5-2,.16-1.58-2.3-2.19-3.71-4.7-10.89-10.37-21.08-21-27.44-4-.25-4.81-3.37-5.73-6.39,2.16-6,5-11.71,11.92-13.06,8.18-1.59,12.87,3.46,16.42,10,2.82,3.05,5.42-1.68,8.19-.22l1.42,0C237,69.25,233.14,70.38,230.08,72.25Z"/><path class="cls-2" d="M84.18,80.43c-5.39.69-7.32,5.41-9.95,9-4.48,6.14-8.65,12.55-11.05,19.9a2.45,2.45,0,0,1-3.17-.16c-2.68-5.21-1-10.81-1.43-16.23-.42-4.75.89-9.61-1-14.24a3.57,3.57,0,0,1-1.37-2.61l.14-1.59c1.1-1.75,2.5-1.38,3.84-.85-.66-1.58-4.86-.16-3.83-3.79a1.16,1.16,0,0,1,0-.81c1-1.32,2.4-.83,3.67-.67,3.12.38.43-1.61.94-2.3,3.92-9,10.33-11,18.1-5.6a60.3,60.3,0,0,1,9.26,7.32c1.46,2.61-.59,4.16-1.89,5.86C84.9,75.7,83.73,77.77,84.18,80.43Z"/><path class="cls-3" d="M99.37,242.79c-.35-1.61-.79-3.22.3-4.74,3.25,1.78,3.72,5.68,6.2,8.07,3.29,3.18,6.92,5.29,11.75,4.67,1-3-2.79-5.61,0-9,2.5,3.14,4.64,6.35,7.31,9,4.87,4.92,8.7,3.75,10.22-3,.51-2.26.56-4.62,1-6.91s0-4.65,2.79-6.73c0,4.87.54,9.26-.14,13.46-.84,5.27,1.38,6.62,5.93,6.33a30.77,30.77,0,0,1,4.18-.13c5.72.41,8.28-1.25,6.64-7.71a12.47,12.47,0,0,1,2.66-11.91c.31,3.69.36,7.41,1,11,1.22,7.18,4.18,8.58,10.69,5.34,2.63-1.31,5.2-2.73,8.7-4.58-2,4.55-.91,5.62,2.86,4.61,5.57-1.49,8.9-5.64,12.47-9.65.94-1.06,2.48-5,4-.18-5,10.45-13.47,13.61-24.69,14.79a199.67,199.67,0,0,1-21,1.17c-9.89,0-19.61,1.89-30.16-.69-8.82-2.15-13.42-3.77-16.86-6.66a31.65,31.65,0,0,1-5.78-6.69"/><path class="cls-4" d="M95.22,222.2c2.52-8.53,5.9-14.9,11.44-20.4-15.41-4.95-31.58-8-37.88-25.43,2.12-.15,3.44,1.13,4.61,2.62,9.65,12.26,23.22,16.43,37.87,18.39,3.92.52,7.84,1.06,11.76,1.58a2.16,2.16,0,0,1,2.15,2.25c0,1.39-1.13,1.87-2.42,1.86a10,10,0,0,0-2.09,0c-3.53.74-7.41-2.71-10.58.49a33.79,33.79,0,0,0-8.77,14.07c-.91,3.06-1,6.43-3.3,9.08"/><path class="cls-5" d="M198.87,67.8l5.73,6.39c-1.38,2.69-3.12,1.09-4.58.24a145.14,145.14,0,0,0-30.17-13.65c-.66-.21-1.05-1.29-1.57-2,6.75-1.24,13.88,4.07,19.46,1.42s9.9-8.25,15.5-11.59c6.29-3.75,12.85-6.87,20.43-3.83,6.15,2.47,9.92,6.53,8.57,13.8-2-4.51-2.87-9.88-9.08-10.74A23.75,23.75,0,0,0,209,50.59c-6.24,3.17-11.64,7.56-17.25,12.8Z"/><path class="cls-4" d="M200.48,225.45c-3.19-.09-3.26-2.9-4.1-4.89-1.17-2.78-1.78-5.81-3.14-8.47-3.41-6.66-6.91-13.25-16.46-11.57-1.88.33-4.69.73-7-3.17,4.09,0,7.36.15,10.61,0a59.52,59.52,0,0,0,32.35-11.57c2.49-1.8,4.56-5,8.47-3.62-3.48,8.39-11.21,11.33-18.75,14.34-4.08,1.63-8.38,2.69-12.69,4C195,208.23,201.81,215.1,200.48,225.45Z"/><path class="cls-6" d="M60.67,109.42l2.51-.08c-1.83,11.37-6,22.24-7.19,33.77-.13,1.31-1.47.56-2.29.64-.4-5.78-.73-11.6,1.05-17.21,3.49-10.94-2.89-21.22-1.9-32,.58-6.27-1.22-12.91,3.37-18.43l1.23,1c3,3.42,1.07,7.54,1.58,11.31C60,95.4,57.18,102.65,60.67,109.42Z"/><path class="cls-7" d="M235.48,148.43c-3.53-1-2.51-4-2.68-6.34-.35-4.85-.65-9.67-1.42-14.5s-4.51-8.71.14-14.86c3.43-4.53,1.8-13,2.26-19.65.3-4.37-.28-8.84,1.79-13,2.89,2,2.69,5.19,2.88,8.14.41,6.54.26,13.3-1.77,19.36-3.34,9.94-2.41,19.42-.19,29.25C237.32,140.59,237.59,144.73,235.48,148.43Z"/><path class="cls-5" d="M56.25,64.6c.33-18.45,11.66-25,27.62-16,5.43,3.08,11,6,14.37,11.68l-.8.64c-3.6,1.16-6.12-1.23-8.9-2.75C84.12,55.79,80.1,52.57,75,51.42c-6.53-1.48-10,.34-12.48,6.56-1.14,2.83-1,6.7-5.37,7.08Z"/><path class="cls-8" d="M151.31,57.38a8.08,8.08,0,0,1-5.3,1.41c-12-.33-23.6,2-35.25,4.33-1.65.34-4.65,2.91-5.44-1.37,11.61-6.33,24.21-7.8,37.14-7.35C145.61,54.51,149.08,54.28,151.31,57.38Z"/><path class="cls-9" d="M84.18,80.43c-3.85-1.22-2-3.59-.8-5.32A64.64,64.64,0,0,1,88.79,69c1.81-4.44,5.56-6.78,9.56-8.85l-.11.21c1.32-.78,2.62-1.6,4-2.32,2.32-1.23,3.45-.66,3,2.11C100.68,69.45,88.38,70.75,84.18,80.43Z"/><path class="cls-7" d="M235.41,64.5c-2.75-.47-5.22,9.09-8.19.22,4.23-.81,5.29-5.55,8.72-7.5C238.21,60.11,236.09,62.24,235.41,64.5Z"/><path class="cls-10" d="M61.87,67.12l2.19,2.38a6.32,6.32,0,0,1-2.34.7c-1.8-.22-3.57-.74-5.35-1.14-.79-.5-1.6-1-2.35-1.5-1.49-1.06-4-2.41-2.89-4.1,1.71-2.58,3.51.09,5.12,1.15l-.1-.2C57.94,65.58,60.53,65,61.87,67.12Z"/><path class="cls-11" d="M200.55,236.95q-7.07-3.69-1.46-8.95C203.51,230.34,200.63,233.87,200.55,236.95Z"/><path class="cls-5" d="M166.64,58.83c-4.08,1.84-9,2.5-11-2.82C164.9,58.51,173.76,46.17,166.64,58.83Z"/><path class="cls-12" d="M64.73,173.5l3.84-2.56c2.22,1.75-.8,3.82.38,5.56-2.16-.1-2.47,4-5,2.39-.75-.47-.5-2.53-.71-3.86A1.83,1.83,0,0,1,64.73,173.5Z"/><path class="cls-13" d="M230.08,72.25l6.75-7.73c3.66,1.8-.34,3.67.05,5.5C234.77,71.24,233.25,74.28,230.08,72.25Z"/><path class="cls-7" d="M235.5,78.72c-2.24.07-5.49.82-2.36-3.08a33.16,33.16,0,0,1,3.94-3.6C241.83,75.52,236.18,76.53,235.5,78.72Z"/><path class="cls-7" d="M233.39,171.19c-.89-2.64-10.48-.27-4.09-7.1,2.72,3.33,7.39,2,10.74,4.11C238.58,171.58,235.71,170.72,233.39,171.19Z"/><path class="cls-13" d="M224,170.19l10,2.27c.16,4.08-3.39,1.44-4.81,2.66C227.16,173.83,223.76,173.95,224,170.19Z"/><path class="cls-7" d="M220.92,178c-1.13-1.93-3.33-4.44,1.59-3.54a33.16,33.16,0,0,1,5,1.76C226.75,182.08,223.17,177.6,220.92,178Z"/><path class="cls-7" d="M54.37,162.43c1.09-2.56,10.47.52,4.62-6.77-3,3.12-7.52,1.45-11,3.28C49.16,162.42,52.09,161.78,54.37,162.43Z"/><path class="cls-13" d="M63.77,162.14l-10.15,1.51c-.47,4.05,3.27,1.7,4.6,3C60.38,165.53,63.76,165.9,63.77,162.14Z"/><path class="cls-7" d="M66.28,170.19c1.27-1.84,3.65-4.17-1.32-3.65a33.16,33.16,0,0,0-5.15,1.37C60.16,173.79,64.07,169.58,66.28,170.19Z"/><path class="cls-14" d="M56.38,69.87c.75,2.09,4.73,1,4.25,3.65-.31,1.73-2.81.54-4.26,1-1.67-.57-4.22-.67-4.26-2.7C52.06,69,54.91,70.52,56.38,69.87Z"/><path class="cls-15" d="M99.67,238l-.3,4.74c-2.29-1.77.28-5.48-3-7.11-1.38-.68.24-1.83,1.14-2.46,1.21-.84,2.61-1.33,3.86-.41s.24,1.94-.4,2.87A22.7,22.7,0,0,0,99.67,238Z"/><path class="cls-15" d="M101.83,229.89c-3.55,2.47-5.68,2.2-7.33-.44a1.89,1.89,0,0,1,.22-1.79C97.83,226,98.77,229.3,101.83,229.89Z"/><path class="cls-1" d="M61.87,67.12c-2.34,0-3.93-1.56-5.72-2.72,3.6-.58,3.61-3.72,4.49-6.26C64,48.6,69,46.29,78.24,50.61c4.57,2.14,8.78,5.05,13.17,7.58,2.14,1.23,4.09,3.25,6.95,1.93-3.05,3.09-5.08,7.3-9.56,8.85-4-.93-6.59-4.13-9.71-6.39C71.17,56.84,66.14,58,61.87,67.12Z"/><path class="cls-1" d="M60.67,109.42c-3.63,0-2.61-3.09-2.68-4.69-.39-9.19-.4-18.39-.53-27.59,4.48-1.92,2.87,1.89,2.91,3.4C60.6,90.16,60.6,99.79,60.67,109.42Z"/><path class="cls-16" d="M177.12,163.65c0,6-5.17,10.33-10.79,8.28-4.57-1.67-8.25-1.39-12.07,1.65-3.27,2.6-6.77,1.45-9.67-.9a6.28,6.28,0,0,0-6.68-1.06,16.8,16.8,0,0,1-2.13.58c-5.72,1.22-9.37-1.33-10.19-7.11-.7-5,3.54-10.38,8.44-10.54,2.6-.09,4.51,1.33,6.13,3.28,2.28,2.74,2.33,2.7,4.81.07l.19-.2c5.07-5.43,6.69-5.35,11.12.59,1.87,2.5,2.17,2.47,4.69-.5,2.9-3.42,6.05-4.51,9.54-3.27A10.41,10.41,0,0,1,177.12,163.65Z"/><path class="cls-17" d="M92.73,141.36c5.65-3.12,12.16-2.18,18.38-4.17-7.62-5.19-16-9.35-19.44-18.84,1.64-.48,2.17.07,2.62.52,6.66,6.6,14.4,11.66,22.58,16.15,3.2,1.76,3.22,4.19-.11,5.23A49.57,49.57,0,0,1,92.73,141.36Z"/><path class="cls-18" d="M186.7,135.93c6.31,1.6,12.26,1.33,17.61,3.1.34,1.22-.24,1.35-.73,1.43-7.23,1-14.36.21-21.44-1.22-1.4-.28-2.9-1.19-3-2.85s1.32-2.18,2.51-2.81c7.55-4.06,14.7-8.66,20.8-14.76.65-.65,1.44-2,2.59-.93s-.14,2.05-.61,2.84c-3.07,5.19-7.72,8.77-12.66,12C190.26,133.74,188.7,134.68,186.7,135.93Z"/><path class="cls-19" d="M106.54,101.41c.14-.8-.4-2.09.94-2.33,1.19-.21,1.65.91,1.95,1.81a36.9,36.9,0,0,0,16,20.08c.88.55,2.12,1.28,1.43,2.6s-2,.7-3,.44C115.64,121.91,106.36,109.8,106.54,101.41Z"/><path class="cls-18" d="M194.27,100.45c-.41,8.41-8.49,18.8-16.33,21-1.08.31-2.46,1-3.11-.48-.54-1.22.64-1.89,1.53-2.45a35.32,35.32,0,0,0,15.13-18.93c.33-1,.72-2.32,2.07-1.87S194.16,99.57,194.27,100.45Z"/><path class="cls-20" d="M128.62,164a7.78,7.78,0,0,1,2.56-5.83,4.35,4.35,0,0,1,6.42.32c5.28,5.4,5.28,5.4,10.87,0,2-2,3.1-2.08,4.69.29,3.73,5.55,6.38,4.55,10.5.8,3.86-3.51,8.45-1.92,9.48,3.16a5.21,5.21,0,0,1-6.15,6.38,13.64,13.64,0,0,1-2.92-.88,8.09,8.09,0,0,0-7.94.78c-1.25.8-2.5,1.61-3.81,2.29-2.17,1.12-4.45,1.15-6.21-.59-2.52-2.5-5.12-2.34-8.15-1.21-4.63,1.72-8,.23-9.08-3.78A13.81,13.81,0,0,1,128.62,164Z"/><path class="cls-5" d="M157.72,50.22a1.48,1.48,0,0,1-.3,0,1.51,1.51,0,0,1-1.19-1.78c2-10.31,10.35-17.67,20.23-17.89h0a1.52,1.52,0,0,1,0,3c-8.58.19-15.54,6.4-17.32,15.45a1.52,1.52,0,0,1-1.49,1.22Z"/><path class="cls-5" d="M145.86,50.22A1.52,1.52,0,0,1,144.37,49c-1.78-9-8.74-15.25-17.32-15.44a1.52,1.52,0,1,1,.07-3c9.88.22,18.2,7.58,20.23,17.89a1.51,1.51,0,0,1-1.2,1.78l-.29,0Z"/><path class="cls-5" d="M166.32,64a29.07,29.07,0,0,0-27.82-.67l-2.33,1.19.13-2.61a16.16,16.16,0,0,1,32.3.78v2.62Z"/><path class="cls-21" d="M151.79,115a24.32,24.32,0,0,1-10.33-2.25l-1.32-.6.54-1.34c1.2-3,2.53-7.27,4.43-13.73,1.67-5.67,3.56-12.09,5.25-15.82l1.38-3,1.38,3c1.69,3.71,3.58,10.07,5.24,15.68,1.94,6.56,3.3,10.9,4.51,13.87l.55,1.35-1.33.6A24.34,24.34,0,0,1,151.79,115Z"/><path class="cls-22" d="M136.9,114.71a29.34,29.34,0,1,1,29.79,0l-1.06.63-.83-.92a8.6,8.6,0,0,1-1.27-2.12l-.06-.12,0-.13-.06-.08-.06-.14c-1.58-3.6-3.51-10.12-4.93-14.88C156.22,89.66,154,82.1,152,79.05l-.11-.17-.06-.2c-2.08,2.76-4.42,10.69-6.68,18.36a154.3,154.3,0,0,1-4.87,14.82l-.05.12,0,.06,0,.1,0,.08a8.8,8.8,0,0,1-1.29,2.19l-.83.93Z"/><circle class="cls-23" cx="134.67" cy="85.71" r="6.06"/><circle class="cls-23" cx="168.91" cy="85.71" r="6.06"/><circle class="cls-23" cx="160.2" cy="69.92" r="4.33"/><circle class="cls-23" cx="143.38" cy="69.92" r="4.33"/><circle class="cls-23" cx="168.55" cy="101.64" r="4.33"/><circle class="cls-23" cx="135.04" cy="101.64" r="4.33"/><path class="cls-24" d="M98.34,162.14c-3.57-.08-7.26.31-7.92-3-.71-3.51,2.9-4.87,5.67-5.88,4.38-1.6,8.94-2.79,13.65-2,2.11.36,4.48,1.26,4.88,3.68s-1.79,3.46-3.5,4.37C106.91,161.59,102.15,161.41,98.34,162.14Z"/><path class="cls-24" d="M203.55,162.14c3.57-.08,7.26.31,7.92-3,.71-3.51-2.9-4.87-5.67-5.88-4.38-1.6-8.94-2.79-13.65-2-2.11.36-4.48,1.26-4.88,3.68s1.79,3.46,3.5,4.37C195,161.59,199.74,161.41,203.55,162.14Z"/></svg>