<svg id="Layer_1" data-name="Layer 1" xmlns="http://www.w3.org/2000/svg" xmlns:xlink="http://www.w3.org/1999/xlink" viewBox="0 0 288 288"><defs><style>.cls-1{fill:none;}.cls-2{clip-path:url(#clip-path);}.cls-3{fill:#f4f2ef;}.cls-4{fill:#f7d0da;}.cls-5{fill:#3c332f;}.cls-6{fill:#3e3632;}.cls-7{fill:#3f3733;}.cls-8{fill:#403733;}.cls-9{fill:#423a36;}.cls-10{fill:#403833;}.cls-11{fill:#433b38;}.cls-12{fill:#463c3b;}.cls-13{fill:#524b47;}.cls-14{fill:#423c38;}.cls-15{fill:#4c4643;}.cls-16{fill:#4a413f;}.cls-17{fill:#3e3530;}.cls-18{fill:#403530;}.cls-19{fill:#443c38;}.cls-20{fill:#59534f;}.cls-21{fill:#f6f4f3;}.cls-22{fill:#f2f1ef;}.cls-23{fill:#d42926;}.cls-24{fill:#451b13;}.cls-25{fill:#793d34;}.cls-26{fill:#a13636;}.cls-27{fill:#facbcb;}.cls-28{clip-path:url(#clip-path-2);}</style><clipPath id="clip-path"><path class="cls-1" d="M259.39,196.37c1.32-.27,3,.22,3.78-1.7-1.84-1.15-4.38-.5-5.95-2.16l.21-.44c1.47-2.06,1.15-4.73,2.29-6.9l.85-1.74a9,9,0,0,0,.56-6.58c-1.26-5.59-1.79-11,.11-16.63a29.08,29.08,0,0,0,1-11c-.11-1.68,0-3.48-1.64-4.63a5.85,5.85,0,0,0,0-.79c.39-1.24,3.6-1.82.9-3.8l-.11-1.15c-.22-1,2.05-2.1,0-3.13h0l-.81,0c.39-1.29,1.59-2.49.3-4.14a7.42,7.42,0,0,0-2,2l-.12-1.41.07.17c.77-4.13-1.38-6.44-4.87-7.85-4.31-1.73-8,0-11.61,2.18-3.18,1.9-5.69,5.11-8.81,6.59-1.48.7-3.16.42-4.91,0a54.28,54.28,0,0,0,1.63,15.47c1.18,5.23.77,9.54-1.26,13.17l-1.3,2.66,0,0,0,0a15.26,15.26,0,0,0-1.12,3.89,30.17,30.17,0,0,1-1,4l.48.08a15,15,0,0,1,5.68,1.84l2.93,1.82-1.37,3.16a7.52,7.52,0,0,1-5.37,4.6,5.33,5.33,0,0,1-1.27,2.19,5.48,5.48,0,0,1-4.09,1.62c-.27,0-.53,0-.76,0a5.54,5.54,0,0,1-5.06,4,8.91,8.91,0,0,1-.77,1c-3.85,8.31-11.51,11.37-18.3,14.08l-.43.17c-2.12.85-4.28,1.53-6.41,2.16,4,5.6,8.23,12,7.11,20.73l-.1.74-.12.21c1.89,2.82,1,6.09.62,7.56a8.71,8.71,0,0,0-.31,1.44l0,1.17-.66,1-1.69,2.49.55.14c6,1.46,11.52.38,17.15.39a113.54,113.54,0,0,0,12-.67c6.38-.67,11.21-2.47,14-8.41l1.51-2.22c0-1.75,1.68-3.75-.83-5.09l.79-1.45c.75-5.88-3.12-9.79-6.09-14.17,2.45-.77,4.9-1.37,7.21-2.29,4.29-1.71,8.68-3.38,10.66-8.15a5.21,5.21,0,0,0,1.29-2c1,.43,2,.82,2.31-1.38-.5-.18-1-.39-1.49-.58l.39-1c.62.38,1.44.55,2.06.93.81-.69,2.83.81,2.74-1.51l-4.2-1c.17-.44.34-.85.5-1.23C256.81,195.61,259.07,195.43,259.39,196.37Z"/></clipPath><clipPath id="clip-path-2"><path class="cls-1" d="M97.75,242.29c0-.11,0-.23,0-.34a4.57,4.57,0,0,1-1.89-5.58,10.25,10.25,0,0,1-.88-1.2,5.73,5.73,0,0,1-.52-4.32,4.77,4.77,0,0,1,1.19-2.17l0-.05-.95-1.52.51-1.72a48.69,48.69,0,0,1,7.15-15.22c-11.12-3.41-22.38-7.2-28.67-18.65a5.13,5.13,0,0,1-1.82.32,5.75,5.75,0,0,1-3.09-.94c-2.24-1.41-2.35-3.93-2.41-5.44,0-.28,0-.65-.05-.81l-.11-.69,0-.16a5.7,5.7,0,0,1-2.74-3.73,5.9,5.9,0,0,1-4.58-1.81,5.29,5.29,0,0,1-1.22-2.42,7.52,7.52,0,0,1-5-5l-1.13-3.26,3.06-1.6a14.93,14.93,0,0,1,5.81-1.41l.31,0c-.18-.57-.35-1.16-.51-1.75l-1-2.35-1.28-3.05-.26-.61,0-.66c-.34-4.92-.77-11,1.13-17a17.1,17.1,0,0,0,.75-5.54c-.69.31-1.38.65-2.06,1l-.05-.93c.25-1.57-.39-1.9-1.71-1.2-.77.41-1.51.88-2.26,1.32h0l.06-.12-.11,0c-1.9-3.18-5.06-4.83-8.12-6.56-9-5.12-15.46-1.44-15.7,8.94l-.06,0,.05.11h0c-.92-.6-1.94-2.12-2.91-.65-.64,1,.8,1.73,1.64,2.33.43.31.89.57,1.34.85h0a.66.66,0,0,0,0,.46c-.84.37-2.46-.47-2.42,1.1,0,1.15,1.47,1.21,2.42,1.54h0l-.08.9h0c-2.61,3.14-1.59,6.91-1.92,10.48-.56,6.14,3.06,12,1.08,18.2-1,3.19-.83,6.49-.6,9.78l1.51,3.58a24.69,24.69,0,0,0,1.19,3.46c-1.68,1.39-4.09.61-6,1.59.69,2,2.35,1.62,3.64,2,.37-.88,2.45-.6,3.32-1.13q.24.6.44,1.2l-4.19.62c-.26,2.3,1.86,1,2.61,1.71.62-.32,1.41-.43,2-.73.08.34.15.68.21,1-.45.14-.9.29-1.35.42.13,2.18,1.12,1.92,2.14,1.57a4.8,4.8,0,0,0,.48,1.67,1,1,0,0,0-.65.81c.12.76,0,1.92.4,2.19,1.39.88,1.59-1.33,2.76-1.36,3.6,9.85,12.76,11.58,21.5,14.38a25.57,25.57,0,0,0-6.51,11.6l1.59,2.56A5.15,5.15,0,0,0,54,227.3l.11,2.24c-.83-.6-1.46-1.27-2.67-.62a1.07,1.07,0,0,0-.13,1,2.08,2.08,0,0,0,2.87,1l0,.66a2.62,2.62,0,0,0-1.21.5c-.51.36-1.43,1-.65,1.4,1.89.93.43,3,1.73,4a18,18,0,0,0,3.29,3.8c2,1.65,4.57,2.57,9.59,3.79,6,1.46,11.52.38,17.15.39a113.47,113.47,0,0,0,12-.67c.68-.07,1.33-.16,2-.26A11.63,11.63,0,0,1,97.75,242.29Zm-61-42.53a.91.91,0,0,1-.08-.21l.09.21ZM48,138.7h0v0h0Zm6.18,96.12.11-.22,0,.31Zm10.21,7.24h0l0,0Z"/></clipPath></defs><title>Groups</title><g class="cls-2"><path class="cls-1" d="M165.87,199.31l-.09-.21a.9.9,0,0,0,.08.21Z"/><path class="cls-1" d="M177.18,138.25h0v0h0Z"/><path class="cls-1" d="M193.58,241.58l0,0h0Z"/><path class="cls-1" d="M183.49,234.46l0-.31-.11.22Z"/><path class="cls-3" d="M253.57,126.27a13.5,13.5,0,0,0-8.07,1.53,43,43,0,0,0-9.81,7.28l4.07,2.51c1.23-3.42,2.85-6.66,6.78-7.42,4.65-.9,7.32,2,9.33,5.67h0a5,5,0,0,0,2.91-2.22l-.12-1.41C257.59,129.68,257,126.75,253.57,126.27Z"/><path class="cls-3" d="M257.06,192.33l.16.17.21-.44c1.47-2.06,1.15-4.73,2.29-6.9l.85-1.74c-2-.56-1.43-2.28-1.52-3.61-.2-2.76-.37-5.5-.81-8.25s-2.57-5,.08-8.45c1.95-2.58,1-7.36,1.28-11.17.17-2.48-.16-5,1-7.37a5.85,5.85,0,0,0,0-.79c-1.27,0-3.12.47-1.34-1.75a18.89,18.89,0,0,1,2.24-2l-.11-1.15c-1.2.69-2.06,2.42-3.87,1.27,0,5.42-.08,10.84-.14,16.26,0,1,.22,2.45-1.15,2.56-1.15.09-.9-1.31-1.24-2.11-2.67-6.19-5.9-12-11.95-15.6h0c-.78,1.53-1.77.62-2.6.14a82.52,82.52,0,0,0-17.16-7.76c-.38-.12-.6-.73-.89-1.11h-.93c-2.32,1-5.11,1.42-6.27-1.6l-2.45.78a4.59,4.59,0,0,1-3,.8c-6.81-.19-13.42,1.12-20,2.46-.94.19-2.64,1.65-3.09-.78l-.05-.93c-2.59,5.3-9.58,6-12,11.55-3.06.39-4.16,3.08-5.65,5.12a41.11,41.11,0,0,0-6.28,11.31h0c-1,6.47-3.42,12.65-4.09,19.2-.08.75-.84.32-1.3.37l1.51,3.58a24.68,24.68,0,0,0,1.19,3.46,3.46,3.46,0,0,0,.3-.28c1.32,1.65,1.27,2.36.69,2.72q.23.6.44,1.2l1.58-.24a1.81,1.81,0,0,1-1.11,1.84c.08.34.15.68.21,1a8.29,8.29,0,0,1,1.58-.36c2.83-.3,1.47,1,.75,2.07a2.91,2.91,0,0,0-1.53.27,4.8,4.8,0,0,0,.48,1.67l.17-.07,2.18-1.45c1.15.9-.16,2,.09,2.88l.09.21a3.05,3.05,0,0,1,2.56,1.49c5.49,7,13.2,9.34,21.53,10.46l6.69.9a1.23,1.23,0,0,1,1.22,1.28c0,.79-.64,1.06-1.38,1.06a5.72,5.72,0,0,0-1.19,0c-2,.42-4.21-1.54-6,.28a19.21,19.21,0,0,0-5,8,24.66,24.66,0,0,1-1.18,4.09l.11,2.24a3.42,3.42,0,0,0,1.37.65,6.8,6.8,0,0,1-1.3.73l0,.66a1.39,1.39,0,0,1,1,.27c.77.56.14,1.1-.23,1.63a9.08,9.08,0,0,0-.61,1.12l0,.31c1.72,1,2,3.17,3.4,4.5,1.86,1.8,3.92,3,6.66,2.65l0,0c.51-1.68-1.58-3.17,0-5.08a63.59,63.59,0,0,0,4.15,5.14c2.77,2.8,4.95,2.13,5.81-1.68.29-1.28.32-2.63.54-3.93s0-2.64,1.59-3.82c0,2.77.31,5.27-.08,7.65-.48,3,.78,3.77,3.37,3.6a17.51,17.51,0,0,1,2.38-.07c3.25.23,4.71-.71,3.78-4.39a7.09,7.09,0,0,1,1.51-6.77c.17,2.1.2,4.21.56,6.28.69,4.08,2.38,4.88,6.08,3,1.49-.74,3-1.55,4.95-2.6-1.14,2.59-.52,3.19,1.63,2.62,3.17-.85,5.06-3.21,7.09-5.48.54-.6,1.41-2.82,2.26-.1l1.51-2.22q-4-2.1-.83-5.09l.79-1.45c-1.81-.05-1.85-1.65-2.33-2.78-.66-1.58-1-3.3-1.78-4.82-1.94-3.79-3.93-7.53-9.36-6.58a3.35,3.35,0,0,1-4-1.8c2.32,0,4.18.08,6,0a33.84,33.84,0,0,0,18.39-6.57c1.42-1,2.59-2.83,4.82-2.06a5.21,5.21,0,0,0,1.29-2,2.76,2.76,0,0,0-1.45-.37c-.64-1.1-1.89-2.52.9-2a7.72,7.72,0,0,1,1.38.41l.39-1a1.8,1.8,0,0,1-.89-1.87l1.49.34c.17-.44.34-.85.5-1.23C255.62,194.5,255.71,193.78,257.06,192.33Zm-78.64-31.47c1.5-3.58,7.93-6.09,11.3-4.48a2.45,2.45,0,0,1,1.64,2.46,1.56,1.56,0,0,1-2.12,1.21c-3.49-.93-6.16.28-8.5,2.79-.59.63-1.42,1.43-2.35.5S178.2,161.63,178.42,160.86Zm5,32.28A12,12,0,0,1,171.75,181c.08-6.19,6.19-11.94,12.61-11.85s11.58,5.69,11.49,12.3S190.34,193.22,183.38,193.14Zm29.14,7.9c-3.15.07-7.1-.13-7.84-1.71a2.44,2.44,0,0,1,1-3.13c1.14-.7,3.43.54,5.55,1,1.83.4,6-3.27,6.79.19C218.75,200.47,215.61,201,212.52,201Zm20.74-45.43c.29-1.7,1.47-2.41,3.06-2.61,3.85-.53,9.29,3.07,10.2,6.82.12.48.18,1.22-.08,1.49-.55.56-1.28.24-1.71-.3-2.66-3.28-5.73-5.45-10.27-4.2A1,1,0,0,1,233.26,155.61ZM239.73,193a11.66,11.66,0,0,1-11.86-11.8c-.06-6.56,5.56-11.94,12.4-11.85A11.69,11.69,0,0,1,251.5,181,11.9,11.9,0,0,1,239.73,193Z"/><path class="cls-4" d="M255.88,135.84h0c-2-3.7-4.68-6.58-9.33-5.67-3.92.76-5.55,4-6.78,7.42l3.26,3.63h0c6,3.62,9.27,9.41,11.95,15.6.35.8.09,2.2,1.24,2.11,1.37-.11,1.14-1.54,1.15-2.56.07-5.42.1-10.84.14-16.26l3.84-4.39-.81,0C259,135.45,257.57,140.88,255.88,135.84Z"/><path class="cls-4" d="M159.37,142.9c2.54-1.09,1.63,1.08,1.65,1.94.13,5.47.13,10.95.17,16.42l1.42,0h0a41.11,41.11,0,0,1,6.28-11.31c1.49-2,2.59-4.73,5.65-5.12-2.19-.69-1.13-2-.45-3a36.36,36.36,0,0,1,3.06-3.48v0c-2.27-.53-3.73-2.35-5.5-3.63-4.5-3.27-7.36-2.59-9.79,2.58l1.24,1.35a3.59,3.59,0,0,1-1.33.4c-1-.13-2-.42-3-.65h0a.66.66,0,0,0,0,.46c.43,1.19,2.69.54,2.42,2.08-.18,1-1.6.31-2.42.56h0l-.08.9h0l.7.59Z"/><path class="cls-5" d="M237,236.07c-2,2.28-3.92,4.64-7.09,5.48-2.15.57-2.76,0-1.63-2.62-2,1.05-3.45,1.86-4.95,2.6-3.7,1.84-5.38,1-6.08-3-.35-2.06-.38-4.18-.56-6.28a7.09,7.09,0,0,0-1.51,6.77c.93,3.67-.53,4.62-3.78,4.39a17.51,17.51,0,0,0-2.38.07c-2.59.17-3.85-.6-3.37-3.6.38-2.39.08-4.89.08-7.65-1.59,1.18-1.37,2.59-1.59,3.82s-.26,2.64-.54,3.93c-.86,3.81-3,4.48-5.81,1.68a63.59,63.59,0,0,1-4.15-5.14c-1.6,1.91.49,3.4,0,5.08v0h0c-2.74.34-4.79-.85-6.66-2.65-1.37-1.33-1.68-3.46-3.4-4.5l-.13-.09-.17,2.69a18,18,0,0,0,3.29,3.8c2,1.65,4.57,2.57,9.59,3.79,6,1.46,11.52.38,17.15.39a113.54,113.54,0,0,0,12-.67c6.38-.67,11.21-2.47,14-8.41C238.36,233.26,237.49,235.47,237,236.07Z"/><path class="cls-6" d="M189.28,214.76c1.8-1.82,4,.14,6-.28a5.72,5.72,0,0,1,1.19,0c.74,0,1.35-.26,1.38-1.06a1.23,1.23,0,0,0-1.22-1.28l-6.69-.9c-8.33-1.11-16-3.49-21.53-10.46a3.05,3.05,0,0,0-2.56-1.49h0l0,.07h-.06c3.6,9.85,12.76,11.58,21.5,14.38a25.57,25.57,0,0,0-6.51,11.6l1.59,2.56a5.15,5.15,0,0,0,.69-1.07,24.66,24.66,0,0,0,1.18-4.09A19.21,19.21,0,0,1,189.28,214.76Z"/><path class="cls-7" d="M223.27,133.6a82.52,82.52,0,0,1,17.16,7.76c.83.49,1.82,1.39,2.6-.14h0l-3.26-3.63-4.07-2.51a43,43,0,0,1,9.81-7.28,13.5,13.5,0,0,1,8.07-1.53c3.45.48,4,3.41,5.09,5.94l.07.17c.77-4.13-1.38-6.44-4.87-7.85-4.31-1.73-8,0-11.61,2.18-3.18,1.9-5.69,5.11-8.81,6.59s-7.22-1.51-11.06-.81C222.67,132.87,222.89,133.49,223.27,133.6Z"/><path class="cls-6" d="M247.64,204.65a33.84,33.84,0,0,1-18.39,6.57c-1.85.1-3.71,0-6,0a3.35,3.35,0,0,0,4,1.8c5.43-1,7.42,2.79,9.36,6.58.77,1.51,1.12,3.24,1.78,4.82.48,1.14.52,2.73,2.33,2.78.75-5.88-3.12-9.79-6.09-14.17,2.45-.77,4.9-1.37,7.21-2.29,4.29-1.71,8.68-3.38,10.66-8.15C250.24,201.81,249.06,203.63,247.64,204.65Z"/><path class="cls-8" d="M158.54,180.4c.66-6.55,3-12.73,4.09-19.2h0l-1.42,0c-2.06,0-1.48-1.76-1.52-2.67-.22-5.22-.23-10.46-.3-15.69h0l-.7-.59h0c-2.61,3.14-1.59,6.91-1.92,10.48-.56,6.14,3.06,12,1.08,18.2-1,3.19-.83,6.49-.6,9.78C157.7,180.72,158.46,181.15,158.54,180.4Z"/><path class="cls-9" d="M258.32,163.13c-2.64,3.49-.51,5.74-.08,8.45s.61,5.49.81,8.25c.09,1.32-.48,3,1.52,3.61a9,9,0,0,0,.56-6.58c-1.26-5.59-1.79-11,.11-16.63a29.08,29.08,0,0,0,1-11c-.11-1.68,0-3.48-1.64-4.63-1.18,2.34-.85,4.88-1,7.37C259.34,155.76,260.27,160.55,258.32,163.13Z"/><polygon class="cls-7" points="158.68 135.77 158.68 135.77 158.68 135.77 158.68 135.77"/><path class="cls-7" d="M161.18,132.1c1.89-5.43,4.76-6.74,10-4.29,2.6,1.22,5,2.87,7.49,4.31,1.19.69,2.27,1.78,3.84,1.14-1.9-3.18-5.06-4.83-8.12-6.56-9-5.12-15.46-1.44-15.7,8.94C160.67,135.28,160.69,133.53,161.18,132.1Z"/><path class="cls-10" d="M189.67,134.93c6.62-1.35,13.23-2.65,20-2.46a4.59,4.59,0,0,0,3-.8c-1.27-1.76-3.24-1.63-5-1.69-7.35-.26-14.52.58-21.12,4.18C187,136.58,188.73,135.12,189.67,134.93Z"/><path class="cls-11" d="M177.18,138.26h0a36.36,36.36,0,0,0-3.06,3.48c-.68,1-1.73,2.33.45,3,2.39-5.51,9.38-6.25,12-11.55.25-1.57-.39-1.9-1.71-1.2-.77.41-1.51.88-2.26,1.32l.06-.12C180.89,135,179.73,137.37,177.18,138.26Z"/><path class="cls-9" d="M255.88,135.84h0c1.69,5,3.1-.39,4.66-.13.39-1.29,1.59-2.49.3-4.14a7.42,7.42,0,0,0-2,2A5,5,0,0,1,255.88,135.84Z"/><path class="cls-12" d="M163.12,138.55l-1.24-1.35c-1.33,0-2.23-.89-3.25-1.54h0l.05.11h0c-.92-.6-1.94-2.12-2.91-.65-.64,1,.8,1.73,1.64,2.33.43.31.89.57,1.34.85h0c1,.23,2,.52,3,.65A3.59,3.59,0,0,0,163.12,138.55Z"/><path class="cls-13" d="M240.72,233.75c0-1.75,1.68-3.75-.83-5.09Q236.7,231.65,240.72,233.75Z"/><path class="cls-7" d="M221.44,132.49h0c4-7.2-1-.18-6.27-1.6C216.33,133.91,219.12,133.54,221.44,132.49Z"/><path class="cls-14" d="M165.86,199.31a.9.9,0,0,1-.08-.21c-.25-.93,1.05-2-.09-2.88l-2.18,1.45-.17.07a1,1,0,0,0-.65.81c.12.76,0,1.92.4,2.19,1.39.88,1.6-1.33,2.76-1.36h.06Z"/><path class="cls-15" d="M261.38,138.85c-.22-1,2.05-2.1,0-3.13h0l-3.84,4.39C259.31,141.27,260.17,139.54,261.38,138.85Z"/><path class="cls-9" d="M259.25,142c-1.78,2.22.07,1.79,1.34,1.75.39-1.24,3.6-1.82.9-3.8A18.89,18.89,0,0,0,259.25,142Z"/><path class="cls-9" d="M256.06,194.91c.74.7,3,.52,3.33,1.46,1.32-.27,3,.22,3.78-1.7-1.84-1.15-4.38-.5-5.95-2.16l-.16-.17C255.71,193.78,255.62,194.5,256.06,194.91Z"/><path class="cls-15" d="M255,197.67c.62.38,1.44.55,2.06.93.81-.69,2.83.81,2.74-1.51l-4.2-1-1.49-.34A1.8,1.8,0,0,0,255,197.67Z"/><path class="cls-9" d="M252.3,200.26a2.76,2.76,0,0,1,1.45.37c1,.43,2,.82,2.31-1.38-.5-.18-1-.39-1.49-.58a7.72,7.72,0,0,0-1.38-.41C250.41,197.74,251.66,199.16,252.3,200.26Z"/><path class="cls-9" d="M160.23,187.54a3.46,3.46,0,0,1-.3.28c-1.68,1.39-4.09.61-6,1.59.69,2,2.35,1.62,3.64,2,.37-.88,2.45-.6,3.32-1.14C161.5,189.89,161.56,189.18,160.23,187.54Z"/><path class="cls-15" d="M163,191.22l-1.58.24-4.19.62c-.26,2.3,1.86,1,2.61,1.71.62-.32,1.41-.43,2-.73A1.81,1.81,0,0,0,163,191.22Z"/><path class="cls-9" d="M164.38,195.8c.72-1,2.08-2.37-.75-2.07a8.29,8.29,0,0,0-1.58.36c-.45.14-.9.29-1.35.42.13,2.18,1.12,1.92,2.14,1.57A2.91,2.91,0,0,1,164.38,195.8Z"/><path class="cls-16" d="M161.17,140.84c.28-1.53-2-.89-2.42-2.08-.84.37-2.46-.47-2.42,1.1,0,1.15,1.47,1.21,2.42,1.54h0C159.58,141.15,161,141.83,161.17,140.84Z"/><path class="cls-17" d="M184.36,169.17c-6.42-.09-12.53,5.65-12.61,11.85a12,12,0,0,0,11.63,12.13c7,.08,12.39-5,12.48-11.68S190.71,169.26,184.36,169.17Zm3.34,11.78A3.71,3.71,0,0,1,184,176.7c.12-2.48,1.64-3.84,4.19-3.71s3.53,1.92,3.9,4.18C191.51,179.52,190.18,181.09,187.7,180.95Z"/><path class="cls-17" d="M240.27,169.32c-6.83-.08-12.46,5.29-12.4,11.85A11.66,11.66,0,0,0,239.73,193a11.9,11.9,0,0,0,11.77-12A11.69,11.69,0,0,0,240.27,169.32Zm3.47,11.41c-2.43-.08-3.87-1.64-3.8-4.19s1.65-3.72,3.91-4.06c2.57.41,4,1.78,3.92,4.29S246.18,180.8,243.74,180.72Z"/><path class="cls-18" d="M211.26,197.2c-2.12-.46-4.41-1.7-5.55-1a2.44,2.44,0,0,0-1,3.13c.74,1.58,4.68,1.78,7.84,1.71s6.23-.57,5.52-3.65C217.25,193.93,213.08,197.6,211.26,197.2Z"/><path class="cls-8" d="M180.73,162.85c2.34-2.51,5-3.72,8.5-2.79a1.56,1.56,0,0,0,2.12-1.21,2.45,2.45,0,0,0-1.64-2.46c-3.37-1.61-9.8.89-11.3,4.48-.22.77-.86,1.68,0,2.49S180.15,163.47,180.73,162.85Z"/><path class="cls-19" d="M234.46,156.81c4.54-1.25,7.61.92,10.27,4.2.44.54,1.17.86,1.71.3.27-.27.2-1,.08-1.49-.91-3.74-6.35-7.35-10.2-6.82-1.59.2-2.77.91-3.06,2.61A1,1,0,0,0,234.46,156.81Z"/><path class="cls-20" d="M183.48,234.15a9.08,9.08,0,0,1,.61-1.12c.36-.53,1-1.07.23-1.63a1.39,1.39,0,0,0-1-.27,2.62,2.62,0,0,0-1.21.5c-.51.36-1.43,1-.65,1.4,1.89.93.43,3,1.73,4l.17-2.69Z"/><path class="cls-20" d="M183.23,229.1c-.83-.6-1.46-1.27-2.67-.62a1.07,1.07,0,0,0-.13,1,2.08,2.08,0,0,0,2.87,1,6.8,6.8,0,0,0,1.3-.73A3.42,3.42,0,0,1,183.23,229.1Z"/><path class="cls-3" d="M161.88,137.2c2.43-5.17,5.28-5.85,9.79-2.58,1.77,1.28,3.23,3.1,5.5,3.63h0c2.55-.88,3.7-3.27,5.44-5l-.11,0c-1.56.64-2.65-.45-3.84-1.14-2.5-1.44-4.89-3.09-7.49-4.31-5.24-2.46-8.11-1.14-10,4.29-.5,1.43-.51,3.18-2.49,3.54l-.06,0h0C159.65,136.32,160.55,137.21,161.88,137.2Z"/><path class="cls-3" d="M159.37,142.9h0c.08,5.23.08,10.46.3,15.69,0,.91-.54,2.69,1.52,2.67,0-5.47,0-10.95-.17-16.42C161,144,161.92,141.8,159.37,142.9Z"/><path class="cls-21" d="M188.18,173c-2.55-.12-4.07,1.23-4.19,3.71a3.71,3.71,0,0,0,3.72,4.25c2.48.14,3.81-1.42,4.37-3.78C191.7,174.91,190.79,173.11,188.18,173Z"/><path class="cls-22" d="M243.85,172.47c-2.26.34-3.85,1.49-3.91,4.06s1.38,4.11,3.8,4.19,4-1.43,4-4S246.42,172.88,243.85,172.47Z"/></g><path class="cls-3" d="M184.45,82.34s28-22.87,35.27-10.25c1.78,4.74,2.58,6.57,2.58,6.57l.38,4.32-5.52,3.93-24,2.92Z"/><path class="cls-3" d="M102.38,224.1a29.09,29.09,0,0,1,3.61-8.69c4.91-7.71,5.45-8,15.73-8.08-5.92-1.7-11.57-1.94-17.06-3-12.45-2.41-21.59-9.73-29.46-19.1l.15.12c-.75-1.73-1.48-3.48-3.94-2.35-1.22-1.77-.49-4.24-2.11-5.87-.85-5.51-4-10.25-5.29-15.6l-2.39-5.68c2.14-10.29,4.24-20.59,7-30.73,4.1-11,9.38-21.18,19.48-28,4.93-7.57,13.15-11.2,19.89-16.6l.08,1.47c1.43,1.18,2.73.17,4.12-.17,12.25-3,24.57-5.51,37.31-3.77l3.88-1.24a17.65,17.65,0,0,0,8.88,2.54h2.53a107,107,0,0,1,28,12,8.6,8.6,0,0,0,5.41,1.11c3.86.6,6.09,3.37,8.37,6.15a88.16,88.16,0,0,1,11.76,18.41c1.27-8.38-1-16.83,1.39-25,2-1.68,4-3.23,6.89-2.61l.18,1.82c.29,2.18-2.79,3.57-1.42,6a9.29,9.29,0,0,1,.05,1.25c1.11,9.17.17,18.26-1.17,27.33-.27,1.81-.09,4.28-2.27,4.71s-1.3,1.57-1,2.5c3,8.76,3.43,17.91,4.35,27L224,162.81c-1.81,3.45-1.29,7.66-3.63,10.93L219,176.51c-1.91,3.44-4.44,12.51-6.54,13.91a96.68,96.68,0,0,1-20.55,12,42.34,42.34,0,0,1-19.28,3c7.7-1.8,11.72,3.81,15.39,10.19,2.52,4.38,3,9.58,5.77,13.82l-1.25,2.3c-.6,2.85-1.22,5.71,1.31,8.06l-2.39,3.52c-3.57.85-4.81,4.46-7.5,6.37-3.79,2.69-7.41,5.8-12.46,2.93-1.31-.75-2.38-.07-3.57.32-9.54,3.13-11.95,1.47-13.21-9.06a5.21,5.21,0,0,0,0,1.44c.94,11,.78,11.2-9.73,11-7.32-.17-8.1-1-7.94-8.58,0-1.89,0-3.78,0-5.67,0-.84-1-.27-.13-.39.07,0,.11.19.1.6a42.73,42.73,0,0,1-.16,6.29c-.48,3-1.31,5.93-4.55,7s-5.71-.4-8-2.47c-1.24-1.12-2-2.69-3.55-3.79-1.77,5.45-5.52,4.76-9.43,2.89-4.49-2.14-6.46-6.4-8.42-10.61a12.85,12.85,0,0,1-.54-2.44c-.33,2.25,1.53,4,1,6.08"/><path class="cls-4" d="M220.49,91.43c-.07,8.59-.12,17.18-.23,25.76,0,1.61.35,3.88-1.82,4.05-1.82.15-1.42-2.07-2-3.34-4.23-9.81-9.34-19-18.93-24.72-3.61-.23-4.34-3-5.16-5.76,1.94-5.42,4.52-10.55,10.74-11.76,7.37-1.43,11.6,3.12,14.79,9,2.54,2.75,4.88-1.52,7.38-.2l1.28,0C226.75,88.72,223.25,89.75,220.49,91.43Z"/><path class="cls-4" d="M89.07,98.8c-4.85.62-6.6,4.88-9,8.11-4,5.53-7.8,11.31-10,17.92a2.21,2.21,0,0,1-2.86-.14C64.88,120,66.43,115,66,110.08c-.38-4.28.8-8.66-.88-12.83a3.22,3.22,0,0,1-1.24-2.35L64,93.47c1-1.58,2.25-1.25,3.46-.76-.6-1.42-4.38-.14-3.45-3.42a1,1,0,0,1,0-.73c.92-1.19,2.16-.74,3.3-.6,2.81.34.39-1.45.85-2.07,3.53-8.12,9.3-9.95,16.3-5a54.32,54.32,0,0,1,8.34,6.6c1.32,2.35-.53,3.75-1.7,5.27C89.71,94.54,88.66,96.4,89.07,98.8Z"/><path class="cls-5" d="M102.75,245c-.32-1.45-.71-2.9.27-4.27,2.93,1.6,3.35,5.11,5.59,7.27,3,2.87,6.23,4.76,10.59,4.2.87-2.69-2.51-5.05,0-8.1a100.89,100.89,0,0,0,6.58,8.14c4.38,4.43,7.84,3.37,9.2-2.66.46-2,.5-4.16.86-6.22s0-4.19,2.51-6.06c0,4.39.48,8.34-.12,12.13-.76,4.74,1.24,6,5.35,5.7a27.72,27.72,0,0,1,3.77-.12c5.15.37,7.46-1.13,6-6.95a11.23,11.23,0,0,1,2.4-10.73c.28,3.32.32,6.68.88,10,1.1,6.47,3.77,7.73,9.63,4.81,2.37-1.18,4.68-2.46,7.84-4.13-1.8,4.1-.82,5.06,2.58,4.15,5-1.34,8-5.08,11.24-8.69.85-1,2.23-4.46,3.58-.16-4.47,9.41-12.13,12.26-22.24,13.32a179.87,179.87,0,0,1-18.95,1.06c-8.91,0-17.67,1.7-27.17-.62-7.94-1.94-12.09-3.39-15.19-6a28.51,28.51,0,0,1-5.21-6"/><path class="cls-6" d="M99,226.51c2.27-7.68,5.31-13.42,10.31-18.38-13.88-4.45-28.44-7.18-34.12-22.91,1.91-.13,3.1,1,4.15,2.36,8.69,11,20.92,14.8,34.11,16.57l10.6,1.42a1.94,1.94,0,0,1,1.93,2c0,1.25-1,1.68-2.18,1.67a9.05,9.05,0,0,0-1.88,0c-3.18.67-6.68-2.44-9.53.44a30.44,30.44,0,0,0-7.9,12.68c-.82,2.76-.93,5.79-3,8.18"/><path class="cls-7" d="M192.38,87.42l5.16,5.76c-1.24,2.42-2.81,1-4.12.22a130.74,130.74,0,0,0-27.18-12.29c-.6-.19-.95-1.16-1.41-1.76,6.08-1.12,12.5,3.67,17.53,1.28s8.91-7.43,14-10.44c5.66-3.38,11.57-6.19,18.4-3.45,5.54,2.22,8.93,5.88,7.72,12.43-1.78-4.06-2.58-8.9-8.18-9.68a21.4,21.4,0,0,0-12.79,2.43c-5.62,2.85-10.49,6.81-15.54,11.53Z"/><path class="cls-6" d="M193.83,229.43c-2.87-.08-2.94-2.61-3.69-4.41-1.05-2.5-1.6-5.24-2.83-7.63-3.07-6-6.23-11.93-14.83-10.42-1.69.3-4.23.65-6.32-2.85,3.68,0,6.63.13,9.56,0a53.62,53.62,0,0,0,29.14-10.42c2.24-1.62,4.11-4.49,7.63-3.26-3.14,7.56-10.1,10.2-16.89,12.92-3.67,1.47-7.55,2.42-11.43,3.64C188.88,213.92,195,220.11,193.83,229.43Z"/><path class="cls-8" d="M67.89,124.91l2.26-.07c-1.65,10.25-5.43,20-6.47,30.42-.12,1.18-1.33.5-2.06.58-.36-5.21-.66-10.45.95-15.5,3.14-9.85-2.6-19.12-1.71-28.84.52-5.65-1.1-11.63,3-16.6l1.11.93c2.71,3.08,1,6.79,1.43,10.19C67.28,112.28,64.74,118.82,67.89,124.91Z"/><path class="cls-9" d="M225.36,160.05c-3.18-.89-2.26-3.62-2.41-5.71-.31-4.37-.59-8.71-1.28-13.07s-4.07-7.85.12-13.39c3.09-4.08,1.62-11.67,2-17.7.27-3.94-.25-8,1.61-11.67,2.61,1.83,2.43,4.67,2.6,7.33.37,5.9.24,12-1.6,17.44-3,9-2.17,17.49-.18,26.35C227,153,227.26,156.72,225.36,160.05Z"/><path class="cls-7" d="M63.91,84.54c.3-16.62,10.5-22.53,24.88-14.37,4.9,2.78,9.94,5.4,12.95,10.52l-.72.58c-3.25,1-5.51-1.1-8-2.48-4-2.19-7.61-5.09-12.19-6.13-5.88-1.34-9,.31-11.24,5.91-1,2.55-.88,6-4.84,6.38Z"/><path class="cls-10" d="M149.53,78a7.28,7.28,0,0,1-4.77,1.27C134,79,123.5,81.08,113,83.21c-1.49.3-4.18,2.62-4.9-1.23,10.46-5.7,21.81-7,33.46-6.62C144.4,75.45,147.52,75.24,149.53,78Z"/><path class="cls-11" d="M89.07,98.8c-3.46-1.09-1.8-3.23-.72-4.79a58.23,58.23,0,0,1,4.87-5.53c1.63-4,5-6.11,8.61-8l-.1.19c1.19-.7,2.36-1.44,3.58-2.09,2.09-1.1,3.11-.59,2.71,1.9C103.93,88.9,92.85,90.08,89.07,98.8Z"/><path class="cls-9" d="M225.29,84.45c-2.47-.42-4.7,8.19-7.38.2,3.81-.73,4.76-5,7.86-6.76C227.81,80.5,225.91,82.41,225.29,84.45Z"/><path class="cls-12" d="M69,86.81l2,2.14a5.69,5.69,0,0,1-2.11.63c-1.62-.2-3.21-.67-4.82-1-.71-.45-1.44-.87-2.12-1.35-1.34-1-3.62-2.17-2.6-3.7,1.54-2.32,3.16.08,4.61,1l-.09-.18C65.42,85.42,67.76,84.93,69,86.81Z"/><path class="cls-13" d="M193.89,239.79q-6.37-3.32-1.31-8.06C196.56,233.84,194,237,193.89,239.79Z"/><path class="cls-7" d="M163.35,79.34c-3.68,1.66-8.1,2.25-9.94-2.54C161.78,79.06,169.76,67.94,163.35,79.34Z"/><path class="cls-14" d="M71.54,182.63l3.46-2.3c2,1.58-.72,3.44.34,5-1.94-.09-2.23,3.57-4.48,2.16-.67-.42-.45-2.28-.64-3.47A1.65,1.65,0,0,1,71.54,182.63Z"/><path class="cls-15" d="M220.49,91.43l6.08-7c3.3,1.62-.31,3.3,0,5C224.72,90.52,223.35,93.26,220.49,91.43Z"/><path class="cls-9" d="M225.38,97.26c-2,.06-4.94.74-2.13-2.77a29.87,29.87,0,0,1,3.55-3.24C231.08,94.37,226,95.29,225.38,97.26Z"/><path class="cls-9" d="M223.47,180.56c-.8-2.38-9.44-.24-3.68-6.4,2.45,3,6.66,1.82,9.68,3.7C228.15,180.9,225.56,180.13,223.47,180.56Z"/><path class="cls-15" d="M215,179.66l9,2c.14,3.67-3.05,1.3-4.33,2.39C217.86,182.94,214.8,183,215,179.66Z"/><path class="cls-9" d="M212.24,186.72c-1-1.74-3-4,1.43-3.19a29.87,29.87,0,0,1,4.54,1.58C217.49,190.37,214.27,186.32,212.24,186.72Z"/><path class="cls-9" d="M62.21,172.66c1-2.31,9.43.47,4.16-6.1-2.67,2.81-6.78,1.31-9.93,3C57.52,172.65,60.16,172.08,62.21,172.66Z"/><path class="cls-15" d="M70.68,172.4l-9.14,1.36c-.42,3.65,2.95,1.53,4.14,2.72C67.62,175.46,70.67,175.79,70.68,172.4Z"/><path class="cls-9" d="M72.94,179.66c1.14-1.66,3.29-3.76-1.19-3.29a29.87,29.87,0,0,0-4.64,1.23C67.43,182.89,70.95,179.11,72.94,179.66Z"/><path class="cls-16" d="M64,89.29c.68,1.88,4.26.86,3.83,3.29-.28,1.56-2.53.48-3.84.89-1.5-.51-3.8-.6-3.83-2.43C60.13,88.54,62.7,89.87,64,89.29Z"/><path class="cls-17" d="M103,175.45a19,19,0,0,1-18.42-19.22c.12-9.81,9.81-18.92,20-18.77s18.35,9,18.21,19.48S114.07,175.57,103,175.45Z"/><path class="cls-17" d="M173.53,156.47c-.1-10.39,8.82-18.91,19.65-18.78,9.65.12,17.69,8.46,17.79,18.45a18.86,18.86,0,0,1-18.65,19C181.93,175.35,173.63,167.1,173.53,156.47Z"/><path class="cls-8" d="M95.19,124.3c2.38-5.68,12.56-9.65,17.9-7.09,1.62.78,2.78,2.06,2.59,3.9s-2.08,2.26-3.36,1.92c-5.54-1.47-9.76.45-13.48,4.42-.93,1-2.25,2.27-3.73.8C93.83,127,94.84,125.51,95.19,124.3Z"/><path class="cls-19" d="M186.92,111.84c6.11-.85,14.71,4.87,16.16,10.8.19.76.29,1.93-.13,2.36-.87.89-2,.38-2.71-.47-4.21-5.2-9.07-8.64-16.27-6.66a1.58,1.58,0,0,1-1.89-1.89C182.53,113.28,184.4,112.16,186.92,111.84Z"/><path class="cls-20" d="M103,240.78l-.27,4.27c-2.06-1.59.25-4.93-2.74-6.41-1.24-.61.21-1.65,1-2.22,1.09-.76,2.35-1.19,3.48-.37s.21,1.75-.36,2.59A20.45,20.45,0,0,0,103,240.78Z"/><path class="cls-20" d="M105,233.44c-3.2,2.22-5.11,2-6.6-.4a1.7,1.7,0,0,1,.2-1.61C101.36,229.92,102.21,232.9,105,233.44Z"/><path class="cls-3" d="M69,86.81c-2.11,0-3.54-1.41-5.15-2.45,3.24-.52,3.25-3.35,4-5.64,3-8.6,7.55-10.68,15.84-6.79,4.12,1.93,7.91,4.55,11.87,6.83,1.93,1.11,3.68,2.93,6.26,1.74-2.75,2.79-4.58,6.57-8.61,8-3.62-.83-5.94-3.72-8.75-5.76C77.34,77.54,72.82,78.62,69,86.81Z"/><path class="cls-3" d="M67.89,124.91c-3.27,0-2.35-2.78-2.41-4.23-.35-8.28-.36-16.57-.48-24.85,4-1.73,2.59,1.71,2.62,3.07C67.82,107.57,67.82,116.24,67.89,124.91Z"/><path class="cls-21" d="M116.81,150.14c-.88,3.73-3,6.21-6.93,6s-6.08-2.88-5.89-6.73,2.6-6.08,6.64-5.88S116.23,146.55,116.81,150.14Z"/><path class="cls-22" d="M198.85,142.69c4.08.65,6.32,2.82,6.22,6.8s-2.52,6.4-6.39,6.27-6.13-2.59-6-6.64S195.26,143.23,198.85,142.69Z"/><path class="cls-17" d="M140.34,183.79c-.57-1.73-2-.56-3-.82-1.78-.47-3-.93-2.42-3.18.43-1.76,1.25-2.16,2.93-1.7,2,.54,3.93.7,5.45-1.1,1.88-.71,2.42-1.72,1.23-3.63-1.62-2.57-.53-4.62,2.48-5.29a8.16,8.16,0,0,1,4.29.33c2.22.7,2.87,2.69,1.54,4.73a1.66,1.66,0,0,0,.19,2.45c2.36,2.68,4.13,3.15,7.23,1.34,1.26-.74,2.3-1,3.42.08,1.4,2.06.16,3.27-1.41,4.37-3.11.77-4,3-4.54,6a7.64,7.64,0,0,1-6.65,5.83c-4.83.34-7.88-1.17-9.34-4.76C141.13,186.92,140.79,185.33,140.34,183.79Z"/><path class="cls-23" d="M153.5,184.16c-.15,2.47-2.15,4.6-4.18,4.46s-4.15-2.93-4-5.08c.06-.93,3.31-3.69,4.22-3.58C151,180.14,153.58,182.86,153.5,184.16Z"/><path class="cls-24" d="M231.88,95.26c-4.5-6.82-3.27-11.76-.39-17.65,5-10.34,3.41-18.15-5.25-25.85C212.13,39.21,195.15,33.17,177,30.2c-11.8-1.93-19.82,1.9-24.32,10.39h0l-2.44,1.75c-.85,2.69-2.8,5.59-2.32,8,1.1,5.5-2.1,6-5.63,6.63-1.47-1.79-3.38-1.1-5.16-.7-3.36.76-5.94,2.91-8.48,5.07-4.7,5.64-8.3,11.54-6.28,19.46a36.52,36.52,0,0,0,7.61,14.57,79.58,79.58,0,0,0,28.09,21c18.65,8.66,37.88,14.65,58.9,10.79C233.74,124.11,241.27,109.49,231.88,95.26Z"/><path class="cls-25" d="M205.26,67.17c-16.77-3.83-29-10.59-39.62-20.33-1.72-1.58-4-3.48-2.83-6.44,1-2.63,3.49-2.59,5.88-2.85,12.92-1.42,24.4,3.16,35.74,8.39,7.89,3.64,15.14,8.18,20.45,15.23,3,4,2.13,5.63-2.68,6.94C215.4,70,209.05,67.8,205.26,67.17Z"/><path class="cls-26" d="M158.77,75.82c7.82,7.6,17.87,11,27.8,14.49a106.2,106.2,0,0,0,24.22,5c1.67.18,4.91-.7,4.64,2.9-.21,2.8-1.74,4.68-4.67,5a19.75,19.75,0,0,1-5.86.28c-15-2.94-29.6-7-42.49-16-4-2.81-8.21-5.59-12.51-8.09C152.67,77.74,155.83,77.05,158.77,75.82Z"/><path class="cls-27" d="M180.24,187.5a24.35,24.35,0,0,1-7.47-2.57c-4.77-2.9-3.81-6.13,2.47-6.67,5.11-.44,10.51,0,15.21,2.32,5,2.47,4.6,5.8-1,6.81A28,28,0,0,1,180.24,187.5Z"/><path class="cls-27" d="M119.94,184.69a24.35,24.35,0,0,0,7.64-2c5-2.54,4.26-5.83-2-6.84-5.06-.82-10.48-.77-15.34,1.18-5.19,2.09-5,5.44.46,6.86A28,28,0,0,0,119.94,184.69Z"/><g class="cls-28"><path class="cls-3" d="M105.62,134.82s17.66-14.44,22.26-6.47c1.12,3,1.63,4.14,1.63,4.14l.24,2.73-3.48,2.48-15.17,1.84Z"/><path class="cls-3" d="M53.83,224.3a18.36,18.36,0,0,1,2.28-5.49c3.1-4.87,3.44-5.06,9.92-5.1-3.74-1.07-7.3-1.22-10.77-1.9-7.86-1.52-13.63-6.14-18.6-12.05l.09.07c-.47-1.09-.94-2.2-2.49-1.48-.77-1.12-.31-2.67-1.33-3.7-.54-3.48-2.51-6.47-3.34-9.85l-1.51-3.58c1.35-6.49,2.68-13,4.44-19.4,2.59-6.94,5.92-13.37,12.3-17.67,3.11-4.78,8.3-7.07,12.55-10.48l.05.93c.9.74,1.72.11,2.6-.11,7.73-1.91,15.51-3.48,23.55-2.38l2.45-.78a11.14,11.14,0,0,0,5.61,1.6h1.6a67.52,67.52,0,0,1,17.66,7.6,5.43,5.43,0,0,0,3.41.7c2.43.38,3.84,2.13,5.29,3.88A55.64,55.64,0,0,1,127,156.74c.8-5.29-.62-10.62.88-15.79,1.25-1.06,2.54-2,4.35-1.65l.11,1.15c.18,1.38-1.76,2.26-.9,3.8a5.87,5.87,0,0,1,0,.79,64.33,64.33,0,0,1-.74,17.25c-.17,1.14-.06,2.7-1.43,3s-.82,1-.62,1.58c1.87,5.53,2.17,11.31,2.74,17l-.85,1.74c-1.14,2.17-.82,4.83-2.29,6.9l-.85,1.74c-1.21,2.17-2.8,7.9-4.13,8.78a61,61,0,0,1-13,7.56,26.72,26.72,0,0,1-12.17,1.91c4.86-1.13,7.4,2.4,9.71,6.43,1.59,2.77,1.89,6,3.64,8.73l-.79,1.45c-.38,1.8-.77,3.61.83,5.09l-1.51,2.22c-2.25.54-3,2.81-4.73,4-2.39,1.7-4.68,3.66-7.86,1.85-.83-.47-1.5,0-2.25.2-6,2-7.54.93-8.34-5.72a3.29,3.29,0,0,0,0,.91c.59,7,.5,7.07-6.14,6.92-4.62-.11-5.11-.65-5-5.42,0-1.19,0-2.38,0-3.58,0-.53-.61-.17-.08-.25,0,0,.07.12.06.38a27,27,0,0,1-.1,4c-.31,1.87-.83,3.74-2.87,4.42s-3.61-.25-5.05-1.56a22,22,0,0,0-2.24-2.39c-1.12,3.44-3.48,3-6,1.82-2.83-1.35-4.08-4-5.31-6.7a8.11,8.11,0,0,1-.34-1.54c-.21,1.42,1,2.5.64,3.84"/><path class="cls-4" d="M128.37,140.57c0,5.42-.08,10.84-.14,16.26,0,1,.22,2.45-1.15,2.56-1.15.09-.9-1.31-1.24-2.11-2.67-6.19-5.9-12-11.95-15.6-2.28-.14-2.74-1.92-3.26-3.63,1.23-3.42,2.85-6.66,6.78-7.42,4.65-.9,7.32,2,9.33,5.67,1.6,1.74,3.08-1,4.66-.13l.81,0C132.32,138.86,130.11,139.5,128.37,140.57Z"/><path class="cls-4" d="M45.42,145.22c-3.06.39-4.16,3.08-5.65,5.12a41.11,41.11,0,0,0-6.28,11.31,1.39,1.39,0,0,1-1.8-.09c-1.52-3-.54-6.15-.81-9.22-.24-2.7.5-5.46-.55-8.1a2,2,0,0,1-.78-1.48l.08-.9c.63-1,1.42-.79,2.18-.48-.38-.9-2.76-.09-2.18-2.16a.66.66,0,0,1,0-.46c.58-.75,1.36-.47,2.08-.38,1.77.22.25-.91.54-1.31,2.23-5.13,5.87-6.28,10.29-3.18A34.28,34.28,0,0,1,47.79,138c.83,1.48-.34,2.37-1.07,3.33A4.81,4.81,0,0,0,45.42,145.22Z"/><path class="cls-5" d="M54.06,237.52a3.12,3.12,0,0,1,.17-2.7c1.85,1,2.12,3.23,3.53,4.59,1.87,1.81,3.93,3,6.68,2.65.55-1.7-1.59-3.19,0-5.12a63.67,63.67,0,0,0,4.15,5.14c2.77,2.8,4.95,2.13,5.81-1.68.29-1.28.32-2.63.54-3.93s0-2.64,1.59-3.82c0,2.77.31,5.27-.08,7.65-.48,3,.78,3.77,3.37,3.6a17.49,17.49,0,0,1,2.38-.07c3.25.23,4.71-.71,3.78-4.39a7.09,7.09,0,0,1,1.51-6.77c.17,2.1.2,4.21.56,6.28.69,4.08,2.38,4.88,6.08,3,1.49-.74,3-1.55,4.95-2.6-1.14,2.59-.52,3.19,1.63,2.62,3.17-.85,5.06-3.21,7.09-5.48.54-.6,1.41-2.82,2.26-.1-2.82,5.94-7.66,7.74-14,8.41a113.52,113.52,0,0,1-12,.67c-5.63,0-11.15,1.07-17.15-.39-5-1.22-7.63-2.14-9.59-3.79a18,18,0,0,1-3.29-3.8"/><path class="cls-6" d="M51.7,225.81a25.57,25.57,0,0,1,6.51-11.6c-8.76-2.81-18-4.53-21.53-14.46a3,3,0,0,1,2.62,1.49c5.49,7,13.2,9.34,21.53,10.46l6.69.9a1.23,1.23,0,0,1,1.22,1.28c0,.79-.64,1.06-1.38,1.06a5.71,5.71,0,0,0-1.19,0c-2,.42-4.21-1.54-6,.28a19.21,19.21,0,0,0-5,8c-.52,1.74-.59,3.66-1.87,5.16"/><path class="cls-7" d="M110.63,138l3.26,3.64c-.78,1.53-1.77.62-2.6.14A82.51,82.51,0,0,0,94.13,134c-.38-.12-.6-.73-.89-1.11,3.84-.71,7.89,2.32,11.06.81s5.63-4.69,8.81-6.59c3.57-2.13,7.3-3.91,11.61-2.18,3.49,1.4,5.64,3.71,4.87,7.85-1.12-2.56-1.63-5.62-5.16-6.11a13.5,13.5,0,0,0-8.07,1.53,43,43,0,0,0-9.81,7.28Z"/><path class="cls-6" d="M111.54,227.66c-1.81-.05-1.85-1.65-2.33-2.78-.66-1.58-1-3.3-1.78-4.82-1.94-3.79-3.93-7.53-9.36-6.58a3.35,3.35,0,0,1-4-1.8c2.32,0,4.18.08,6,0a33.84,33.84,0,0,0,18.39-6.57c1.42-1,2.59-2.83,4.82-2.06-2,4.77-6.37,6.44-10.66,8.15-2.32.93-4.76,1.53-7.21,2.29C108.42,217.87,112.3,221.78,111.54,227.66Z"/><path class="cls-8" d="M32.06,161.7l1.43,0c-1,6.47-3.42,12.65-4.09,19.2-.08.75-.84.32-1.3.37-.23-3.29-.42-6.6.6-9.78,2-6.22-1.64-12.06-1.08-18.2.33-3.57-.69-7.34,1.92-10.48l.7.59c1.71,1.94.61,4.28.9,6.43C31.67,153.73,30.07,157.85,32.06,161.7Z"/><path class="cls-9" d="M131.44,183.87c-2-.56-1.43-2.28-1.52-3.61-.2-2.76-.37-5.5-.81-8.25s-2.57-5,.08-8.45c1.95-2.58,1-7.36,1.28-11.17.17-2.48-.16-5,1-7.37,1.64,1.15,1.53,2.95,1.64,4.63a29.08,29.08,0,0,1-1,11c-1.9,5.65-1.37,11-.11,16.63A9,9,0,0,1,131.44,183.87Z"/><path class="cls-7" d="M29.54,136.22c.19-10.49,6.63-14.22,15.71-9.07,3.09,1.75,6.28,3.41,8.17,6.64l-.46.36c-2,.66-3.48-.7-5.06-1.56-2.52-1.38-4.8-3.21-7.69-3.87-3.71-.84-5.67.19-7.1,3.73-.65,1.61-.56,3.81-3.05,4Z"/><path class="cls-10" d="M83.59,132.11a4.59,4.59,0,0,1-3,.8c-6.81-.19-13.42,1.12-20,2.46-.94.19-2.64,1.65-3.09-.78,6.6-3.6,13.76-4.44,21.12-4.18C80.35,130.48,82.32,130.35,83.59,132.11Z"/><path class="cls-11" d="M45.42,145.22c-2.19-.69-1.13-2-.45-3A36.75,36.75,0,0,1,48,138.7c1-2.52,3.16-3.86,5.44-5l-.06.12c.75-.44,1.49-.91,2.26-1.32,1.32-.7,2-.37,1.71,1.2C54.8,139,47.81,139.71,45.42,145.22Z"/><path class="cls-9" d="M131.4,136.16c-1.56-.27-3,5.17-4.66.13,2.4-.46,3-3.15,5-4.27C133,133.66,131.79,134.87,131.4,136.16Z"/><path class="cls-12" d="M32.74,137.65,34,139a3.59,3.59,0,0,1-1.33.4c-1-.13-2-.42-3-.65-.45-.28-.91-.55-1.34-.85-.85-.6-2.28-1.37-1.64-2.33,1-1.46,2,.05,2.91.65l-.05-.11C30.5,136.77,32,136.46,32.74,137.65Z"/><path class="cls-13" d="M111.58,234.2q-4-2.1-.83-5.09C113.27,230.44,111.63,232.45,111.58,234.2Z"/><path class="cls-7" d="M92.3,132.93c-2.32,1-5.12,1.42-6.27-1.6C91.31,132.75,96.35,125.74,92.3,132.93Z"/><path class="cls-14" d="M34.36,198.12l2.18-1.45c1.26,1-.45,2.17.22,3.16-1.23-.06-1.41,2.25-2.82,1.36-.43-.27-.28-1.44-.4-2.19A1,1,0,0,1,34.36,198.12Z"/><path class="cls-15" d="M128.37,140.57l3.84-4.39c2.08,1-.19,2.09,0,3.13C131,140,130.17,141.72,128.37,140.57Z"/><path class="cls-9" d="M131.45,144.24c-1.27,0-3.12.47-1.34-1.75a18.85,18.85,0,0,1,2.24-2C135,142.42,131.84,143,131.45,144.24Z"/><path class="cls-9" d="M130.25,196.82c-.51-1.5-6-.15-2.33-4,1.55,1.89,4.2,1.15,6.11,2.34C133.2,197,131.57,196.55,130.25,196.82Z"/><path class="cls-15" d="M124.93,196.25l5.69,1.29c.09,2.32-1.93.82-2.74,1.51C126.71,198.32,124.78,198.38,124.93,196.25Z"/><path class="cls-9" d="M123.16,200.7c-.64-1.1-1.89-2.52.9-2a18.85,18.85,0,0,1,2.86,1C126.47,203,124.44,200.45,123.16,200.7Z"/><path class="cls-9" d="M28.47,191.83c.62-1.46,6,.3,2.62-3.85-1.69,1.77-4.28.83-6.27,1.87C25.51,191.82,27.18,191.47,28.47,191.83Z"/><path class="cls-15" d="M33.82,191.67l-5.77.86c-.26,2.3,1.86,1,2.61,1.71C31.89,193.6,33.81,193.81,33.82,191.67Z"/><path class="cls-9" d="M35.25,196.25c.72-1,2.08-2.37-.75-2.07a18.85,18.85,0,0,0-2.93.78C31.77,198.29,34,195.9,35.25,196.25Z"/><path class="cls-16" d="M29.62,139.21c.43,1.19,2.69.54,2.42,2.08-.18,1-1.6.3-2.42.56-.95-.32-2.4-.38-2.42-1.54C27.16,138.74,28.78,139.58,29.62,139.21Z"/><path class="cls-17" d="M54.24,193.59a12,12,0,0,1-11.63-12.13c.08-6.19,6.19-11.94,12.61-11.85s11.58,5.69,11.49,12.3S61.2,193.67,54.24,193.59Z"/><path class="cls-17" d="M98.73,181.61c-.06-6.56,5.56-11.94,12.4-11.85a11.69,11.69,0,0,1,11.23,11.64,11.9,11.9,0,0,1-11.77,12A11.66,11.66,0,0,1,98.73,181.61Z"/><path class="cls-18" d="M75.54,199.78a2.44,2.44,0,0,1,1-3.13c1.14-.7,3.43.54,5.55,1,1.83.4,6-3.27,6.79.19.71,3.08-2.43,3.59-5.52,3.65S76.29,201.36,75.54,199.78Z"/><path class="cls-8" d="M49.29,161.31c1.5-3.58,7.93-6.09,11.3-4.48a2.45,2.45,0,0,1,1.64,2.46,1.56,1.56,0,0,1-2.12,1.21c-3.49-.93-6.16.28-8.5,2.79-.59.63-1.42,1.43-2.35.5S49.06,162.07,49.29,161.31Z"/><path class="cls-19" d="M107.18,153.45c3.85-.53,9.28,3.07,10.2,6.82.12.48.18,1.22-.08,1.49-.55.56-1.28.24-1.71-.3-2.66-3.28-5.73-5.45-10.27-4.2a1,1,0,0,1-1.19-1.2C104.41,154.35,105.59,153.65,107.18,153.45Z"/><path class="cls-20" d="M54.23,234.82l-.17,2.7c-1.3-1,.16-3.11-1.73-4-.78-.39.13-1,.65-1.4a1.81,1.81,0,0,1,2.2-.23c.77.56.14,1.1-.23,1.63A12.9,12.9,0,0,0,54.23,234.82Z"/><path class="cls-20" d="M55.46,230.19c-2,1.4-3.23,1.25-4.17-.25a1.07,1.07,0,0,1,.13-1C53.18,228,53.72,229.85,55.46,230.19Z"/><path class="cls-3" d="M32.74,137.65c-1.33,0-2.23-.89-3.25-1.54,2-.33,2.05-2.12,2.55-3.56,1.89-5.43,4.76-6.74,10-4.29,2.6,1.22,5,2.87,7.49,4.31,1.22.7,2.32,1.85,3.95,1.1-1.74,1.76-2.89,4.15-5.44,5-2.28-.53-3.75-2.35-5.52-3.63C38,131.8,35.17,132.48,32.74,137.65Z"/><path class="cls-3" d="M32.06,161.7c-2.06,0-1.48-1.76-1.52-2.67-.22-5.22-.23-10.46-.3-15.69,2.55-1.09,1.63,1.08,1.65,1.93C32,150.75,32,156.22,32.06,161.7Z"/><path class="cls-21" d="M62.93,177.62c-.56,2.35-1.89,3.92-4.37,3.78a3.71,3.71,0,0,1-3.72-4.25c.12-2.48,1.64-3.84,4.19-3.71S62.56,175.35,62.93,177.62Z"/><path class="cls-22" d="M114.71,172.92c2.57.41,4,1.78,3.92,4.29s-1.59,4-4,4-3.87-1.64-3.8-4.19S112.44,173.26,114.71,172.92Z"/></g></svg>