<svg id="Layer_1" data-name="Layer 1" xmlns="http://www.w3.org/2000/svg" viewBox="0 0 288 288"><defs><style>.cls-1{fill:#f4f2ef;}.cls-2{fill:#f7d0da;}.cls-3{fill:#3c332f;}.cls-4{fill:#3e3632;}.cls-5{fill:#3f3733;}.cls-6{fill:#403733;}.cls-7{fill:#423a36;}.cls-8{fill:#403833;}.cls-9{fill:#433b38;}.cls-10{fill:#463c3b;}.cls-11{fill:#524b47;}.cls-12{fill:#423c38;}.cls-13{fill:#4c4643;}.cls-14{fill:#4a413f;}.cls-15{fill:#59534f;}.cls-16{fill:#070606;}.cls-17{fill:#030403;}.cls-18{fill:#020303;}.cls-19{fill:#facbcb;}.cls-20{fill:#0e0e0e;}.cls-21{fill:#0c0c0c;}.cls-22{fill:#e32026;}.cls-23{fill:#f1f0ef;}.cls-24{fill:#e3e2e1;}.cls-25{fill:#f0efee;}.cls-26{fill:#e7e5e5;}.cls-27{fill:#3e3530;}.cls-28{fill:#f6f4f3;}.cls-29{fill:#f2f1ef;}.cls-30{fill:#565b5f;}.cls-31{fill:#424649;}.cls-32{fill:#fff;}</style></defs><title>News</title><path class="cls-1" d="M189,55.61s31.07-25.39,39.16-11.38c2,5.26,2.86,7.29,2.86,7.29l.42,4.8-6.12,4.37-26.69,3.24Z"/><path class="cls-1" d="M97.92,213a32.29,32.29,0,0,1,4-9.65c5.45-8.56,6-8.89,17.46-9-6.58-1.89-12.84-2.15-18.94-3.34-13.82-2.68-24-10.8-32.71-21.2l.16.13c-.83-1.92-1.65-3.87-4.38-2.61-1.36-2-.54-4.7-2.34-6.52-.94-6.12-4.42-11.38-5.87-17.32l-2.65-6.3c2.38-11.42,4.71-22.86,7.81-34.12C65,90.88,70.89,79.58,82.1,72c5.48-8.4,14.6-12.43,22.08-18.43l.09,1.64c1.59,1.31,3,.19,4.57-.19,13.6-3.36,27.28-6.12,41.42-4.19l4.31-1.37c3,2,6.37,2.59,9.86,2.82h2.81A118.77,118.77,0,0,1,198.3,65.66a9.55,9.55,0,0,0,6,1.23c4.28.66,6.76,3.74,9.3,6.83a97.87,97.87,0,0,1,13.05,20.44c1.41-9.3-1.1-18.68,1.54-27.78,2.21-1.87,4.47-3.58,7.64-2.9l.2,2c.32,2.42-3.1,4-1.58,6.68a10.32,10.32,0,0,1,.06,1.39c1.23,10.18.19,20.27-1.3,30.33-.3,2-.1,4.75-2.52,5.23s-1.44,1.74-1.09,2.78c3.3,9.72,3.81,19.89,4.83,30l-1.5,3.06c-2,3.83-1.44,8.5-4,12.14l-1.49,3.07c-2.12,3.82-4.92,13.89-7.26,15.44a107.32,107.32,0,0,1-22.81,13.3,47,47,0,0,1-21.4,3.35c8.55-2,13,4.23,17.08,11.31,2.8,4.86,3.33,10.63,6.41,15.35l-1.39,2.55c-.66,3.17-1.35,6.34,1.46,8.95l-2.65,3.91c-4,.95-5.34,4.95-8.33,7.07-4.2,3-8.23,6.44-13.83,3.25-1.46-.83-2.65-.08-4,.36-10.59,3.48-13.26,1.63-14.66-10.06a5.79,5.79,0,0,0,0,1.6c1,12.24.87,12.44-10.8,12.17-8.12-.19-9-1.14-8.82-9.53,0-2.1,0-4.19,0-6.29,0-.93-1.07-.3-.15-.43.07,0,.12.21.11.66a47.44,47.44,0,0,1-.17,7c-.54,3.28-1.46,6.58-5,7.77s-6.34-.44-8.89-2.74c-1.37-1.24-2.2-3-3.94-4.2-2,6.05-6.13,5.28-10.47,3.21-5-2.38-7.17-7.11-9.35-11.78a14.26,14.26,0,0,1-.6-2.71c-.36,2.5,1.7,4.41,1.12,6.75"/><path class="cls-2" d="M229,65.71c-.08,9.53-.14,19.07-.25,28.6,0,1.78.38,4.3-2,4.5-2,.16-1.58-2.3-2.19-3.71-4.7-10.89-10.37-21.08-21-27.44-4-.25-4.81-3.37-5.73-6.39,2.16-6,5-11.71,11.92-13.06,8.18-1.59,12.87,3.46,16.42,10,2.82,3.05,5.42-1.68,8.19-.22l1.42,0C236,62.7,232.09,63.84,229,65.71Z"/><path class="cls-2" d="M83.14,73.89c-5.39.69-7.32,5.41-9.95,9C68.71,89,64.54,95.45,62.14,102.8a2.45,2.45,0,0,1-3.17-.16c-2.68-5.21-1-10.81-1.43-16.23-.42-4.75.89-9.61-1-14.24a3.57,3.57,0,0,1-1.37-2.61L55.33,68c1.1-1.75,2.5-1.38,3.84-.85-.66-1.58-4.86-.16-3.83-3.79a1.16,1.16,0,0,1,0-.81c1-1.32,2.4-.83,3.67-.67,3.12.38.43-1.61.94-2.3,3.92-9,10.33-11,18.1-5.6a60.3,60.3,0,0,1,9.26,7.32c1.46,2.61-.59,4.16-1.89,5.86C83.86,69.15,82.69,71.23,83.14,73.89Z"/><path class="cls-3" d="M98.33,236.24c-.35-1.61-.79-3.22.3-4.74,3.25,1.78,3.72,5.68,6.2,8.07,3.29,3.18,6.92,5.29,11.75,4.67,1-3-2.79-5.61,0-9,2.5,3.14,4.64,6.35,7.31,9,4.87,4.92,8.7,3.75,10.22-3,.51-2.26.56-4.62,1-6.91s0-4.65,2.79-6.73c0,4.87.54,9.26-.14,13.46-.84,5.27,1.38,6.62,5.93,6.33a30.77,30.77,0,0,1,4.18-.13c5.72.41,8.28-1.25,6.64-7.71a12.47,12.47,0,0,1,2.66-11.91c.31,3.69.36,7.41,1,11,1.22,7.18,4.18,8.58,10.69,5.34,2.63-1.31,5.2-2.73,8.7-4.58-2,4.55-.91,5.62,2.86,4.61,5.57-1.49,8.9-5.64,12.47-9.65.94-1.06,2.48-5,4-.18-5,10.45-13.47,13.61-24.69,14.79a199.67,199.67,0,0,1-21,1.17c-9.89,0-19.61,1.89-30.16-.69-8.82-2.15-13.42-3.77-16.86-6.66a31.65,31.65,0,0,1-5.78-6.69"/><path class="cls-4" d="M94.17,215.66c2.52-8.53,5.9-14.9,11.44-20.4-15.41-4.95-31.58-8-37.88-25.43,2.12-.15,3.44,1.13,4.61,2.62,9.65,12.26,23.22,16.43,37.87,18.39,3.92.52,7.84,1.06,11.76,1.58a2.16,2.16,0,0,1,2.15,2.25c0,1.39-1.13,1.87-2.42,1.86a10,10,0,0,0-2.09,0c-3.53.74-7.41-2.71-10.58.49a33.79,33.79,0,0,0-8.77,14.07c-.91,3.06-1,6.43-3.3,9.08"/><path class="cls-5" d="M197.83,61.26l5.73,6.39c-1.38,2.69-3.12,1.09-4.58.24a145.14,145.14,0,0,0-30.17-13.65c-.66-.21-1.05-1.29-1.57-2C174,51,181.12,56.36,186.7,53.71s9.9-8.25,15.5-11.59c6.29-3.75,12.85-6.87,20.43-3.83,6.15,2.47,9.92,6.53,8.57,13.8-2-4.51-2.87-9.88-9.08-10.74A23.75,23.75,0,0,0,207.92,44c-6.24,3.17-11.64,7.56-17.25,12.8Z"/><path class="cls-4" d="M199.44,218.9c-3.19-.09-3.26-2.9-4.1-4.89-1.17-2.78-1.78-5.81-3.14-8.47-3.41-6.66-6.91-13.25-16.46-11.57-1.88.33-4.69.73-7-3.17,4.09,0,7.36.15,10.61,0a59.52,59.52,0,0,0,32.35-11.57c2.49-1.8,4.56-5,8.47-3.62-3.48,8.39-11.21,11.33-18.75,14.34-4.08,1.63-8.38,2.69-12.69,4C193.94,201.69,200.76,208.56,199.44,218.9Z"/><path class="cls-6" d="M59.63,102.88l2.51-.08c-1.83,11.37-6,22.24-7.19,33.77-.13,1.31-1.47.56-2.29.64-.4-5.78-.73-11.6,1.05-17.21,3.49-10.94-2.89-21.22-1.9-32,.58-6.27-1.22-12.91,3.37-18.43l1.23,1c3,3.42,1.07,7.54,1.58,11.31C58.95,88.86,56.13,96.11,59.63,102.88Z"/><path class="cls-7" d="M234.44,141.89c-3.53-1-2.51-4-2.68-6.34-.35-4.85-.65-9.67-1.42-14.5s-4.51-8.71.14-14.86c3.43-4.53,1.8-13,2.26-19.65.3-4.37-.28-8.84,1.79-13,2.89,2,2.69,5.19,2.88,8.14.41,6.54.26,13.3-1.77,19.36-3.34,9.94-2.41,19.42-.19,29.25C236.27,134,236.55,138.19,234.44,141.89Z"/><path class="cls-5" d="M55.21,58.06c.33-18.45,11.66-25,27.62-16,5.43,3.08,11,6,14.37,11.68l-.8.64c-3.6,1.16-6.12-1.23-8.9-2.75C83.08,49.25,79.06,46,74,44.87c-6.53-1.48-10,.34-12.48,6.56-1.14,2.83-1,6.7-5.37,7.08Z"/><path class="cls-8" d="M150.26,50.84a8.08,8.08,0,0,1-5.3,1.41c-12-.33-23.6,2-35.25,4.33-1.65.34-4.65,2.91-5.44-1.37,11.61-6.33,24.21-7.8,37.14-7.35C144.57,48,148,47.74,150.26,50.84Z"/><path class="cls-9" d="M83.14,73.89c-3.85-1.22-2-3.59-.8-5.32a64.64,64.64,0,0,1,5.41-6.14c1.81-4.44,5.56-6.78,9.56-8.85l-.11.21c1.32-.78,2.62-1.6,4-2.32,2.32-1.23,3.45-.66,3,2.11C99.63,62.9,87.34,64.2,83.14,73.89Z"/><path class="cls-7" d="M234.36,58c-2.75-.47-5.22,9.09-8.19.22,4.23-.81,5.29-5.55,8.72-7.5C237.16,53.57,235,55.69,234.36,58Z"/><path class="cls-10" d="M60.83,60.58,63,63a6.32,6.32,0,0,1-2.34.7c-1.8-.22-3.57-.74-5.35-1.14-.79-.5-1.6-1-2.35-1.5-1.49-1.06-4-2.41-2.89-4.1,1.71-2.58,3.51.09,5.12,1.15l-.1-.2C56.89,59,59.48,58.5,60.83,60.58Z"/><path class="cls-11" d="M199.51,230.4q-7.07-3.69-1.46-8.95C202.47,223.8,199.59,227.33,199.51,230.4Z"/><path class="cls-5" d="M165.6,52.29c-4.08,1.84-9,2.5-11-2.82C163.85,52,172.72,39.63,165.6,52.29Z"/><path class="cls-12" d="M63.68,167l3.84-2.56c2.22,1.75-.8,3.82.38,5.56-2.16-.1-2.47,4-5,2.39-.75-.47-.5-2.53-.71-3.86A1.83,1.83,0,0,1,63.68,167Z"/><path class="cls-13" d="M229,65.71,235.79,58c3.66,1.8-.34,3.67.05,5.5C233.72,64.69,232.21,67.74,229,65.71Z"/><path class="cls-7" d="M234.46,72.18c-2.24.07-5.49.82-2.36-3.08A33.16,33.16,0,0,1,236,65.5C240.79,69,235.14,70,234.46,72.18Z"/><path class="cls-7" d="M232.34,164.65c-.89-2.64-10.48-.27-4.09-7.1,2.72,3.33,7.39,2,10.74,4.11C237.53,165,234.66,164.18,232.34,164.65Z"/><path class="cls-13" d="M223,163.65l10,2.27c.16,4.08-3.39,1.44-4.81,2.66C226.11,167.29,222.71,167.41,223,163.65Z"/><path class="cls-7" d="M219.88,171.49c-1.13-1.93-3.33-4.44,1.59-3.54a33.16,33.16,0,0,1,5,1.76C225.7,175.54,222.13,171.05,219.88,171.49Z"/><path class="cls-7" d="M53.32,155.88c1.09-2.56,10.47.52,4.62-6.77-3,3.12-7.52,1.45-11,3.28C48.12,155.87,51,155.24,53.32,155.88Z"/><path class="cls-13" d="M62.72,155.59,52.57,157.1c-.47,4.05,3.27,1.7,4.6,3C59.33,159,62.71,159.36,62.72,155.59Z"/><path class="cls-7" d="M65.23,163.65c1.27-1.84,3.65-4.17-1.32-3.65a33.16,33.16,0,0,0-5.15,1.37C59.12,167.24,63,163,65.23,163.65Z"/><path class="cls-14" d="M55.34,63.33c.75,2.09,4.73,1,4.25,3.65-.31,1.73-2.81.54-4.26,1-1.67-.57-4.22-.67-4.26-2.7C51,62.5,53.87,64,55.34,63.33Z"/><path class="cls-15" d="M98.63,231.5l-.3,4.74c-2.29-1.77.28-5.48-3-7.11-1.38-.68.24-1.83,1.14-2.46,1.21-.84,2.61-1.33,3.86-.41s.24,1.94-.4,2.87A22.7,22.7,0,0,0,98.63,231.5Z"/><path class="cls-15" d="M100.78,223.35c-3.55,2.47-5.68,2.2-7.33-.44a1.89,1.89,0,0,1,.22-1.79C96.79,219.45,97.72,222.76,100.78,223.35Z"/><path class="cls-1" d="M60.83,60.58c-2.34,0-3.93-1.56-5.72-2.72,3.6-.58,3.61-3.72,4.49-6.26,3.32-9.55,8.38-11.86,17.59-7.54,4.57,2.14,8.78,5.05,13.17,7.58,2.14,1.23,4.09,3.25,6.95,1.93-3.05,3.09-5.08,7.3-9.56,8.85-4-.93-6.59-4.13-9.71-6.39C70.12,50.29,65.1,51.48,60.83,60.58Z"/><path class="cls-1" d="M59.63,102.88C56,102.92,57,99.79,57,98.18c-.39-9.19-.4-18.39-.53-27.59,4.48-1.92,2.87,1.89,2.91,3.4C59.55,83.62,59.55,93.25,59.63,102.88Z"/><path class="cls-16" d="M135.56,158.8a17.85,17.85,0,0,1,5.89-11.47,8,8,0,0,1,10.59,0,24.74,24.74,0,0,1,8.08,16c.53,5-2.36,8.2-7.76,8.65a19.1,19.1,0,0,1-11.95-2.84C137.09,167.05,135.43,164,135.56,158.8Z"/><path class="cls-17" d="M193.52,115.47a12.83,12.83,0,1,1-13.14,13A12.92,12.92,0,0,1,193.52,115.47Z"/><path class="cls-18" d="M101.63,115.48a12.83,12.83,0,0,1-.64,25.64c-7.38-.07-12.78-5.79-12.6-13.34C88.57,120.65,94.28,115.35,101.63,115.48Z"/><path class="cls-19" d="M191.45,148.17c6,0,10.55,3.91,10.29,8.21-.23,3.83-3.12,5.87-6.79,4.81-2.85-.82-5.47-2-7.27-4.5-1.32-1.84-2.87-3.89-1.57-6.14A5,5,0,0,1,191.45,148.17Z"/><path class="cls-19" d="M103.86,148.18c2.11,0,4.31-.16,5.59,2.09,1.4,2.46-.13,4.22-1.39,6.1-1.71,2.56-4.2,3.86-7,4.78-2.58.85-4.67.31-6.19-1.95a5.41,5.41,0,0,1,.38-6.91A11,11,0,0,1,103.86,148.18Z"/><path class="cls-20" d="M200.46,82.16c1.87,12.6-7.13,23.71-17.74,23-3-.21-5.68-1.21-7.38-3.9-.39-.63-.93-1.4-.06-2.11.62-.5,1.15-.1,1.79.12,8.58,3,14.57.76,19-7.3C197.67,89.1,198.77,86,200.46,82.16Z"/><path class="cls-21" d="M94.36,82.56C95.7,85.72,96.69,88.44,98,91c4.38,8.75,10.42,11.23,19.64,8.17.63-.21,1.22-.66,1.76,0a1.55,1.55,0,0,1,0,1.85,8.2,8.2,0,0,1-5.76,3.85c-6,1.1-10.84-1.28-14.82-5.62C94.58,94.7,92.64,87.72,94.36,82.56Z"/><path class="cls-22" d="M150.5,168.52a18.58,18.58,0,0,1-7.81-1.87A6.53,6.53,0,0,1,139,159a24.83,24.83,0,0,1,3.06-7.7c2-3.48,6.13-4,8.64-.83a27.36,27.36,0,0,1,5.73,13C156.94,166.91,154.8,168.67,150.5,168.52Z"/><path class="cls-23" d="M191.2,125.89c-2.2-.31-3.69-1.28-3.78-3.48a3.24,3.24,0,0,1,3.33-3.65,3.28,3.28,0,0,1,3.67,3.33C194.55,124.26,193,125.33,191.2,125.89Z"/><path class="cls-24" d="M187.8,131.5c-1.72.09-2.6-.76-2.71-2a2.22,2.22,0,0,1,2.38-2.51,2.19,2.19,0,0,1,2.22,2.27A2.05,2.05,0,0,1,187.8,131.5Z"/><path class="cls-25" d="M98.67,125.88c-2.11-.39-3.53-1.61-3.47-3.7a3.27,3.27,0,0,1,3.57-3.41,3.22,3.22,0,0,1,3.37,3.57C102.14,124.61,100.64,125.51,98.67,125.88Z"/><path class="cls-26" d="M95.17,126.92c1.19.28,2.22.75,2.2,2.26a2,2,0,0,1-2.11,2.31A2.06,2.06,0,0,1,93,129.33,2.28,2.28,0,0,1,95.17,126.92Z"/><path class="cls-27" d="M102.64,143.86a19,19,0,0,1-18.42-19.22c.12-9.81,9.81-18.92,20-18.77s18.35,9,18.21,19.48S113.68,144,102.64,143.86Z"/><path class="cls-27" d="M173.13,124.88C173,114.5,182,106,192.78,106.11c9.65.12,17.69,8.46,17.79,18.45a18.86,18.86,0,0,1-18.65,19C181.53,143.77,173.24,135.52,173.13,124.88Z"/><path class="cls-28" d="M116.41,118.55c-.88,3.73-3,6.21-6.93,6s-6.08-2.88-5.89-6.73,2.6-6.08,6.64-5.88S115.83,115,116.41,118.55Z"/><path class="cls-29" d="M198.45,111.11c4.08.65,6.32,2.82,6.22,6.8s-2.52,6.4-6.39,6.27-6.13-2.59-6-6.64S194.86,111.65,198.45,111.11Z"/><path d="M142,195h0c0-1,0-2.08,0-3.12,0-.39-.17-.58-.59-.74q-6-2.35-11.91-4.73c-2.33-.93-4.65-1.88-7-2.77s-5.23-.29-6.34,1.37a18.12,18.12,0,0,0-3.23,9.29,18.71,18.71,0,0,0,2.81,10.1c1.26,2.24,4.51,2.87,6.93,1.89q9.44-3.79,18.9-7.53c.35-.14.45-.29.44-.58C142,197.12,142,196.06,142,195Z"/><path d="M180,185.6c-1.21-2.17-4.43-2.93-7-1.9q-9.4,3.78-18.84,7.5c-.35.14-.49.3-.49.62,0,2.1,0,4.2,0,6.29,0,.38.18.54.58.69,2.42.95,4.83,1.91,7.24,2.87L173,206.27c2.5,1,5.44.4,6.6-1.38a18.45,18.45,0,0,0,3.2-9.48A19.83,19.83,0,0,0,180,185.6Z"/><path d="M151.64,191.49c0-1.08-.5-1.59-1.56-1.59h-4.43c-1.11,0-1.6.49-1.61,1.6q0,3.5,0,7a1.42,1.42,0,0,0,1.58,1.6h4.49a1.39,1.39,0,0,0,1.56-1.55c0-1.19,0-2.37,0-3.56S151.64,192.66,151.64,191.49Z"/><rect class="cls-30" x="61.72" y="214.68" width="173.29" height="36.26"/><rect class="cls-30" x="53.81" y="204.72" width="189.11" height="9.96"/><polygon class="cls-31" points="235.01 227.69 61.72 218.9 61.72 214.68 235.01 214.68 235.01 227.69"/><path class="cls-32" d="M103.77,244.72l-.18-24.05,5.68-.08,6,12.52-.08-12.33,5.12-.37.37,24.14-5.67-.1-6.31-12.5.1,12.5Z"/><path class="cls-32" d="M128.63,238.84h11.57l-.27,5.71-16.41.17-.18-24.05,16.59-.22-.27,5.71-10.88-.07,0,3.59h8.55l-.27,5.71-8.36,0Z"/><path class="cls-32" d="M145.2,244.27l-4.66-23.72,5.38.28,3.57,16.42,3.31-16.76,6-.1,3.12,16.86,3.31-16.76,6-.1L166,244.54l-8.4-.27-1.9-9.67-2.14,9.93Z"/><path class="cls-32" d="M170.91,228.53q.67-8.08,8.53-8.08c.32,0,.66,0,1,0q8.13.92,8.31,7.53l-5.79.68q0-2.64-3.16-2.7t-3.25,2.34q0,1.39,6,2.47t6.08,6.86q-.18,6.78-8.18,7.18-9.15-.12-9.62-7.93l5.76-.77a3.35,3.35,0,0,0,3.67,3.31q2.49-.38,2.77-2-.1-1.74-6-3.09T170.91,228.53Z"/></svg>