<svg id="Layer_1" data-name="Layer 1" xmlns="http://www.w3.org/2000/svg" viewBox="0 0 288 288"><defs><style>.cls-1{fill:#f4f2ef;}.cls-2{fill:#f7d0da;}.cls-3{fill:#3c332f;}.cls-4{fill:#3e3632;}.cls-5{fill:#3f3733;}.cls-6{fill:#403733;}.cls-7{fill:#423a36;}.cls-8{fill:#403833;}.cls-9{fill:#433b38;}.cls-10{fill:#463c3b;}.cls-11{fill:#524b47;}.cls-12{fill:#423c38;}.cls-13{fill:#4c4643;}.cls-14{fill:#4a413f;}.cls-15{fill:#3e3530;}.cls-16{fill:#443c38;}.cls-17{fill:#59534f;}.cls-18{fill:#f6f4f3;}.cls-19{fill:#f2f1ef;}.cls-20{fill:#070606;}.cls-21{fill:#0c0c0c;}.cls-22{fill:#e32026;}.cls-23{fill:#facccc;}.cls-24{fill:#231f20;}</style></defs><title>Support</title><path class="cls-1" d="M189,67.51S220,42.12,228.12,56.14c2,5.26,2.86,7.29,2.86,7.29l.42,4.8-6.12,4.37-26.69,3.24Z"/><path class="cls-1" d="M97.86,224.89a32.29,32.29,0,0,1,4-9.65c5.45-8.56,6-8.89,17.46-9-6.58-1.89-12.84-2.15-18.94-3.34-13.82-2.68-24-10.8-32.71-21.2l.16.13c-.83-1.92-1.65-3.87-4.38-2.61-1.36-2-.54-4.7-2.34-6.52-.94-6.12-4.42-11.38-5.87-17.32l-2.65-6.3C55,137.69,57.31,126.25,60.41,115,65,102.79,70.82,91.48,82,83.91c5.48-8.4,14.6-12.43,22.08-18.43l.09,1.64c1.59,1.31,3,.19,4.57-.19,13.6-3.36,27.28-6.12,41.42-4.19l4.31-1.37c3,2,6.37,2.59,9.86,2.82h2.81a118.77,118.77,0,0,1,31.06,13.37,9.55,9.55,0,0,0,6,1.23c4.28.66,6.76,3.74,9.3,6.83a97.87,97.87,0,0,1,13.05,20.44c1.41-9.3-1.1-18.68,1.54-27.78,2.21-1.87,4.47-3.58,7.64-2.9l.2,2c.32,2.42-3.1,4-1.58,6.68a10.32,10.32,0,0,1,.06,1.39c1.23,10.18.19,20.27-1.3,30.33-.3,2-.1,4.75-2.52,5.23s-1.44,1.74-1.09,2.78c3.3,9.72,3.81,19.89,4.83,30l-1.5,3.06c-2,3.83-1.44,8.5-4,12.14l-1.49,3.07c-2.12,3.82-4.92,13.89-7.26,15.44a107.32,107.32,0,0,1-22.81,13.3,47,47,0,0,1-21.4,3.35c8.55-2,13,4.23,17.08,11.31,2.8,4.86,3.33,10.63,6.41,15.35L198,233.36c-.66,3.17-1.35,6.34,1.46,8.95l-2.65,3.91c-4,.95-5.34,4.95-8.33,7.07-4.2,3-8.23,6.44-13.83,3.25-1.46-.83-2.65-.08-4,.36-10.59,3.48-13.26,1.63-14.66-10.06a5.79,5.79,0,0,0,0,1.6c1,12.24.87,12.44-10.8,12.17-8.12-.19-9-1.14-8.82-9.53,0-2.1,0-4.19,0-6.29,0-.93-1.07-.3-.15-.43.07,0,.12.21.11.66a47.44,47.44,0,0,1-.17,7c-.54,3.28-1.46,6.58-5,7.77s-6.34-.44-8.89-2.74c-1.37-1.24-2.2-3-3.94-4.2-2,6.05-6.13,5.28-10.47,3.21-5-2.38-7.17-7.11-9.35-11.78a14.26,14.26,0,0,1-.6-2.71c-.36,2.5,1.7,4.41,1.12,6.75"/><path class="cls-2" d="M229,77.61c-.08,9.53-.14,19.07-.25,28.6,0,1.78.38,4.3-2,4.5-2,.16-1.58-2.3-2.19-3.71-4.7-10.89-10.37-21.08-21-27.44-4-.25-4.81-3.37-5.73-6.39,2.16-6,5-11.71,11.92-13.06,8.18-1.59,12.87,3.46,16.42,10,2.82,3.05,5.42-1.68,8.19-.22l1.42,0C235.92,74.61,232,75.74,229,77.61Z"/><path class="cls-2" d="M83.07,85.8c-5.39.69-7.32,5.41-9.95,9-4.48,6.14-8.65,12.55-11.05,19.9a2.45,2.45,0,0,1-3.17-.16c-2.68-5.21-1-10.81-1.43-16.23-.42-4.75.89-9.61-1-14.24a3.57,3.57,0,0,1-1.37-2.61l.14-1.59c1.1-1.75,2.5-1.38,3.84-.85-.66-1.58-4.86-.16-3.83-3.79a1.16,1.16,0,0,1,0-.81c1-1.32,2.4-.83,3.67-.67,3.12.38.43-1.61.94-2.3,3.92-9,10.33-11,18.1-5.6a60.3,60.3,0,0,1,9.26,7.32c1.46,2.61-.59,4.16-1.89,5.86C83.79,81.06,82.62,83.13,83.07,85.8Z"/><path class="cls-3" d="M98.27,248.15c-.35-1.61-.79-3.22.3-4.74,3.25,1.78,3.72,5.68,6.2,8.07,3.29,3.18,6.92,5.29,11.75,4.67,1-3-2.79-5.61,0-9,2.5,3.14,4.64,6.35,7.31,9,4.87,4.92,8.7,3.75,10.22-3,.51-2.26.56-4.62,1-6.91s0-4.65,2.79-6.73c0,4.87.54,9.26-.14,13.46-.84,5.27,1.38,6.62,5.93,6.33a30.77,30.77,0,0,1,4.18-.13c5.72.41,8.28-1.25,6.64-7.71a12.47,12.47,0,0,1,2.66-11.91c.31,3.69.36,7.41,1,11,1.22,7.18,4.18,8.58,10.69,5.34,2.63-1.31,5.2-2.73,8.7-4.58-2,4.55-.91,5.62,2.86,4.61,5.57-1.49,8.9-5.64,12.47-9.65.94-1.06,2.48-5,4-.18-5,10.45-13.47,13.61-24.69,14.79a199.67,199.67,0,0,1-21,1.17c-9.89,0-19.61,1.89-30.16-.69-8.82-2.15-13.42-3.77-16.86-6.66a31.65,31.65,0,0,1-5.78-6.69"/><path class="cls-4" d="M94.11,227.56c2.52-8.53,5.9-14.9,11.44-20.4-15.41-4.95-31.58-8-37.88-25.43,2.12-.15,3.44,1.13,4.61,2.62,9.65,12.26,23.22,16.43,37.87,18.39,3.92.52,7.84,1.06,11.76,1.58a2.16,2.16,0,0,1,2.15,2.25c0,1.39-1.13,1.87-2.42,1.86a10,10,0,0,0-2.09,0c-3.53.74-7.41-2.71-10.58.49A33.79,33.79,0,0,0,100.2,223c-.91,3.06-1,6.43-3.3,9.08"/><path class="cls-5" d="M197.77,73.16l5.73,6.39c-1.38,2.69-3.12,1.09-4.58.24a145.14,145.14,0,0,0-30.17-13.65c-.66-.21-1.05-1.29-1.57-2,6.75-1.24,13.88,4.07,19.46,1.42s9.9-8.25,15.5-11.59c6.29-3.75,12.85-6.87,20.43-3.83,6.15,2.47,9.92,6.53,8.57,13.8-2-4.51-2.87-9.88-9.08-10.74A23.75,23.75,0,0,0,207.86,56c-6.24,3.17-11.64,7.56-17.25,12.8Z"/><path class="cls-4" d="M199.37,230.81c-3.19-.09-3.26-2.9-4.1-4.89-1.17-2.78-1.78-5.81-3.14-8.47-3.41-6.66-6.91-13.25-16.46-11.57-1.88.33-4.69.73-7-3.17,4.09,0,7.36.15,10.61,0a59.52,59.52,0,0,0,32.35-11.57c2.49-1.8,4.56-5,8.47-3.62-3.48,8.39-11.21,11.33-18.75,14.34-4.08,1.63-8.38,2.69-12.69,4C193.88,213.59,200.7,220.47,199.37,230.81Z"/><path class="cls-6" d="M59.57,114.78l2.51-.08c-1.83,11.37-6,22.24-7.19,33.77-.13,1.31-1.47.56-2.29.64-.4-5.78-.73-11.6,1.05-17.21,3.49-10.94-2.89-21.22-1.9-32,.58-6.27-1.22-12.91,3.37-18.43l1.23,1c3,3.42,1.07,7.54,1.58,11.31C58.88,100.76,56.07,108,59.57,114.78Z"/><path class="cls-7" d="M234.37,153.79c-3.53-1-2.51-4-2.68-6.34-.35-4.85-.65-9.67-1.42-14.5s-4.51-8.71.14-14.86c3.43-4.53,1.8-13,2.26-19.65.3-4.37-.28-8.84,1.79-13,2.89,2,2.69,5.19,2.88,8.14.41,6.54.26,13.3-1.77,19.36-3.34,9.94-2.41,19.42-.19,29.25C236.21,146,236.49,150.09,234.37,153.79Z"/><path class="cls-5" d="M55.14,70c.33-18.45,11.66-25,27.62-16,5.43,3.08,11,6,14.37,11.68l-.8.64c-3.6,1.16-6.12-1.23-8.9-2.75C83,61.15,79,57.93,73.91,56.78c-6.53-1.48-10,.34-12.48,6.56-1.14,2.83-1,6.7-5.37,7.08Z"/><path class="cls-8" d="M150.2,62.74a8.08,8.08,0,0,1-5.3,1.41c-12-.33-23.6,2-35.25,4.33-1.65.34-4.65,2.91-5.44-1.37,11.61-6.33,24.21-7.8,37.14-7.35C144.51,59.88,148,59.64,150.2,62.74Z"/><path class="cls-9" d="M83.07,85.8c-3.85-1.22-2-3.59-.8-5.32a64.64,64.64,0,0,1,5.41-6.14c1.81-4.44,5.56-6.78,9.56-8.85l-.11.21c1.32-.78,2.62-1.6,4-2.32,2.32-1.23,3.45-.66,3,2.11C99.57,74.81,87.27,76.11,83.07,85.8Z"/><path class="cls-7" d="M234.3,69.86c-2.75-.47-5.22,9.09-8.19.22,4.23-.81,5.29-5.55,8.72-7.5C237.1,65.47,235,67.6,234.3,69.86Z"/><path class="cls-10" d="M60.77,72.48,63,74.86a6.32,6.32,0,0,1-2.34.7c-1.8-.22-3.57-.74-5.35-1.14-.79-.5-1.6-1-2.35-1.5-1.49-1.06-4-2.41-2.89-4.1,1.71-2.58,3.51.09,5.12,1.15l-.1-.2C56.83,70.94,59.42,70.4,60.77,72.48Z"/><path class="cls-11" d="M199.44,242.31q-7.07-3.69-1.46-8.95C202.41,235.7,199.52,239.23,199.44,242.31Z"/><path class="cls-5" d="M165.54,64.19c-4.08,1.84-9,2.5-11-2.82C163.79,63.87,172.65,51.53,165.54,64.19Z"/><path class="cls-12" d="M63.62,178.86l3.84-2.56c2.22,1.75-.8,3.82.38,5.56-2.16-.1-2.47,4-5,2.39-.75-.47-.5-2.53-.71-3.86A1.83,1.83,0,0,1,63.62,178.86Z"/><path class="cls-13" d="M229,77.61l6.75-7.73c3.66,1.8-.34,3.67.05,5.5C233.66,76.6,232.15,79.64,229,77.61Z"/><path class="cls-7" d="M234.39,84.08c-2.24.07-5.49.82-2.36-3.08a33.16,33.16,0,0,1,3.94-3.6C240.72,80.88,235.08,81.89,234.39,84.08Z"/><path class="cls-7" d="M232.28,176.55c-.89-2.64-10.48-.27-4.09-7.1,2.72,3.33,7.39,2,10.74,4.11C237.47,176.94,234.6,176.08,232.28,176.55Z"/><path class="cls-13" d="M222.93,175.55l10,2.27c.16,4.08-3.39,1.44-4.81,2.66C226.05,179.19,222.65,179.31,222.93,175.55Z"/><path class="cls-7" d="M219.81,183.4c-1.13-1.93-3.33-4.44,1.59-3.54a33.16,33.16,0,0,1,5,1.76C225.64,187.44,222.06,183,219.81,183.4Z"/><path class="cls-7" d="M53.26,167.79c1.09-2.56,10.47.52,4.62-6.77-3,3.12-7.52,1.45-11,3.28C48.05,167.78,51,167.14,53.26,167.79Z"/><path class="cls-13" d="M62.66,167.5,52.51,169c-.47,4.05,3.27,1.7,4.6,3C59.27,170.89,62.65,171.26,62.66,167.5Z"/><path class="cls-7" d="M65.17,175.55c1.27-1.84,3.65-4.17-1.32-3.65a33.16,33.16,0,0,0-5.15,1.37C59.06,179.15,63,174.95,65.17,175.55Z"/><path class="cls-14" d="M55.28,75.23c.75,2.09,4.73,1,4.25,3.65-.31,1.73-2.81.54-4.26,1-1.67-.57-4.22-.67-4.26-2.7C51,74.4,53.81,75.88,55.28,75.23Z"/><path class="cls-15" d="M98.58,170.88c-11.31-.12-20.59-9.81-20.45-21.34.13-10.9,10.89-21,22.18-20.84s20.37,10,20.22,21.63S110.83,171,98.58,170.88Z"/><path class="cls-15" d="M176.84,149.81c-.11-11.53,9.79-21,21.81-20.84,10.71.13,19.64,9.39,19.75,20.48a20.94,20.94,0,0,1-20.7,21.11C186.16,170.77,177,161.62,176.84,149.81Z"/><path class="cls-16" d="M191.7,100.27c6.78-.94,16.33,5.41,17.94,12,.21.84.32,2.14-.15,2.62-1,1-2.24.42-3-.52-4.68-5.78-10.07-9.59-18.06-7.39a1.75,1.75,0,0,1-2.1-2.1C186.83,101.86,188.91,100.62,191.7,100.27Z"/><path class="cls-17" d="M98.56,243.41l-.3,4.74c-2.29-1.77.28-5.48-3-7.11-1.38-.68.24-1.83,1.14-2.46,1.21-.84,2.61-1.33,3.86-.41s.24,1.94-.4,2.87A22.7,22.7,0,0,0,98.56,243.41Z"/><path class="cls-17" d="M100.72,235.25c-3.55,2.47-5.68,2.2-7.33-.44a1.89,1.89,0,0,1,.22-1.79C96.73,231.35,97.66,234.66,100.72,235.25Z"/><path class="cls-1" d="M60.77,72.48c-2.34,0-3.93-1.56-5.72-2.72,3.6-.58,3.61-3.72,4.49-6.26C62.86,54,67.92,51.65,77.13,56,81.7,58.11,85.91,61,90.3,63.55c2.14,1.23,4.09,3.25,6.95,1.93-3.05,3.09-5.08,7.3-9.56,8.85-4-.93-6.59-4.13-9.71-6.39C70.06,62.2,65,63.39,60.77,72.48Z"/><path class="cls-1" d="M59.57,114.78c-3.63,0-2.61-3.09-2.68-4.69-.39-9.19-.4-18.39-.53-27.59,4.48-1.92,2.87,1.89,2.91,3.4C59.49,95.52,59.49,105.15,59.57,114.78Z"/><path class="cls-18" d="M113.87,142.78c-1,4.14-3.33,6.89-7.69,6.64s-6.75-3.2-6.54-7.47,2.89-6.75,7.37-6.53S113.22,138.81,113.87,142.78Z"/><path class="cls-19" d="M204.94,134.52c4.53.72,7,3.13,6.9,7.55s-2.8,7.1-7.09,7-6.8-2.88-6.69-7.37S201,135.12,204.94,134.52Z"/><path class="cls-20" d="M136.29,177.7a19.56,19.56,0,0,1,6.45-12.57,8.77,8.77,0,0,1,11.6,0,27.11,27.11,0,0,1,8.86,17.48c.58,5.45-2.59,9-8.5,9.48A20.92,20.92,0,0,1,141.6,189C138,186.75,136.15,183.36,136.29,177.7Z"/><path class="cls-21" d="M87.16,101.29c2.38,2.79,4.26,5.24,6.39,7.44,7.27,7.49,14.2,8.07,22.6,2,.57-.41,1-1.06,1.8-.56a1.65,1.65,0,0,1,.6,1.88,8.75,8.75,0,0,1-4.62,5.77c-5.77,3.06-11.43,2.18-16.88-.95C91.28,113.57,87.06,107.09,87.16,101.29Z"/><path class="cls-22" d="M152.66,188.36a20.36,20.36,0,0,1-8.55-2.05,7.15,7.15,0,0,1-4.09-8.38,27.2,27.2,0,0,1,3.35-8.44c2.24-3.81,6.72-4.35,9.47-.91a30,30,0,0,1,6.28,14.22C159.72,186.59,157.37,188.52,152.66,188.36Z"/><path class="cls-4" d="M242.39,97.64c4.31-6.23,4.51-13.71-.45-21.31-8.6-45.05-84.32-51.18-98.36-51.18S54.66,31.28,46.05,76.34c-5,7.59-4.75,15.08-.45,21.31,1.92,2.77,3.37,4.65.66,9.31-4.26,7.33-3.38,14,2.57,18.12,5.53,3.81,13.38,1.91,18.34-5.48C77,105,86.49,90.17,95.36,75c4.24-7.25,3-14.1-3-18-5.74-3.74-11.55-1.69-17.09,4.1a12.38,12.38,0,0,0-1.7,2.38c-3.1,5.39-6.53,2.39-8.73,1.26-2.71-1.39.65-4.21,1.79-6,0,0,27.75-23.45,77.39-23.58,49.64.13,77.39,23.58,77.39,23.58,1.14,1.8,4.5,4.62,1.79,6-2.2,1.13-5.63,4.13-8.73-1.26a12.38,12.38,0,0,0-1.7-2.38c-5.54-5.8-11.35-7.85-17.09-4.1-6,3.93-7.28,10.78-3,18,8.87,15.16,18.39,30,28.19,44.58a17.83,17.83,0,0,0,5.85,5.6c.48,13.76,0,56.66-19,63-4.75,1.4-31.11,8.62-32.63,7.81-9-4.84-18.76-1.76-28.15-2.12-3.74-.14-6,2.95-5.78,7.08.19,3.81,2.39,5.95,5.92,6.4,16.89,2.18,59.35-6.07,73.17-19.64a2.4,2.4,0,0,0,.44-.95c12-13.93,14.77-44.33,13.63-59.87a10.72,10.72,0,0,0,4.89-1.82c6-4.1,6.83-10.79,2.57-18.12C239,102.29,240.48,100.41,242.39,97.64Z"/><path class="cls-23" d="M107.37,185.21c-3.57-.08-7.26.31-7.92-3-.71-3.51,2.9-4.87,5.67-5.88,4.38-1.6,8.94-2.79,13.65-2,2.11.36,4.48,1.26,4.88,3.68s-1.79,3.46-3.5,4.37C115.94,184.66,111.18,184.49,107.37,185.21Z"/><path class="cls-23" d="M188.37,186c3.57-.08,7.26.31,7.92-3,.71-3.51-2.9-4.87-5.67-5.88-4.38-1.6-8.94-2.79-13.65-2-2.11.36-4.48,1.26-4.88,3.68s1.79,3.46,3.5,4.37C179.8,185.45,184.56,185.28,188.37,186Z"/><path class="cls-24" d="M64.79,92.69a3,3,0,0,1,0-6h6.75V79.56a3,3,0,1,1,6,0V89.68a3,3,0,0,1-3,3H64.79Z"/><path class="cls-1" d="M74.52,77.56a2,2,0,0,1,2,2V89.68a2,2,0,0,1-2,2H64.79a2,2,0,0,1,0-4h7.75V79.56a2,2,0,0,1,2-2h0m0-2h0a4,4,0,0,0-4,4v6.12H64.78a4,4,0,0,0,0,8h9.75a4,4,0,0,0,4-4V79.55a4,4,0,0,0-4-4Z"/><path class="cls-24" d="M81.55,92.67a3,3,0,0,1-3-3V79.56a3,3,0,0,1,6,0v7.12h6.92a3,3,0,1,1,0,6H81.55Z"/><path class="cls-1" d="M81.54,77.55a2,2,0,0,1,2,2v8.12h7.92a2,2,0,0,1,0,4H81.55a2,2,0,0,1-2-2V79.56a2,2,0,0,1,2-2h0m0-2h0a4,4,0,0,0-4,4V89.68a4,4,0,0,0,4,4h9.92a4,4,0,0,0,0-8H85.54V79.55a4,4,0,0,0-4-4Z"/><path class="cls-24" d="M74.55,108.61a3,3,0,0,1-3-3V100H64.79a3,3,0,0,1,0-6h9.75a3,3,0,0,1,3,3v8.64a3,3,0,0,1-3,3Z"/><path class="cls-1" d="M74.54,95a2,2,0,0,1,2,2v8.64a2,2,0,0,1-2,2h0a2,2,0,0,1-2-2V99H64.79a2,2,0,0,1,0-4h9.75m0-2H64.79a4,4,0,0,0,0,8h5.75v4.64a4,4,0,0,0,8,0V97a4,4,0,0,0-4-4Z"/><path class="cls-24" d="M81.56,108.6a3,3,0,0,1-3-3V97a3,3,0,0,1,3-3h9.92a3,3,0,0,1,0,6H84.56v5.64a3,3,0,0,1-3,3Z"/><path class="cls-1" d="M91.47,95a2,2,0,0,1,0,4H83.56v6.64a2,2,0,0,1-2,2h0a2,2,0,0,1-2-2V97a2,2,0,0,1,2-2h9.92m0-2H81.55a4,4,0,0,0-4,4v8.64a4,4,0,0,0,8,0V101h5.92a4,4,0,0,0,0-8Z"/></svg>