<svg id="Layer_1" data-name="Layer 1" xmlns="http://www.w3.org/2000/svg" viewBox="0 0 288 288"><defs><style>.cls-1,.cls-28{fill:#f4f2ef;}.cls-2{fill:#f7d0da;}.cls-3{fill:#3c332f;}.cls-4{fill:#3e3632;}.cls-5{fill:#3f3733;}.cls-6{fill:#403733;}.cls-7{fill:#423a36;}.cls-8{fill:#403833;}.cls-9{fill:#433b38;}.cls-10{fill:#463c3b;}.cls-11{fill:#524b47;}.cls-12{fill:#423c38;}.cls-13{fill:#4c4643;}.cls-14{fill:#4a413f;}.cls-15{fill:#3e3530;}.cls-16{fill:#443c38;}.cls-17{fill:#59534f;}.cls-18{fill:#f6f4f3;}.cls-19{fill:#f2f1ef;}.cls-20{fill:#facbcc;}.cls-21{fill:#facccc;}.cls-22{fill:#0b0909;}.cls-23{fill:#e22026;}.cls-24{fill:#fff;}.cls-25{fill:#066bb3;}.cls-26{fill:#a3ce4c;}.cls-27{fill:#ef4975;}.cls-28{stroke:#333;stroke-miterlimit:10;stroke-width:4px;}</style></defs><title>Anime</title><path class="cls-1" d="M190.07,51.63s31.07-25.39,39.16-11.38c2,5.26,2.86,7.29,2.86,7.29l.42,4.8-6.12,4.37-26.69,3.24Z"/><path class="cls-1" d="M99,209a32.29,32.29,0,0,1,4-9.65c5.45-8.56,6-8.89,17.46-9-6.58-1.89-12.84-2.15-18.94-3.34-13.82-2.68-24-10.8-32.71-21.2l.16.13c-.83-1.92-1.65-3.87-4.38-2.61-1.36-2-.54-4.7-2.34-6.52-.94-6.12-4.42-11.38-5.87-17.32l-2.65-6.3c2.38-11.42,4.71-22.86,7.81-34.12C66.07,86.91,71.93,75.6,83.15,68c5.48-8.4,14.6-12.43,22.08-18.43l.09,1.64c1.59,1.31,3,.19,4.57-.19,13.6-3.36,27.28-6.12,41.42-4.19l4.31-1.37c3,2,6.37,2.59,9.86,2.82h2.81a118.77,118.77,0,0,1,31.06,13.37,9.55,9.55,0,0,0,6,1.23c4.28.66,6.76,3.74,9.3,6.83A97.87,97.87,0,0,1,227.7,90.18c1.41-9.3-1.1-18.68,1.54-27.78,2.21-1.87,4.47-3.58,7.64-2.9l.2,2c.32,2.42-3.1,4-1.58,6.68a10.32,10.32,0,0,1,.06,1.39c1.23,10.18.19,20.27-1.3,30.33-.3,2-.1,4.75-2.52,5.23s-1.44,1.74-1.09,2.78c3.3,9.72,3.81,19.89,4.83,30L234,141c-2,3.83-1.44,8.5-4,12.14l-1.49,3.07c-2.12,3.82-4.92,13.89-7.26,15.44a107.32,107.32,0,0,1-22.81,13.3,47,47,0,0,1-21.4,3.35c8.55-2,13,4.23,17.08,11.31,2.8,4.86,3.33,10.63,6.41,15.35l-1.39,2.55c-.66,3.17-1.35,6.34,1.46,8.95l-2.65,3.91c-4,.95-5.34,4.95-8.33,7.07-4.2,3-8.23,6.44-13.83,3.25-1.46-.83-2.65-.08-4,.36-10.59,3.48-13.26,1.63-14.66-10.06a5.79,5.79,0,0,0,0,1.6c1,12.24.87,12.44-10.8,12.17-8.12-.19-9-1.14-8.82-9.53,0-2.1,0-4.19,0-6.29,0-.93-1.07-.3-.15-.43.07,0,.12.21.11.66a47.44,47.44,0,0,1-.17,7c-.54,3.28-1.46,6.58-5,7.77s-6.34-.44-8.89-2.74c-1.37-1.24-2.2-3-3.94-4.2-2,6.05-6.13,5.28-10.47,3.21-5-2.38-7.17-7.11-9.35-11.78a14.26,14.26,0,0,1-.6-2.71c-.36,2.5,1.7,4.41,1.12,6.75"/><path class="cls-2" d="M230.08,61.73c-.08,9.53-.14,19.07-.25,28.6,0,1.78.38,4.3-2,4.5-2,.16-1.58-2.3-2.19-3.71-4.7-10.89-10.37-21.08-21-27.44-4-.25-4.81-3.37-5.73-6.39,2.16-6,5-11.71,11.92-13.06,8.18-1.59,12.87,3.46,16.42,10,2.82,3.05,5.42-1.68,8.19-.22l1.42,0C237,58.73,233.14,59.86,230.08,61.73Z"/><path class="cls-2" d="M84.18,69.91c-5.39.69-7.32,5.41-9.95,9-4.48,6.14-8.65,12.55-11.05,19.9A2.45,2.45,0,0,1,60,98.66c-2.68-5.21-1-10.81-1.43-16.23-.42-4.75.89-9.61-1-14.24a3.57,3.57,0,0,1-1.37-2.61L56.38,64c1.1-1.75,2.5-1.38,3.84-.85-.66-1.58-4.86-.16-3.83-3.79a1.16,1.16,0,0,1,0-.81c1-1.32,2.4-.83,3.67-.67,3.12.38.43-1.61.94-2.3,3.92-9,10.33-11,18.1-5.6a60.3,60.3,0,0,1,9.26,7.32c1.46,2.61-.59,4.16-1.89,5.86C84.9,65.18,83.73,67.25,84.18,69.91Z"/><path class="cls-3" d="M99.37,232.27c-.35-1.61-.79-3.22.3-4.74,3.25,1.78,3.72,5.68,6.2,8.07,3.29,3.18,6.92,5.29,11.75,4.67,1-3-2.79-5.61,0-9,2.5,3.14,4.64,6.35,7.31,9,4.87,4.92,8.7,3.75,10.22-3,.51-2.26.56-4.62,1-6.91s0-4.65,2.79-6.73c0,4.87.54,9.26-.14,13.46-.84,5.27,1.38,6.62,5.93,6.33a30.77,30.77,0,0,1,4.18-.13c5.72.41,8.28-1.25,6.64-7.71a12.47,12.47,0,0,1,2.66-11.91c.31,3.69.36,7.41,1,11,1.22,7.18,4.18,8.58,10.69,5.34,2.63-1.31,5.2-2.73,8.7-4.58-2,4.55-.91,5.62,2.86,4.61,5.57-1.49,8.9-5.64,12.47-9.65.94-1.06,2.48-5,4-.18-5,10.45-13.47,13.61-24.69,14.79a199.67,199.67,0,0,1-21,1.17c-9.89,0-19.61,1.89-30.16-.69-8.82-2.15-13.42-3.77-16.86-6.66a31.65,31.65,0,0,1-5.78-6.69"/><path class="cls-4" d="M95.22,211.68c2.52-8.53,5.9-14.9,11.44-20.4-15.41-4.95-31.58-8-37.88-25.43,2.12-.15,3.44,1.13,4.61,2.62,9.65,12.26,23.22,16.43,37.87,18.39,3.92.52,7.84,1.06,11.76,1.58a2.16,2.16,0,0,1,2.15,2.25c0,1.39-1.13,1.87-2.42,1.86a10,10,0,0,0-2.09,0c-3.53.74-7.41-2.71-10.58.49a33.79,33.79,0,0,0-8.77,14.07c-.91,3.06-1,6.43-3.3,9.08"/><path class="cls-5" d="M198.87,57.28l5.73,6.39c-1.38,2.69-3.12,1.09-4.58.24a145.14,145.14,0,0,0-30.17-13.65c-.66-.21-1.05-1.29-1.57-2,6.75-1.24,13.88,4.07,19.46,1.42s9.9-8.25,15.5-11.59c6.29-3.75,12.85-6.87,20.43-3.83,6.15,2.47,9.92,6.53,8.57,13.8-2-4.51-2.87-9.88-9.08-10.74A23.75,23.75,0,0,0,209,40.07c-6.24,3.17-11.64,7.56-17.25,12.8Z"/><path class="cls-4" d="M200.48,214.93c-3.19-.09-3.26-2.9-4.1-4.89-1.17-2.78-1.78-5.81-3.14-8.47-3.41-6.66-6.91-13.25-16.46-11.57-1.88.33-4.69.73-7-3.17,4.09,0,7.36.15,10.61,0a59.52,59.52,0,0,0,32.35-11.57c2.49-1.8,4.56-5,8.47-3.62C217.72,180,210,182.95,202.45,186c-4.08,1.63-8.38,2.69-12.69,4C195,197.71,201.81,204.59,200.48,214.93Z"/><path class="cls-6" d="M60.67,98.9l2.51-.08c-1.83,11.37-6,22.24-7.19,33.77-.13,1.31-1.47.56-2.29.64-.4-5.78-.73-11.6,1.05-17.21,3.49-10.94-2.89-21.22-1.9-32,.58-6.27-1.22-12.91,3.37-18.43l1.23,1c3,3.42,1.07,7.54,1.58,11.31C60,84.88,57.18,92.14,60.67,98.9Z"/><path class="cls-7" d="M235.48,137.91c-3.53-1-2.51-4-2.68-6.34-.35-4.85-.65-9.67-1.42-14.5s-4.51-8.71.14-14.86c3.43-4.53,1.8-13,2.26-19.65.3-4.37-.28-8.84,1.79-13,2.89,2,2.69,5.19,2.88,8.14.41,6.54.26,13.3-1.77,19.36-3.34,9.94-2.41,19.42-.19,29.25C237.32,130.07,237.59,134.21,235.48,137.91Z"/><path class="cls-5" d="M56.25,54.08c.33-18.45,11.66-25,27.62-16,5.43,3.08,11,6,14.37,11.68l-.8.64c-3.6,1.16-6.12-1.23-8.9-2.75C84.12,45.27,80.1,42,75,40.9c-6.53-1.48-10,.34-12.48,6.56-1.14,2.83-1,6.7-5.37,7.08Z"/><path class="cls-8" d="M151.31,46.86a8.08,8.08,0,0,1-5.3,1.41c-12-.33-23.6,2-35.25,4.33-1.65.34-4.65,2.91-5.44-1.37,11.61-6.33,24.21-7.8,37.14-7.35C145.61,44,149.08,43.76,151.31,46.86Z"/><path class="cls-9" d="M84.18,69.91c-3.85-1.22-2-3.59-.8-5.32a64.64,64.64,0,0,1,5.41-6.14c1.81-4.44,5.56-6.78,9.56-8.85l-.11.21c1.32-.78,2.62-1.6,4-2.32,2.32-1.23,3.45-.66,3,2.11C100.68,58.93,88.38,60.23,84.18,69.91Z"/><path class="cls-7" d="M235.41,54c-2.75-.47-5.22,9.09-8.19.22,4.23-.81,5.29-5.55,8.72-7.5C238.21,49.59,236.09,51.72,235.41,54Z"/><path class="cls-10" d="M61.87,56.6,64.06,59a6.32,6.32,0,0,1-2.34.7c-1.8-.22-3.57-.74-5.35-1.14-.79-.5-1.6-1-2.35-1.5-1.49-1.06-4-2.41-2.89-4.1,1.71-2.58,3.51.09,5.12,1.15l-.1-.2C57.94,55.06,60.53,54.52,61.87,56.6Z"/><path class="cls-11" d="M200.55,226.43q-7.07-3.69-1.46-8.95C203.51,219.82,200.63,223.35,200.55,226.43Z"/><path class="cls-5" d="M166.64,48.31c-4.08,1.84-9,2.5-11-2.82C164.9,48,173.76,35.65,166.64,48.31Z"/><path class="cls-12" d="M64.73,163l3.84-2.56c2.22,1.75-.8,3.82.38,5.56-2.16-.1-2.47,4-5,2.39-.75-.47-.5-2.53-.71-3.86A1.83,1.83,0,0,1,64.73,163Z"/><path class="cls-13" d="M230.08,61.73,236.83,54c3.66,1.8-.34,3.67.05,5.5C234.77,60.72,233.25,63.76,230.08,61.73Z"/><path class="cls-7" d="M235.5,68.2c-2.24.07-5.49.82-2.36-3.08a33.16,33.16,0,0,1,3.94-3.6C241.83,65,236.18,66,235.5,68.2Z"/><path class="cls-7" d="M233.39,160.67c-.89-2.64-10.48-.27-4.09-7.1,2.72,3.33,7.39,2,10.74,4.11C238.58,161.06,235.71,160.2,233.39,160.67Z"/><path class="cls-13" d="M224,159.67l10,2.27c.16,4.08-3.39,1.44-4.81,2.66C227.16,163.31,223.76,163.43,224,159.67Z"/><path class="cls-7" d="M220.92,167.52c-1.13-1.93-3.33-4.44,1.59-3.54a33.16,33.16,0,0,1,5,1.76C226.75,171.56,223.17,167.08,220.92,167.52Z"/><path class="cls-7" d="M54.37,151.91c1.09-2.56,10.47.52,4.62-6.77-3,3.12-7.52,1.45-11,3.28C49.16,151.9,52.09,151.26,54.37,151.91Z"/><path class="cls-13" d="M63.77,151.62l-10.15,1.51c-.47,4.05,3.27,1.7,4.6,3C60.38,155,63.76,155.38,63.77,151.62Z"/><path class="cls-7" d="M66.28,159.67c1.27-1.84,3.65-4.17-1.32-3.65a33.16,33.16,0,0,0-5.15,1.37C60.16,163.27,64.07,159.07,66.28,159.67Z"/><path class="cls-14" d="M56.38,59.35c.75,2.09,4.73,1,4.25,3.65-.31,1.73-2.81.54-4.26,1-1.67-.57-4.22-.67-4.26-2.7C52.06,58.52,54.91,60,56.38,59.35Z"/><path class="cls-15" d="M99.69,155c-11.31-.12-20.59-9.81-20.45-21.34.13-10.9,10.89-21,22.18-20.84s20.37,10,20.22,21.63S111.94,155.13,99.69,155Z"/><path class="cls-15" d="M177.95,133.93c-.11-11.53,9.79-21,21.81-20.84,10.71.13,19.64,9.39,19.75,20.48a20.94,20.94,0,0,1-20.7,21.11C187.27,154.89,178.06,145.74,177.95,133.93Z"/><path class="cls-6" d="M91,98.21c2.64-6.3,13.94-10.71,19.88-7.87,1.8.86,3.09,2.28,2.88,4.33s-2.31,2.51-3.74,2.13c-6.14-1.63-10.84.5-15,4.91-1,1.1-2.5,2.52-4.14.89C89.47,101.17,90.59,99.56,91,98.21Z"/><path class="cls-16" d="M192.81,84.39c6.78-.94,16.33,5.41,17.94,12,.21.84.32,2.14-.15,2.62-1,1-2.24.42-3-.52-4.68-5.78-10.07-9.59-18.06-7.39a1.75,1.75,0,0,1-2.1-2.1C187.94,86,190,84.74,192.81,84.39Z"/><path class="cls-17" d="M99.67,227.53l-.3,4.74c-2.29-1.77.28-5.48-3-7.11-1.38-.68.24-1.83,1.14-2.46,1.21-.84,2.61-1.33,3.86-.41s.24,1.94-.4,2.87A22.7,22.7,0,0,0,99.67,227.53Z"/><path class="cls-17" d="M101.83,219.37c-3.55,2.47-5.68,2.2-7.33-.44a1.89,1.89,0,0,1,.22-1.79C97.83,215.47,98.77,218.78,101.83,219.37Z"/><path class="cls-1" d="M61.87,56.6c-2.34,0-3.93-1.56-5.72-2.72,3.6-.58,3.61-3.72,4.49-6.26C64,38.08,69,35.77,78.24,40.09c4.57,2.14,8.78,5.05,13.17,7.58,2.14,1.23,4.09,3.25,6.95,1.93-3.05,3.09-5.08,7.3-9.56,8.85-4-.93-6.59-4.13-9.71-6.39C71.17,46.32,66.14,47.51,61.87,56.6Z"/><path class="cls-1" d="M60.67,98.9c-3.63,0-2.61-3.09-2.68-4.69-.39-9.19-.4-18.39-.53-27.59,4.48-1.92,2.87,1.89,2.91,3.4C60.6,79.64,60.6,89.27,60.67,98.9Z"/><path class="cls-18" d="M115,126.9c-1,4.14-3.33,6.89-7.69,6.64s-6.75-3.2-6.54-7.47,2.89-6.75,7.37-6.53S114.33,122.93,115,126.9Z"/><path class="cls-19" d="M206.05,118.64c4.53.72,7,3.13,6.9,7.55s-2.8,7.1-7.09,7-6.8-2.88-6.69-7.37S202.07,119.24,206.05,118.64Z"/><path class="cls-20" d="M182.06,157.28c5.31-.2,10.09,1.5,14.65,4,2.45,1.36,3.71,3.47,3.19,6.15-.59,3-3.18,2.8-5.57,2.87a23.28,23.28,0,0,1-16.86-6.06c-1.38-1.26-3.55-3.08-2.32-5.53,1.11-2.22,3.51-1.29,5.41-1.46C181.06,157.24,181.56,157.27,182.06,157.28Z"/><path class="cls-21" d="M108.45,169.14c-2.86,0-6.1.35-6.89-3.27-.75-3.46,2.29-4.71,4.66-6.22,4.61-2.93,9.89-3.53,15.08-4.45a4,4,0,0,1,4.33,1.82c1.14,1.81-.18,3.24-1.22,4.41C120.17,166.17,115.05,169.25,108.45,169.14Z"/><path class="cls-22" d="M141,168.07c-2.22-.87-5-1.48-5.7-4.51s.66-5.5,2.88-7.5c4.87-4.4,14.83-5.09,20.4-1.5,2.35,1.51,4.07,3.48,3.89,6.37s-2.35,4.52-4.9,5.59C153,168.46,145.69,169.18,141,168.07Z"/><path class="cls-23" d="M145.36,164.74c-2.19-.6-5.18-.74-5.33-3.52-.16-3.05,2.6-4.31,5.21-5.11a16.17,16.17,0,0,1,11.1.86c1.59.64,3.07,1.79,3,3.71s-1.65,2.6-3.14,3.19A16.55,16.55,0,0,1,145.36,164.74Z"/><path class="cls-24" d="M181.3,227.82a3.21,3.21,0,0,0,0,6.41,3.21,3.21,0,0,0,0-6.41Z"/><path class="cls-24" d="M181.31,213.9a3.21,3.21,0,0,0-3.19,3.19,3.15,3.15,0,0,0,3.14,3.16,3.07,3.07,0,0,0,3.19-3.14A3.17,3.17,0,0,0,181.31,213.9Z"/><path class="cls-24" d="M181.27,206.34a3.11,3.11,0,0,0,3.18-3.16,3.15,3.15,0,0,0-3.14-3.22,3.19,3.19,0,0,0,0,6.37Z"/><path class="cls-24" d="M172.77,226.47q0-13,0-26a7.11,7.11,0,0,0-.64-3.43,6.92,6.92,0,0,0-6.57-3.92H129.67c-2.69,0-5.38,0-8.08,0a7.26,7.26,0,0,0-2.23.34,6.78,6.78,0,0,0-4.74,6.62q0,17,0,33.94c0,.29,0,.59,0,.88a7.67,7.67,0,0,0,.33,1.52,5,5,0,0,0,.5,1c.32.49.66,1,1,1.48,1.16,1.18,3,2.1,6.05,2.1h43a7,7,0,0,0,3.46-.78A6.48,6.48,0,0,0,172.7,235c.11-1.36.05-2.73.07-4.1a1.15,1.15,0,0,1,.45-1.1.84.84,0,0,0,.12-.81A3.16,3.16,0,0,1,172.77,226.47Z"/><path class="cls-15" d="M189.78,200.11a14.86,14.86,0,0,0-.53-4,13.07,13.07,0,0,0-4.6-6.82,12.58,12.58,0,0,0-6.61-2.78c-1.29-.12-2.6-.14-3.9-.14-5,0-10,0-15,0-.35,0-.66,0-.81-.41a9.3,9.3,0,0,0-2.41-3.6c-.28-.27-.33-.42,0-.71q4.41-4.37,8.79-8.77a1,1,0,0,1,.93-.32,3.26,3.26,0,0,0,3.66-2.63,3.34,3.34,0,0,0-2.44-4,3.41,3.41,0,0,0-4.24,3.83.94.94,0,0,1-.28.68c-3.1,3.11-6.21,6.2-9.3,9.32a.83.83,0,0,1-1,.25,10.17,10.17,0,0,0-6.37,0,1.06,1.06,0,0,1-.89-.17q-4.73-4.67-9.4-9.39a1.08,1.08,0,0,1-.22-.76,3.4,3.4,0,0,0-1.38-3.19,3.4,3.4,0,0,0-5.27,3.66,3.31,3.31,0,0,0,3.72,2.41,1,1,0,0,1,.71.23c3,2.94,5.93,5.9,8.89,8.85.27.27.28.44,0,.71a9,9,0,0,0-2.33,3.36.89.89,0,0,1-1,.66q-8.08,0-16.15,0a18,18,0,0,0-3.39.22,13.24,13.24,0,0,0-7,3.73,12.64,12.64,0,0,0-3.91,8.57c-.13,3.59-.06,7.19-.09,10.79a1.89,1.89,0,0,0,.07.66l0,1.16h-.09l.09.14,0,2.1a3.75,3.75,0,0,0,0,.46q0,.38,0,.76l0,3h0q0,7.72,0,15.45a18.6,18.6,0,0,0,.26,3.39,11.5,11.5,0,0,0,6.41,9s0,.09,0,.15c1.11.43,2.21.95,3.36,1.27.43.12.86.21,1.3.29a17.38,17.38,0,0,0,2.39.4c0,1.43,0,2.9,0,4.36a2.3,2.3,0,0,0,1.33,2.3,2.47,2.47,0,0,0,2.94-.54c1.87-1.91,3.79-3.79,5.67-5.7a1.73,1.73,0,0,1,1.36-.58c6.48,0,13,0,19.43,0,4.25,0,8.5,0,12.74,0a1.36,1.36,0,0,1,.87.33c2,2,4,4,6,6a2.48,2.48,0,0,0,3.41.14,2.3,2.3,0,0,0,.8-1.84c0-1.51,0-3,0-4.57l.67,0a13.59,13.59,0,0,0,6.42-2,13.35,13.35,0,0,0,6.59-11.83Q189.84,217.08,189.78,200.11ZM172.7,235a6.48,6.48,0,0,1-3.66,5.32,7,7,0,0,1-3.46.78h-43c-3,0-4.89-.92-6.05-2.1-.35-.5-.69-1-1-1.48a5,5,0,0,1-.5-1,7.67,7.67,0,0,1-.33-1.52c0-.29,0-.58,0-.88q0-8.42,0-16.84v-.88q0-8.11,0-16.22a6.78,6.78,0,0,1,4.74-6.62,7.26,7.26,0,0,1,2.23-.34c2.69,0,5.38,0,8.08,0h35.89a6.92,6.92,0,0,1,6.57,3.92,7.11,7.11,0,0,1,.64,3.43q0,13,0,26c0,.38,0,.76,0,1.13v3c0,.08,0,.17,0,.25C172.75,232.23,172.81,233.61,172.7,235Zm8.61-35a3.15,3.15,0,0,1,3.14,3.22,3.11,3.11,0,0,1-3.18,3.16,3.19,3.19,0,0,1,0-6.37Zm0,34.27a3.21,3.21,0,0,1,0-6.41,3.21,3.21,0,0,1,0,6.41Zm3.16-17.12a3.07,3.07,0,0,1-3.19,3.14,3.15,3.15,0,0,1-3.14-3.16,3.21,3.21,0,0,1,3.19-3.19A3.17,3.17,0,0,1,184.45,217.12Z"/><path class="cls-24" d="M134.51,193.13h-4.84c-2.69,0-5.38,0-8.08,0a7.26,7.26,0,0,0-2.23.34,6.78,6.78,0,0,0-4.74,6.62q0,17,0,33.94c0,.29,0,.59,0,.88a7.68,7.68,0,0,0,.33,1.52,5,5,0,0,0,.5,1c.32.5.66,1,1,1.48,1.16,1.18,3,2.1,6.05,2.1h11.95Z"/><path class="cls-25" d="M172.76,227.49c0-.26,0-.53,0-.8V200.41a7,7,0,0,0-.64-3.36,6.92,6.92,0,0,0-6.57-3.92H152.87v47.93h12.93a6.87,6.87,0,0,0,3.25-.77A6.48,6.48,0,0,0,172.7,235c0-.58.06-1.17.07-1.76v-1.31c0-.34,0-.68,0-1h0Z"/><path class="cls-26" d="M134.51,193.13h-4.84c-2.69,0-5.38,0-8.08,0a7.26,7.26,0,0,0-2.23.34,6.78,6.78,0,0,0-4.74,6.62q0,17,0,33.94c0,.29,0,.59,0,.88a7.68,7.68,0,0,0,.33,1.52,5,5,0,0,0,.5,1c.32.5.66,1,1,1.48,1.16,1.18,3,2.1,6.05,2.1h11.95Z"/><rect class="cls-27" x="119.9" y="207.13" width="47.95" height="19.9" transform="translate(360.96 73.2) rotate(90)"/><ellipse class="cls-28" cx="193.18" cy="204.45" rx="8.72" ry="12.22"/><ellipse class="cls-28" cx="107.82" cy="203.15" rx="8.72" ry="12.22"/></svg>